<svg id="outside_rect" data-name="outside rect" xmlns="http://www.w3.org/2000/svg" viewBox="0 0 841.89 841.89"><defs><style>.cls-1{fill:#fff;stroke:#231f20;stroke-miterlimit:10;stroke-width:0.01px;}</style></defs><path class="cls-1" d="M711.48,255.44H479.17l-26.93,26.93H689.11a10.7,10.7,0,0,1,10.7,10.7V546.62a10.7,10.7,0,0,1-10.7,10.71H140.75a10.7,10.7,0,0,1-10.7-10.71V293.07a10.7,10.7,0,0,1,10.7-10.7h257.9l-26.93-26.93H113.4a14.19,14.19,0,0,0-14.19,14.19V570.07a14.19,14.19,0,0,0,14.19,14.19H711.48a14.19,14.19,0,0,0,14.19-14.19V269.63A14.19,14.19,0,0,0,711.48,255.44Zm-590,317.44a8.5,8.5,0,1,1,8.51-8.5A8.5,8.5,0,0,1,121.43,572.88Zm0-291.68a8.51,8.51,0,1,1,8.51-8.5A8.51,8.51,0,0,1,121.43,281.2ZM420.94,577.47a8.51,8.51,0,1,1,8.51-8.5A8.51,8.51,0,0,1,420.94,577.47Zm287.55-3.17a8.51,8.51,0,1,1,8.5-8.5A8.5,8.5,0,0,1,708.49,574.3Zm.57-295.08a8.51,8.51,0,1,1,8.5-8.51A8.51,8.51,0,0,1,709.06,279.22Z"/><circle class="cls-1" cx="121.43" cy="272.7" r="8.5" transform="translate(-157.26 165.74) rotate(-45)"/><circle class="cls-1" cx="121.43" cy="564.38" r="8.5" transform="translate(-363.51 251.17) rotate(-45)"/><circle class="cls-1" cx="420.94" cy="568.97" r="8.5" transform="translate(-279.03 464.3) rotate(-45)"/><circle class="cls-1" cx="709.06" cy="270.71" r="8.5" transform="translate(-43.23 170.15) rotate(-13.28)"/><circle class="cls-1" cx="708.49" cy="565.8" r="8.5" transform="translate(-111.04 177.91) rotate(-13.28)"/></svg>