<?xml version="1.0" standalone="no"?>
 <!DOCTYPE svg PUBLIC "-//W3C//DTD SVG 1.1//EN" 
 "http://www.w3.org/Graphics/SVG/1.1/DTD/svg11.dtd"> 
<svg
  xmlns:svg="http://www.w3.org/2000/svg"
  xmlns="http://www.w3.org/2000/svg"
  xmlns:xlink="http://www.w3.org/1999/xlink"
  version="1.1"
  width="41.998900cm" height="29.700220cm" viewBox="0 0 419989000 297002200">
<title>SVG Picture created as MiniFighter Lite MIDDLE BELOW PLATE-Edge_Cuts.svg date 2022/06/29 17:38:37 </title>
  <desc>Picture generated by PCBNEW </desc>
<g style="fill:#000000; fill-opacity:1.000000;stroke:#000000; stroke-opacity:1.000000;
stroke-linecap:round; stroke-linejoin:round;"
 transform="translate(0 0) scale(1 1)">
</g>
<g style="fill:#000000; fill-opacity:0.0; 
stroke:#000000; stroke-width:0.000000; stroke-opacity:1; 
stroke-linecap:round; stroke-linejoin:round;">
</g>
<g style="fill:#000000; fill-opacity:0.0; 
stroke:#000000; stroke-width:100000.000000; stroke-opacity:1; 
stroke-linecap:round; stroke-linejoin:round;">
<circle cx="322600000.000000" cy="170200000.000000" r="1500000.000000" /> 
<circle cx="233700000.000000" cy="170200000.000000" r="1500000.000000" /> 
<circle cx="129540000.000000" cy="170180000.000000" r="1500000.000000" /> 
<circle cx="233700000.000000" cy="123200000.000000" r="1500000.000000" /> 
<circle cx="129600000.000000" cy="82000000.000000" r="1500000.000000" /> 
<circle cx="322600000.000000" cy="82000000.000000" r="1500000.000000" /> 
<path d="M138900000 78000000
L138938000 87884000
" />
<path d="M326390000.000000 81810000.000000 A3810000.000000 3810000.000000 0.0 0 0 322580000.000000 78000000.000000" />
<path d="M138938000 87884000
L212217000 87884000
" />
<path d="M218694000 90932000
L240284000 90932000
" />
<path d="M130424000 160274000
L125730000 160274000
" />
<path d="M302006000 77978000
L240284000 77978000
" />
<path d="M295300000 128900000
L281300000 128900000
" />
<path d="M281300000 128900000
L281300000 114900000
" />
<path d="M281300000 114900000
L295300000 114900000
" />
<path d="M295300000 114900000
L295300000 128900000
" />
<path d="M217800000 169600000
L203800000 169600000
" />
<path d="M203800000 169600000
L203800000 155600000
" />
<path d="M203800000 155600000
L217800000 155600000
" />
<path d="M217800000 155600000
L217800000 169600000
" />
<path d="M295300000 99800000
L281300000 99800000
" />
<path d="M281300000 99800000
L281300000 85800000
" />
<path d="M281300000 85800000
L295300000 85800000
" />
<path d="M295300000 85800000
L295300000 99800000
" />
<path d="M323200000 136800000
L309200000 136800000
" />
<path d="M309200000 136800000
L309200000 122600000
" />
<path d="M309200000 122600000
L323200000 122600000
" />
<path d="M323200000 122600000
L323200000 136800000
" />
<path d="M125679200 134366000
L125575923 81810000
" />
<path d="M129540000 173990000
L322425923 173990000
" />
<path d="M125730000.000000 170180000.000000 A3810000.000000 3810000.000000 0.0 0 0 129540000.000000 173990000.000000" />
<path d="M240700000 142900000
L226700000 142900000
" />
<path d="M226700000 142900000
L226700000 128900000
" />
<path d="M226700000 128900000
L240700000 128900000
" />
<path d="M240700000 128900000
L240700000 142900000
" />
<path d="M326235923 170180000
L326390000 81810000
" />
<path d="M179700000 108600000
L165700000 108600000
" />
<path d="M165700000 108600000
L165700000 94600000
" />
<path d="M165700000 94600000
L179700000 94600000
" />
<path d="M179700000 94600000
L179700000 108600000
" />
<path d="M266100000 99700000
L252100000 99700000
" />
<path d="M252100000 99700000
L252100000 85700000
" />
<path d="M252100000 85700000
L266100000 85700000
" />
<path d="M266100000 85700000
L266100000 99700000
" />
<path d="M125730000 160274000
L125730000 170180000
" />
<path d="M129385922.999861 78000023.000069 A3809977.000000 3809977.000000 0.0 0 0 125575923.000000 81810000.000000" />
<path d="M323200000 107400000
L309200000 107400000
" />
<path d="M309200000 107400000
L309200000 93400000
" />
<path d="M309200000 93400000
L323200000 93400000
" />
<path d="M323200000 93400000
L323200000 107400000
" />
<path d="M138900000 78000000
L129385923 78000000
" />
<path d="M322425923.000139 173990022.999931 A3810023.000000 3810023.000000 0.0 0 0 326235923.000000 170180000.000000" />
<path d="M212217000 77978000
L212217000 87884000
" />
<path d="M311246000 86395200
L311277000 77978000
" />
<path d="M218694000 77978000
L212217000 77978000
" />
<path d="M151800000 108600000
L137800000 108600000
" />
<path d="M137800000 108600000
L137800000 94600000
" />
<path d="M137800000 94600000
L151800000 94600000
" />
<path d="M151800000 94600000
L151800000 108600000
" />
<path d="M240284000 90932000
L240284000 77978000
" />
<path d="M187904000 160274000
L187904000 134366000
" />
<path d="M130424000 160274000
L187904000 160274000
" />
<path d="M311277000 77978000
L322580000 78000000
" />
<path d="M205100000 122600000
L191100000 122600000
" />
<path d="M191100000 122600000
L191100000 108600000
" />
<path d="M191100000 108600000
L205100000 108600000
" />
<path d="M205100000 108600000
L205100000 122600000
" />
<path d="M187904000 134366000
L125679200 134366000
" />
<path d="M266100000 128900000
L252100000 128900000
" />
<path d="M252100000 128900000
L252100000 114900000
" />
<path d="M252100000 114900000
L266100000 114900000
" />
<path d="M266100000 114900000
L266100000 128900000
" />
<path d="M218694000 77978000
L218694000 90932000
" />
<path d="M240700000 113700000
L226700000 113700000
" />
<path d="M226700000 113700000
L226700000 99700000
" />
<path d="M226700000 99700000
L240700000 99700000
" />
<path d="M240700000 99700000
L240700000 113700000
" />
<path d="M311246000 86395200
L302044000 86395200
" />
<path d="M302006000 77978000
L302044000 86395200
" />
<g >
</g>
<g >
</g>
<g >
</g>
<g >
</g>
<g >
</g>
<g >
</g>
<g >
</g>
<g >
</g>
<g >
</g>
<g >
</g>
<g >
</g>
<g >
</g>
</g> 
</svg>
