<?xml version="1.0" standalone="no"?>
 <!DOCTYPE svg PUBLIC "-//W3C//DTD SVG 1.1//EN" 
 "http://www.w3.org/Graphics/SVG/1.1/DTD/svg11.dtd"> 
<svg
  xmlns:svg="http://www.w3.org/2000/svg"
  xmlns="http://www.w3.org/2000/svg"
  xmlns:xlink="http://www.w3.org/1999/xlink"
  version="1.1"
  width="41.998900cm" height="29.700220cm" viewBox="0 0 419989000 297002200">
<title>SVG Picture created as MiniFighter Lite-Edge_Cuts.svg date 2022/06/29 13:42:01 </title>
  <desc>Picture generated by PCBNEW </desc>
<g style="fill:#000000; fill-opacity:1.000000;stroke:#000000; stroke-opacity:1.000000;
stroke-linecap:round; stroke-linejoin:round;"
 transform="translate(0 0) scale(1 1)">
</g>
<g style="fill:#000000; fill-opacity:0.0; 
stroke:#000000; stroke-width:0.000000; stroke-opacity:1; 
stroke-linecap:round; stroke-linejoin:round;">
</g>
<g style="fill:#000000; fill-opacity:0.0; 
stroke:#000000; stroke-width:100000.000000; stroke-opacity:1; 
stroke-linecap:round; stroke-linejoin:round;">
<path d="M323100000 106400000
L309100000 106400000
" />
<path d="M309100000 106400000
L309100000 92400000
" />
<path d="M309100000 92400000
L323100000 92400000
" />
<path d="M323100000 92400000
L323100000 106400000
" />
</g>
<g style="fill:#000000; fill-opacity:0.0; 
stroke:#000000; stroke-width:50000.000000; stroke-opacity:1; 
stroke-linecap:round; stroke-linejoin:round;">
<path d="M121562641.000000 66942641.000000 A5999999.000000 5999999.000000 0.0 0 0 115562641.000000 72942641.000000" />
<circle cx="329600000.000000" cy="72900000.000000" r="3000000.000000" /> 
</g>
<g style="fill:#000000; fill-opacity:0.0; 
stroke:#000000; stroke-width:100000.000000; stroke-opacity:1; 
stroke-linecap:round; stroke-linejoin:round;">
<path d="M151700000 107600000
L137700000 107600000
" />
<path d="M137700000 107600000
L137700000 93600000
" />
<path d="M137700000 93600000
L151700000 93600000
" />
<path d="M151700000 93600000
L151700000 107600000
" />
<path d="M295200000 98800000
L281200000 98800000
" />
<path d="M281200000 98800000
L281200000 84800000
" />
<path d="M281200000 84800000
L295200000 84800000
" />
<path d="M295200000 84800000
L295200000 98800000
" />
</g>
<g style="fill:#000000; fill-opacity:0.0; 
stroke:#000000; stroke-width:50000.000000; stroke-opacity:1; 
stroke-linecap:round; stroke-linejoin:round;">
<path d="M115562641.000140 177037359.000000 A5999959.000000 5999959.000000 0.0 0 0 121562641.000000 183037358.999860" />
<circle cx="122300000.000000" cy="176500000.000000" r="3000000.000000" /> 
</g>
<g style="fill:#000000; fill-opacity:0.0; 
stroke:#000000; stroke-width:100000.000000; stroke-opacity:1; 
stroke-linecap:round; stroke-linejoin:round;">
<path d="M240600000 141900000
L226600000 141900000
" />
<path d="M226600000 141900000
L226600000 127900000
" />
<path d="M226600000 127900000
L240600000 127900000
" />
<path d="M240600000 127900000
L240600000 141900000
" />
</g>
<g style="fill:#000000; fill-opacity:0.0; 
stroke:#000000; stroke-width:50000.000000; stroke-opacity:1; 
stroke-linecap:round; stroke-linejoin:round;">
<path d="M330397359 183047359
L121562641 183037359
" />
<path d="M336410000.000000 72950000.000000 A6000000.000000 6000000.000000 0.0 0 0 330410000.000000 66950000.000000" />
</g>
<g style="fill:#000000; fill-opacity:0.0; 
stroke:#000000; stroke-width:100000.000000; stroke-opacity:1; 
stroke-linecap:round; stroke-linejoin:round;">
<path d="M240600000 112700000
L226600000 112700000
" />
<path d="M226600000 112700000
L226600000 98700000
" />
<path d="M226600000 98700000
L240600000 98700000
" />
<path d="M240600000 98700000
L240600000 112700000
" />
<path d="M205000000 121600000
L191000000 121600000
" />
<path d="M191000000 121600000
L191000000 107600000
" />
<path d="M191000000 107600000
L205000000 107600000
" />
<path d="M205000000 107600000
L205000000 121600000
" />
<path d="M266000000 127900000
L252000000 127900000
" />
<path d="M252000000 127900000
L252000000 113900000
" />
<path d="M252000000 113900000
L266000000 113900000
" />
<path d="M266000000 113900000
L266000000 127900000
" />
<path d="M266000000 98700000
L252000000 98700000
" />
<path d="M252000000 98700000
L252000000 84700000
" />
<path d="M252000000 84700000
L266000000 84700000
" />
<path d="M266000000 84700000
L266000000 98700000
" />
</g>
<g style="fill:#000000; fill-opacity:0.0; 
stroke:#000000; stroke-width:50000.000000; stroke-opacity:1; 
stroke-linecap:round; stroke-linejoin:round;">
<path d="M330397359.000000 183047358.999860 A5999959.000000 5999959.000000 0.0 0 0 336397358.999860 177047359.000000" />
<path d="M336397359 177047359
L336410000 72950000
" />
</g>
<g style="fill:#000000; fill-opacity:0.0; 
stroke:#000000; stroke-width:100000.000000; stroke-opacity:1; 
stroke-linecap:round; stroke-linejoin:round;">
<path d="M323100000 135800000
L309100000 135800000
" />
<path d="M309100000 135800000
L309100000 121600000
" />
<path d="M309100000 121600000
L323100000 121600000
" />
<path d="M323100000 121600000
L323100000 135800000
" />
</g>
<g style="fill:#000000; fill-opacity:0.0; 
stroke:#000000; stroke-width:50000.000000; stroke-opacity:1; 
stroke-linecap:round; stroke-linejoin:round;">
<path d="M115562641 177037359
L115562641 72942641
" />
<path d="M302900000 78500000
L310400000 78500000
" />
<path d="M310400000 78500000
L310400000 85200000
" />
<path d="M310400000 85200000
L302900000 85200000
" />
<path d="M302900000 85200000
L302900000 78500000
" />
<circle cx="122300000.000000" cy="73600000.000000" r="3000000.000000" /> 
</g>
<g style="fill:#000000; fill-opacity:0.0; 
stroke:#000000; stroke-width:100000.000000; stroke-opacity:1; 
stroke-linecap:round; stroke-linejoin:round;">
<path d="M217700000 168600000
L203700000 168600000
" />
<path d="M203700000 168600000
L203700000 154600000
" />
<path d="M203700000 154600000
L217700000 154600000
" />
<path d="M217700000 154600000
L217700000 168600000
" />
<path d="M295200000 127900000
L281200000 127900000
" />
<path d="M281200000 127900000
L281200000 113900000
" />
<path d="M281200000 113900000
L295200000 113900000
" />
<path d="M295200000 113900000
L295200000 127900000
" />
</g>
<g style="fill:#000000; fill-opacity:0.0; 
stroke:#000000; stroke-width:50000.000000; stroke-opacity:1; 
stroke-linecap:round; stroke-linejoin:round;">
<circle cx="329400000.000000" cy="177000000.000000" r="3000000.000000" /> 
<path d="M140400000 79800000
L212000000 79800000
" />
<path d="M212000000 79800000
L212000000 86200000
" />
<path d="M212000000 86200000
L140400000 86200000
" />
<path d="M140400000 86200000
L140400000 79800000
" />
<path d="M121562641 66942641
L330410000 66950000
" />
<path d="M219300000 78000000
L239700000 78000000
" />
<path d="M239700000 78000000
L239700000 89800000
" />
<path d="M239700000 89800000
L219300000 89800000
" />
<path d="M219300000 89800000
L219300000 78000000
" />
</g>
<g style="fill:#000000; fill-opacity:0.0; 
stroke:#000000; stroke-width:100000.000000; stroke-opacity:1; 
stroke-linecap:round; stroke-linejoin:round;">
<path d="M179600000 107600000
L165600000 107600000
" />
<path d="M165600000 107600000
L165600000 93600000
" />
<path d="M165600000 93600000
L179600000 93600000
" />
<path d="M179600000 93600000
L179600000 107600000
" />
<g >
</g>
<g >
</g>
<g >
</g>
<g >
</g>
<g >
</g>
<g >
</g>
<g >
</g>
<g >
</g>
<g >
</g>
<g >
</g>
<g >
</g>
<g >
</g>
<g >
</g>
<g >
</g>
<g >
</g>
<g >
</g>
<g >
</g>
<g >
</g>
<g >
</g>
<g >
</g>
<g >
</g>
<g >
</g>
<g >
</g>
<g >
</g>
<g >
</g>
<g >
</g>
<g >
</g>
<g >
</g>
<g >
</g>
<g >
</g>
<g >
</g>
<g >
</g>
<g >
</g>
</g> 
</svg>
