%FSLAX45Y45*%
G04 Gerber Fmt 4.5, Leading zero omitted, Abs format (unit mm)*
G04 Created by KiCad (PCBNEW (6.0.4)) date 2022-06-27 13:40:30*
%MOMM*%
%LPD*%
G01*
G04 APERTURE LIST*
%TA.AperFunction,Profile*%
%ADD10C,0.100000*%
%TD*%
%ADD11C,0.200000*%
%ADD12C,0.320000*%
G04 APERTURE END LIST*
D10*
X12573000Y-17018000D02*
X12557592Y-8181000D01*
X32639000Y-8181000D02*
G75*
G03*
X32258000Y-7800000I-381000J0D01*
G01*
X21869400Y-9093200D02*
X24028400Y-9093200D01*
X29530000Y-12890000D02*
X28130000Y-12890000D01*
X28130000Y-12890000D02*
X28130000Y-11490000D01*
X28130000Y-11490000D02*
X29530000Y-11490000D01*
X29530000Y-11490000D02*
X29530000Y-12890000D01*
X21780000Y-16960000D02*
X20380000Y-16960000D01*
X20380000Y-16960000D02*
X20380000Y-15560000D01*
X20380000Y-15560000D02*
X21780000Y-15560000D01*
X21780000Y-15560000D02*
X21780000Y-16960000D01*
X29530000Y-9980000D02*
X28130000Y-9980000D01*
X28130000Y-9980000D02*
X28130000Y-8580000D01*
X28130000Y-8580000D02*
X29530000Y-8580000D01*
X29530000Y-8580000D02*
X29530000Y-9980000D01*
X32320000Y-13680000D02*
X30920000Y-13680000D01*
X30920000Y-13680000D02*
X30920000Y-12260000D01*
X30920000Y-12260000D02*
X32320000Y-12260000D01*
X32320000Y-12260000D02*
X32320000Y-13680000D01*
X12852400Y-13436600D02*
X18440400Y-13436600D01*
X18440400Y-13436600D02*
X18440400Y-16027400D01*
X18440400Y-16027400D02*
X12852400Y-16027400D01*
X12852400Y-16027400D02*
X12852400Y-13436600D01*
X12954000Y-17399000D02*
X32242592Y-17399000D01*
X12573000Y-17018000D02*
G75*
G03*
X12954000Y-17399000I381000J0D01*
G01*
X24070000Y-14290000D02*
X22670000Y-14290000D01*
X22670000Y-14290000D02*
X22670000Y-12890000D01*
X22670000Y-12890000D02*
X24070000Y-12890000D01*
X24070000Y-12890000D02*
X24070000Y-14290000D01*
X21869400Y-7797800D02*
X12938592Y-7800000D01*
X13893800Y-7975600D02*
X21259800Y-7975600D01*
X21259800Y-7975600D02*
X21259800Y-8788400D01*
X21259800Y-8788400D02*
X13893800Y-8788400D01*
X13893800Y-8788400D02*
X13893800Y-7975600D01*
X32623592Y-17018000D02*
X32639000Y-8181000D01*
X17970000Y-10860000D02*
X16570000Y-10860000D01*
X16570000Y-10860000D02*
X16570000Y-9460000D01*
X16570000Y-9460000D02*
X17970000Y-9460000D01*
X17970000Y-9460000D02*
X17970000Y-10860000D01*
X26610000Y-9970000D02*
X25210000Y-9970000D01*
X25210000Y-9970000D02*
X25210000Y-8570000D01*
X25210000Y-8570000D02*
X26610000Y-8570000D01*
X26610000Y-8570000D02*
X26610000Y-9970000D01*
X31124600Y-8639520D02*
X30204400Y-8639520D01*
X30204400Y-8639520D02*
X30204400Y-7924400D01*
X30204400Y-7924400D02*
X31124600Y-7924400D01*
X31124600Y-7924400D02*
X31124600Y-8639520D01*
X12938592Y-7800002D02*
G75*
G03*
X12557592Y-8181000I-2J-380998D01*
G01*
X32320000Y-10740000D02*
X30920000Y-10740000D01*
X30920000Y-10740000D02*
X30920000Y-9340000D01*
X30920000Y-9340000D02*
X32320000Y-9340000D01*
X32320000Y-9340000D02*
X32320000Y-10740000D01*
X32242592Y-17399002D02*
G75*
G03*
X32623592Y-17018000I-2J381002D01*
G01*
X15180000Y-10860000D02*
X13780000Y-10860000D01*
X13780000Y-10860000D02*
X13780000Y-9460000D01*
X13780000Y-9460000D02*
X15180000Y-9460000D01*
X15180000Y-9460000D02*
X15180000Y-10860000D01*
X24028400Y-9093200D02*
X24028400Y-7797800D01*
X20510000Y-12260000D02*
X19110000Y-12260000D01*
X19110000Y-12260000D02*
X19110000Y-10860000D01*
X19110000Y-10860000D02*
X20510000Y-10860000D01*
X20510000Y-10860000D02*
X20510000Y-12260000D01*
X26610000Y-12890000D02*
X25210000Y-12890000D01*
X25210000Y-12890000D02*
X25210000Y-11490000D01*
X25210000Y-11490000D02*
X26610000Y-11490000D01*
X26610000Y-11490000D02*
X26610000Y-12890000D01*
X21869400Y-7797800D02*
X21869400Y-9093200D01*
X24028400Y-7797800D02*
X32258000Y-7800000D01*
X24070000Y-11370000D02*
X22670000Y-11370000D01*
X22670000Y-11370000D02*
X22670000Y-9970000D01*
X22670000Y-9970000D02*
X24070000Y-9970000D01*
X24070000Y-9970000D02*
X24070000Y-11370000D01*
D11*
D12*
X12794000Y-8040000D02*
X13114000Y-8360000D01*
X13114000Y-8040000D02*
X12794000Y-8360000D01*
X12794000Y-16858000D02*
X13114000Y-17178000D01*
X13114000Y-16858000D02*
X12794000Y-17178000D01*
X23208000Y-12159000D02*
X23528000Y-12479000D01*
X23528000Y-12159000D02*
X23208000Y-12479000D01*
X23208000Y-16858000D02*
X23528000Y-17178000D01*
X23528000Y-16858000D02*
X23208000Y-17178000D01*
X32098000Y-8040000D02*
X32418000Y-8360000D01*
X32418000Y-8040000D02*
X32098000Y-8360000D01*
X32098000Y-16858000D02*
X32418000Y-17178000D01*
X32418000Y-16858000D02*
X32098000Y-17178000D01*
D11*
X12810211Y-17714476D02*
X12810211Y-17514476D01*
X12857830Y-17514476D01*
X12886402Y-17524000D01*
X12905449Y-17543048D01*
X12914973Y-17562095D01*
X12924497Y-17600190D01*
X12924497Y-17628762D01*
X12914973Y-17666857D01*
X12905449Y-17685905D01*
X12886402Y-17704952D01*
X12857830Y-17714476D01*
X12810211Y-17714476D01*
X13010211Y-17714476D02*
X13010211Y-17581143D01*
X13010211Y-17619238D02*
X13019735Y-17600190D01*
X13029259Y-17590667D01*
X13048306Y-17581143D01*
X13067354Y-17581143D01*
X13134021Y-17714476D02*
X13134021Y-17581143D01*
X13134021Y-17514476D02*
X13124497Y-17524000D01*
X13134021Y-17533524D01*
X13143545Y-17524000D01*
X13134021Y-17514476D01*
X13134021Y-17533524D01*
X13257830Y-17714476D02*
X13238783Y-17704952D01*
X13229259Y-17685905D01*
X13229259Y-17514476D01*
X13362592Y-17714476D02*
X13343545Y-17704952D01*
X13334021Y-17685905D01*
X13334021Y-17514476D01*
X13591164Y-17714476D02*
X13591164Y-17514476D01*
X13657830Y-17657333D01*
X13724497Y-17514476D01*
X13724497Y-17714476D01*
X13905449Y-17714476D02*
X13905449Y-17609714D01*
X13895926Y-17590667D01*
X13876878Y-17581143D01*
X13838783Y-17581143D01*
X13819735Y-17590667D01*
X13905449Y-17704952D02*
X13886402Y-17714476D01*
X13838783Y-17714476D01*
X13819735Y-17704952D01*
X13810211Y-17685905D01*
X13810211Y-17666857D01*
X13819735Y-17647810D01*
X13838783Y-17638286D01*
X13886402Y-17638286D01*
X13905449Y-17628762D01*
X14000687Y-17581143D02*
X14000687Y-17781143D01*
X14000687Y-17590667D02*
X14019735Y-17581143D01*
X14057830Y-17581143D01*
X14076878Y-17590667D01*
X14086402Y-17600190D01*
X14095926Y-17619238D01*
X14095926Y-17676381D01*
X14086402Y-17695429D01*
X14076878Y-17704952D01*
X14057830Y-17714476D01*
X14019735Y-17714476D01*
X14000687Y-17704952D01*
X14181640Y-17695429D02*
X14191164Y-17704952D01*
X14181640Y-17714476D01*
X14172116Y-17704952D01*
X14181640Y-17695429D01*
X14181640Y-17714476D01*
X14181640Y-17590667D02*
X14191164Y-17600190D01*
X14181640Y-17609714D01*
X14172116Y-17600190D01*
X14181640Y-17590667D01*
X14181640Y-17609714D01*
X12352592Y-17944000D02*
X12552592Y-18144000D01*
X12552592Y-17944000D02*
X12352592Y-18144000D01*
X12791164Y-17934476D02*
X12914973Y-17934476D01*
X12848306Y-18010667D01*
X12876878Y-18010667D01*
X12895926Y-18020190D01*
X12905449Y-18029714D01*
X12914973Y-18048762D01*
X12914973Y-18096381D01*
X12905449Y-18115429D01*
X12895926Y-18124952D01*
X12876878Y-18134476D01*
X12819735Y-18134476D01*
X12800687Y-18124952D01*
X12791164Y-18115429D01*
X13000687Y-18115429D02*
X13010211Y-18124952D01*
X13000687Y-18134476D01*
X12991164Y-18124952D01*
X13000687Y-18115429D01*
X13000687Y-18134476D01*
X13086402Y-17953524D02*
X13095926Y-17944000D01*
X13114973Y-17934476D01*
X13162592Y-17934476D01*
X13181640Y-17944000D01*
X13191164Y-17953524D01*
X13200687Y-17972571D01*
X13200687Y-17991619D01*
X13191164Y-18020190D01*
X13076878Y-18134476D01*
X13200687Y-18134476D01*
X13324497Y-17934476D02*
X13343545Y-17934476D01*
X13362592Y-17944000D01*
X13372116Y-17953524D01*
X13381640Y-17972571D01*
X13391164Y-18010667D01*
X13391164Y-18058286D01*
X13381640Y-18096381D01*
X13372116Y-18115429D01*
X13362592Y-18124952D01*
X13343545Y-18134476D01*
X13324497Y-18134476D01*
X13305449Y-18124952D01*
X13295926Y-18115429D01*
X13286402Y-18096381D01*
X13276878Y-18058286D01*
X13276878Y-18010667D01*
X13286402Y-17972571D01*
X13295926Y-17953524D01*
X13305449Y-17944000D01*
X13324497Y-17934476D01*
X13514973Y-17934476D02*
X13534021Y-17934476D01*
X13553068Y-17944000D01*
X13562592Y-17953524D01*
X13572116Y-17972571D01*
X13581640Y-18010667D01*
X13581640Y-18058286D01*
X13572116Y-18096381D01*
X13562592Y-18115429D01*
X13553068Y-18124952D01*
X13534021Y-18134476D01*
X13514973Y-18134476D01*
X13495926Y-18124952D01*
X13486402Y-18115429D01*
X13476878Y-18096381D01*
X13467354Y-18058286D01*
X13467354Y-18010667D01*
X13476878Y-17972571D01*
X13486402Y-17953524D01*
X13495926Y-17944000D01*
X13514973Y-17934476D01*
X13667354Y-18134476D02*
X13667354Y-18001143D01*
X13667354Y-18020190D02*
X13676878Y-18010667D01*
X13695926Y-18001143D01*
X13724497Y-18001143D01*
X13743545Y-18010667D01*
X13753068Y-18029714D01*
X13753068Y-18134476D01*
X13753068Y-18029714D02*
X13762592Y-18010667D01*
X13781640Y-18001143D01*
X13810211Y-18001143D01*
X13829259Y-18010667D01*
X13838783Y-18029714D01*
X13838783Y-18134476D01*
X13934021Y-18134476D02*
X13934021Y-18001143D01*
X13934021Y-18020190D02*
X13943545Y-18010667D01*
X13962592Y-18001143D01*
X13991164Y-18001143D01*
X14010211Y-18010667D01*
X14019735Y-18029714D01*
X14019735Y-18134476D01*
X14019735Y-18029714D02*
X14029259Y-18010667D01*
X14048306Y-18001143D01*
X14076878Y-18001143D01*
X14095926Y-18010667D01*
X14105449Y-18029714D01*
X14105449Y-18134476D01*
X14495926Y-17924952D02*
X14324497Y-18182095D01*
X14753068Y-17934476D02*
X14772116Y-17934476D01*
X14791164Y-17944000D01*
X14800687Y-17953524D01*
X14810211Y-17972571D01*
X14819735Y-18010667D01*
X14819735Y-18058286D01*
X14810211Y-18096381D01*
X14800687Y-18115429D01*
X14791164Y-18124952D01*
X14772116Y-18134476D01*
X14753068Y-18134476D01*
X14734021Y-18124952D01*
X14724497Y-18115429D01*
X14714973Y-18096381D01*
X14705449Y-18058286D01*
X14705449Y-18010667D01*
X14714973Y-17972571D01*
X14724497Y-17953524D01*
X14734021Y-17944000D01*
X14753068Y-17934476D01*
X14905449Y-18115429D02*
X14914973Y-18124952D01*
X14905449Y-18134476D01*
X14895926Y-18124952D01*
X14905449Y-18115429D01*
X14905449Y-18134476D01*
X15105449Y-18134476D02*
X14991164Y-18134476D01*
X15048306Y-18134476D02*
X15048306Y-17934476D01*
X15029259Y-17963048D01*
X15010211Y-17982095D01*
X14991164Y-17991619D01*
X15181640Y-17953524D02*
X15191164Y-17944000D01*
X15210211Y-17934476D01*
X15257830Y-17934476D01*
X15276878Y-17944000D01*
X15286402Y-17953524D01*
X15295926Y-17972571D01*
X15295926Y-17991619D01*
X15286402Y-18020190D01*
X15172116Y-18134476D01*
X15295926Y-18134476D01*
X15467354Y-17934476D02*
X15429259Y-17934476D01*
X15410211Y-17944000D01*
X15400687Y-17953524D01*
X15381640Y-17982095D01*
X15372116Y-18020190D01*
X15372116Y-18096381D01*
X15381640Y-18115429D01*
X15391164Y-18124952D01*
X15410211Y-18134476D01*
X15448306Y-18134476D01*
X15467354Y-18124952D01*
X15476878Y-18115429D01*
X15486402Y-18096381D01*
X15486402Y-18048762D01*
X15476878Y-18029714D01*
X15467354Y-18020190D01*
X15448306Y-18010667D01*
X15410211Y-18010667D01*
X15391164Y-18020190D01*
X15381640Y-18029714D01*
X15372116Y-18048762D01*
X15610211Y-17934476D02*
X15629259Y-17934476D01*
X15648306Y-17944000D01*
X15657830Y-17953524D01*
X15667354Y-17972571D01*
X15676878Y-18010667D01*
X15676878Y-18058286D01*
X15667354Y-18096381D01*
X15657830Y-18115429D01*
X15648306Y-18124952D01*
X15629259Y-18134476D01*
X15610211Y-18134476D01*
X15591164Y-18124952D01*
X15581640Y-18115429D01*
X15572116Y-18096381D01*
X15562592Y-18058286D01*
X15562592Y-18010667D01*
X15572116Y-17972571D01*
X15581640Y-17953524D01*
X15591164Y-17944000D01*
X15610211Y-17934476D01*
X15753068Y-17934476D02*
X15753068Y-17972571D01*
X15829259Y-17934476D02*
X15829259Y-17972571D01*
X16124497Y-18210667D02*
X16114973Y-18201143D01*
X16095926Y-18172571D01*
X16086402Y-18153524D01*
X16076878Y-18124952D01*
X16067354Y-18077333D01*
X16067354Y-18039238D01*
X16076878Y-17991619D01*
X16086402Y-17963048D01*
X16095926Y-17944000D01*
X16114973Y-17915429D01*
X16124497Y-17905905D01*
X16286402Y-17934476D02*
X16248306Y-17934476D01*
X16229259Y-17944000D01*
X16219735Y-17953524D01*
X16200687Y-17982095D01*
X16191164Y-18020190D01*
X16191164Y-18096381D01*
X16200687Y-18115429D01*
X16210211Y-18124952D01*
X16229259Y-18134476D01*
X16267354Y-18134476D01*
X16286402Y-18124952D01*
X16295926Y-18115429D01*
X16305449Y-18096381D01*
X16305449Y-18048762D01*
X16295926Y-18029714D01*
X16286402Y-18020190D01*
X16267354Y-18010667D01*
X16229259Y-18010667D01*
X16210211Y-18020190D01*
X16200687Y-18029714D01*
X16191164Y-18048762D01*
X16543545Y-18134476D02*
X16543545Y-17934476D01*
X16629259Y-18134476D02*
X16629259Y-18029714D01*
X16619735Y-18010667D01*
X16600687Y-18001143D01*
X16572116Y-18001143D01*
X16553068Y-18010667D01*
X16543545Y-18020190D01*
X16753068Y-18134476D02*
X16734021Y-18124952D01*
X16724497Y-18115429D01*
X16714973Y-18096381D01*
X16714973Y-18039238D01*
X16724497Y-18020190D01*
X16734021Y-18010667D01*
X16753068Y-18001143D01*
X16781640Y-18001143D01*
X16800688Y-18010667D01*
X16810211Y-18020190D01*
X16819735Y-18039238D01*
X16819735Y-18096381D01*
X16810211Y-18115429D01*
X16800688Y-18124952D01*
X16781640Y-18134476D01*
X16753068Y-18134476D01*
X16934021Y-18134476D02*
X16914973Y-18124952D01*
X16905449Y-18105905D01*
X16905449Y-17934476D01*
X17086402Y-18124952D02*
X17067354Y-18134476D01*
X17029259Y-18134476D01*
X17010211Y-18124952D01*
X17000688Y-18105905D01*
X17000688Y-18029714D01*
X17010211Y-18010667D01*
X17029259Y-18001143D01*
X17067354Y-18001143D01*
X17086402Y-18010667D01*
X17095926Y-18029714D01*
X17095926Y-18048762D01*
X17000688Y-18067810D01*
X17172116Y-18124952D02*
X17191164Y-18134476D01*
X17229259Y-18134476D01*
X17248307Y-18124952D01*
X17257830Y-18105905D01*
X17257830Y-18096381D01*
X17248307Y-18077333D01*
X17229259Y-18067810D01*
X17200688Y-18067810D01*
X17181640Y-18058286D01*
X17172116Y-18039238D01*
X17172116Y-18029714D01*
X17181640Y-18010667D01*
X17200688Y-18001143D01*
X17229259Y-18001143D01*
X17248307Y-18010667D01*
X17324497Y-18210667D02*
X17334021Y-18201143D01*
X17353068Y-18172571D01*
X17362592Y-18153524D01*
X17372116Y-18124952D01*
X17381640Y-18077333D01*
X17381640Y-18039238D01*
X17372116Y-17991619D01*
X17362592Y-17963048D01*
X17353068Y-17944000D01*
X17334021Y-17915429D01*
X17324497Y-17905905D01*
X17686402Y-18210667D02*
X17676878Y-18201143D01*
X17657830Y-18172571D01*
X17648307Y-18153524D01*
X17638783Y-18124952D01*
X17629259Y-18077333D01*
X17629259Y-18039238D01*
X17638783Y-17991619D01*
X17648307Y-17963048D01*
X17657830Y-17944000D01*
X17676878Y-17915429D01*
X17686402Y-17905905D01*
X17762592Y-18001143D02*
X17762592Y-18134476D01*
X17762592Y-18020190D02*
X17772116Y-18010667D01*
X17791164Y-18001143D01*
X17819735Y-18001143D01*
X17838783Y-18010667D01*
X17848307Y-18029714D01*
X17848307Y-18134476D01*
X17972116Y-18134476D02*
X17953068Y-18124952D01*
X17943545Y-18115429D01*
X17934021Y-18096381D01*
X17934021Y-18039238D01*
X17943545Y-18020190D01*
X17953068Y-18010667D01*
X17972116Y-18001143D01*
X18000688Y-18001143D01*
X18019735Y-18010667D01*
X18029259Y-18020190D01*
X18038783Y-18039238D01*
X18038783Y-18096381D01*
X18029259Y-18115429D01*
X18019735Y-18124952D01*
X18000688Y-18134476D01*
X17972116Y-18134476D01*
X18095926Y-18001143D02*
X18172116Y-18001143D01*
X18124497Y-17934476D02*
X18124497Y-18105905D01*
X18134021Y-18124952D01*
X18153068Y-18134476D01*
X18172116Y-18134476D01*
X18391164Y-18001143D02*
X18391164Y-18201143D01*
X18391164Y-18010667D02*
X18410211Y-18001143D01*
X18448307Y-18001143D01*
X18467354Y-18010667D01*
X18476878Y-18020190D01*
X18486402Y-18039238D01*
X18486402Y-18096381D01*
X18476878Y-18115429D01*
X18467354Y-18124952D01*
X18448307Y-18134476D01*
X18410211Y-18134476D01*
X18391164Y-18124952D01*
X18600688Y-18134476D02*
X18581640Y-18124952D01*
X18572116Y-18105905D01*
X18572116Y-17934476D01*
X18762592Y-18134476D02*
X18762592Y-18029714D01*
X18753068Y-18010667D01*
X18734021Y-18001143D01*
X18695926Y-18001143D01*
X18676878Y-18010667D01*
X18762592Y-18124952D02*
X18743545Y-18134476D01*
X18695926Y-18134476D01*
X18676878Y-18124952D01*
X18667354Y-18105905D01*
X18667354Y-18086857D01*
X18676878Y-18067810D01*
X18695926Y-18058286D01*
X18743545Y-18058286D01*
X18762592Y-18048762D01*
X18829259Y-18001143D02*
X18905449Y-18001143D01*
X18857830Y-17934476D02*
X18857830Y-18105905D01*
X18867354Y-18124952D01*
X18886402Y-18134476D01*
X18905449Y-18134476D01*
X19048307Y-18124952D02*
X19029259Y-18134476D01*
X18991164Y-18134476D01*
X18972116Y-18124952D01*
X18962592Y-18105905D01*
X18962592Y-18029714D01*
X18972116Y-18010667D01*
X18991164Y-18001143D01*
X19029259Y-18001143D01*
X19048307Y-18010667D01*
X19057830Y-18029714D01*
X19057830Y-18048762D01*
X18962592Y-18067810D01*
X19229259Y-18134476D02*
X19229259Y-17934476D01*
X19229259Y-18124952D02*
X19210211Y-18134476D01*
X19172116Y-18134476D01*
X19153068Y-18124952D01*
X19143545Y-18115429D01*
X19134021Y-18096381D01*
X19134021Y-18039238D01*
X19143545Y-18020190D01*
X19153068Y-18010667D01*
X19172116Y-18001143D01*
X19210211Y-18001143D01*
X19229259Y-18010667D01*
X19305449Y-18210667D02*
X19314973Y-18201143D01*
X19334021Y-18172571D01*
X19343545Y-18153524D01*
X19353068Y-18124952D01*
X19362592Y-18077333D01*
X19362592Y-18039238D01*
X19353068Y-17991619D01*
X19343545Y-17963048D01*
X19334021Y-17944000D01*
X19314973Y-17915429D01*
X19305449Y-17905905D01*
M02*
