%TF.GenerationSoftware,KiCad,Pcbnew,(6.0.4)*%
%TF.CreationDate,2022-06-27T13:40:26+01:00*%
%TF.ProjectId,MiniFighter Lite,4d696e69-4669-4676-9874-6572204c6974,rev?*%
%TF.SameCoordinates,Original*%
%TF.FileFunction,OtherDrawing,Comment*%
%FSLAX46Y46*%
G04 Gerber Fmt 4.6, Leading zero omitted, Abs format (unit mm)*
G04 Created by KiCad (PCBNEW (6.0.4)) date 2022-06-27 13:40:26*
%MOMM*%
%LPD*%
G01*
G04 APERTURE LIST*
%ADD10C,0.150000*%
G04 APERTURE END LIST*
D10*
X186055000Y-101600000D02*
G75*
G03*
X186055000Y-101600000I-13335000J0D01*
G01*
X329565000Y-129540000D02*
G75*
G03*
X329565000Y-129540000I-13335000J0D01*
G01*
X299085000Y-121920000D02*
G75*
G03*
X299085000Y-121920000I-10795000J0D01*
G01*
X327025000Y-129540000D02*
G75*
G03*
X327025000Y-129540000I-10795000J0D01*
G01*
X247015000Y-106680000D02*
G75*
G03*
X247015000Y-106680000I-13335000J0D01*
G01*
X247015000Y-135890000D02*
G75*
G03*
X247015000Y-135890000I-13335000J0D01*
G01*
X329565000Y-100330000D02*
G75*
G03*
X329565000Y-100330000I-13335000J0D01*
G01*
X208915000Y-115570000D02*
G75*
G03*
X208915000Y-115570000I-10795000J0D01*
G01*
X183515000Y-101600000D02*
G75*
G03*
X183515000Y-101600000I-10795000J0D01*
G01*
X272415000Y-92710000D02*
G75*
G03*
X272415000Y-92710000I-13335000J0D01*
G01*
X301625000Y-121920000D02*
G75*
G03*
X301625000Y-121920000I-13335000J0D01*
G01*
X272415000Y-121920000D02*
G75*
G03*
X272415000Y-121920000I-13335000J0D01*
G01*
X221615000Y-162560000D02*
G75*
G03*
X221615000Y-162560000I-10795000J0D01*
G01*
X158115000Y-101600000D02*
G75*
G03*
X158115000Y-101600000I-13335000J0D01*
G01*
X224155000Y-162560000D02*
G75*
G03*
X224155000Y-162560000I-13335000J0D01*
G01*
X327025000Y-100330000D02*
G75*
G03*
X327025000Y-100330000I-10795000J0D01*
G01*
X299085000Y-92710000D02*
G75*
G03*
X299085000Y-92710000I-10795000J0D01*
G01*
X211455000Y-115570000D02*
G75*
G03*
X211455000Y-115570000I-13335000J0D01*
G01*
X244475000Y-135890000D02*
G75*
G03*
X244475000Y-135890000I-10795000J0D01*
G01*
X155575000Y-101600000D02*
G75*
G03*
X155575000Y-101600000I-10795000J0D01*
G01*
X269875000Y-92710000D02*
G75*
G03*
X269875000Y-92710000I-10795000J0D01*
G01*
X301625000Y-92710000D02*
G75*
G03*
X301625000Y-92710000I-13335000J0D01*
G01*
X269875000Y-121920000D02*
G75*
G03*
X269875000Y-121920000I-10795000J0D01*
G01*
X244475000Y-106680000D02*
G75*
G03*
X244475000Y-106680000I-10795000J0D01*
G01*
M02*
