%TF.GenerationSoftware,KiCad,Pcbnew,(6.0.4)*%
%TF.CreationDate,2022-07-03T17:31:01+01:00*%
%TF.ProjectId,MiniFighter Lite,4d696e69-4669-4676-9874-6572204c6974,rev?*%
%TF.SameCoordinates,Original*%
%TF.FileFunction,Legend,Top*%
%TF.FilePolarity,Positive*%
%FSLAX46Y46*%
G04 Gerber Fmt 4.6, Leading zero omitted, Abs format (unit mm)*
G04 Created by KiCad (PCBNEW (6.0.4)) date 2022-07-03 17:31:01*
%MOMM*%
%LPD*%
G01*
G04 APERTURE LIST*
%ADD10C,0.300000*%
%ADD11C,0.150000*%
%ADD12C,0.250000*%
%ADD13C,0.120000*%
G04 APERTURE END LIST*
D10*
X245357142Y-165071428D02*
X245357142Y-166690476D01*
X245261904Y-166880952D01*
X245166666Y-166976190D01*
X244976190Y-167071428D01*
X244690476Y-167071428D01*
X244500000Y-166976190D01*
X245357142Y-166309523D02*
X245166666Y-166404761D01*
X244785714Y-166404761D01*
X244595238Y-166309523D01*
X244500000Y-166214285D01*
X244404761Y-166023809D01*
X244404761Y-165452380D01*
X244500000Y-165261904D01*
X244595238Y-165166666D01*
X244785714Y-165071428D01*
X245166666Y-165071428D01*
X245357142Y-165166666D01*
X246309523Y-166404761D02*
X246309523Y-165071428D01*
X246309523Y-164404761D02*
X246214285Y-164500000D01*
X246309523Y-164595238D01*
X246404761Y-164500000D01*
X246309523Y-164404761D01*
X246309523Y-164595238D01*
X246976190Y-165071428D02*
X247738095Y-165071428D01*
X247261904Y-164404761D02*
X247261904Y-166119047D01*
X247357142Y-166309523D01*
X247547619Y-166404761D01*
X247738095Y-166404761D01*
X248404761Y-166404761D02*
X248404761Y-164404761D01*
X249261904Y-166404761D02*
X249261904Y-165357142D01*
X249166666Y-165166666D01*
X248976190Y-165071428D01*
X248690476Y-165071428D01*
X248500000Y-165166666D01*
X248404761Y-165261904D01*
X251071428Y-165071428D02*
X251071428Y-166404761D01*
X250214285Y-165071428D02*
X250214285Y-166119047D01*
X250309523Y-166309523D01*
X250500000Y-166404761D01*
X250785714Y-166404761D01*
X250976190Y-166309523D01*
X251071428Y-166214285D01*
X252023809Y-166404761D02*
X252023809Y-164404761D01*
X252023809Y-165166666D02*
X252214285Y-165071428D01*
X252595238Y-165071428D01*
X252785714Y-165166666D01*
X252880952Y-165261904D01*
X252976190Y-165452380D01*
X252976190Y-166023809D01*
X252880952Y-166214285D01*
X252785714Y-166309523D01*
X252595238Y-166404761D01*
X252214285Y-166404761D01*
X252023809Y-166309523D01*
X253833333Y-166214285D02*
X253928571Y-166309523D01*
X253833333Y-166404761D01*
X253738095Y-166309523D01*
X253833333Y-166214285D01*
X253833333Y-166404761D01*
X255642857Y-166309523D02*
X255452380Y-166404761D01*
X255071428Y-166404761D01*
X254880952Y-166309523D01*
X254785714Y-166214285D01*
X254690476Y-166023809D01*
X254690476Y-165452380D01*
X254785714Y-165261904D01*
X254880952Y-165166666D01*
X255071428Y-165071428D01*
X255452380Y-165071428D01*
X255642857Y-165166666D01*
X256785714Y-166404761D02*
X256595238Y-166309523D01*
X256500000Y-166214285D01*
X256404761Y-166023809D01*
X256404761Y-165452380D01*
X256500000Y-165261904D01*
X256595238Y-165166666D01*
X256785714Y-165071428D01*
X257071428Y-165071428D01*
X257261904Y-165166666D01*
X257357142Y-165261904D01*
X257452380Y-165452380D01*
X257452380Y-166023809D01*
X257357142Y-166214285D01*
X257261904Y-166309523D01*
X257071428Y-166404761D01*
X256785714Y-166404761D01*
X258309523Y-166404761D02*
X258309523Y-165071428D01*
X258309523Y-165261904D02*
X258404761Y-165166666D01*
X258595238Y-165071428D01*
X258880952Y-165071428D01*
X259071428Y-165166666D01*
X259166666Y-165357142D01*
X259166666Y-166404761D01*
X259166666Y-165357142D02*
X259261904Y-165166666D01*
X259452380Y-165071428D01*
X259738095Y-165071428D01*
X259928571Y-165166666D01*
X260023809Y-165357142D01*
X260023809Y-166404761D01*
X262404761Y-164309523D02*
X260690476Y-166880952D01*
X264214285Y-166214285D02*
X264119047Y-166309523D01*
X263833333Y-166404761D01*
X263642857Y-166404761D01*
X263357142Y-166309523D01*
X263166666Y-166119047D01*
X263071428Y-165928571D01*
X262976190Y-165547619D01*
X262976190Y-165261904D01*
X263071428Y-164880952D01*
X263166666Y-164690476D01*
X263357142Y-164500000D01*
X263642857Y-164404761D01*
X263833333Y-164404761D01*
X264119047Y-164500000D01*
X264214285Y-164595238D01*
X265357142Y-166404761D02*
X265166666Y-166309523D01*
X265071428Y-166214285D01*
X264976190Y-166023809D01*
X264976190Y-165452380D01*
X265071428Y-165261904D01*
X265166666Y-165166666D01*
X265357142Y-165071428D01*
X265642857Y-165071428D01*
X265833333Y-165166666D01*
X265928571Y-165261904D01*
X266023809Y-165452380D01*
X266023809Y-166023809D01*
X265928571Y-166214285D01*
X265833333Y-166309523D01*
X265642857Y-166404761D01*
X265357142Y-166404761D01*
X267738095Y-166309523D02*
X267547619Y-166404761D01*
X267166666Y-166404761D01*
X266976190Y-166309523D01*
X266880952Y-166214285D01*
X266785714Y-166023809D01*
X266785714Y-165452380D01*
X266880952Y-165261904D01*
X266976190Y-165166666D01*
X267166666Y-165071428D01*
X267547619Y-165071428D01*
X267738095Y-165166666D01*
X268880952Y-166404761D02*
X268690476Y-166309523D01*
X268595238Y-166214285D01*
X268500000Y-166023809D01*
X268500000Y-165452380D01*
X268595238Y-165261904D01*
X268690476Y-165166666D01*
X268880952Y-165071428D01*
X269166666Y-165071428D01*
X269357142Y-165166666D01*
X269452380Y-165261904D01*
X269547619Y-165452380D01*
X269547619Y-166023809D01*
X269452380Y-166214285D01*
X269357142Y-166309523D01*
X269166666Y-166404761D01*
X268880952Y-166404761D01*
X271261904Y-166404761D02*
X271261904Y-165357142D01*
X271166666Y-165166666D01*
X270976190Y-165071428D01*
X270595238Y-165071428D01*
X270404761Y-165166666D01*
X271261904Y-166309523D02*
X271071428Y-166404761D01*
X270595238Y-166404761D01*
X270404761Y-166309523D01*
X270309523Y-166119047D01*
X270309523Y-165928571D01*
X270404761Y-165738095D01*
X270595238Y-165642857D01*
X271071428Y-165642857D01*
X271261904Y-165547619D01*
X272880952Y-165357142D02*
X272214285Y-165357142D01*
X272214285Y-166404761D02*
X272214285Y-164404761D01*
X273166666Y-164404761D01*
X274785714Y-165071428D02*
X274785714Y-166404761D01*
X273928571Y-165071428D02*
X273928571Y-166119047D01*
X274023809Y-166309523D01*
X274214285Y-166404761D01*
X274500000Y-166404761D01*
X274690476Y-166309523D01*
X274785714Y-166214285D01*
X276595238Y-166404761D02*
X276595238Y-164404761D01*
X276595238Y-166309523D02*
X276404761Y-166404761D01*
X276023809Y-166404761D01*
X275833333Y-166309523D01*
X275738095Y-166214285D01*
X275642857Y-166023809D01*
X275642857Y-165452380D01*
X275738095Y-165261904D01*
X275833333Y-165166666D01*
X276023809Y-165071428D01*
X276404761Y-165071428D01*
X276595238Y-165166666D01*
X278404761Y-165071428D02*
X278404761Y-166690476D01*
X278309523Y-166880952D01*
X278214285Y-166976190D01*
X278023809Y-167071428D01*
X277738095Y-167071428D01*
X277547619Y-166976190D01*
X278404761Y-166309523D02*
X278214285Y-166404761D01*
X277833333Y-166404761D01*
X277642857Y-166309523D01*
X277547619Y-166214285D01*
X277452380Y-166023809D01*
X277452380Y-165452380D01*
X277547619Y-165261904D01*
X277642857Y-165166666D01*
X277833333Y-165071428D01*
X278214285Y-165071428D01*
X278404761Y-165166666D01*
X280119047Y-166309523D02*
X279928571Y-166404761D01*
X279547619Y-166404761D01*
X279357142Y-166309523D01*
X279261904Y-166119047D01*
X279261904Y-165357142D01*
X279357142Y-165166666D01*
X279547619Y-165071428D01*
X279928571Y-165071428D01*
X280119047Y-165166666D01*
X280214285Y-165357142D01*
X280214285Y-165547619D01*
X279261904Y-165738095D01*
X282500000Y-164309523D02*
X280785714Y-166880952D01*
X283166666Y-166404761D02*
X283166666Y-164404761D01*
X283833333Y-165833333D01*
X284500000Y-164404761D01*
X284500000Y-166404761D01*
X285452380Y-166404761D02*
X285452380Y-165071428D01*
X285452380Y-164404761D02*
X285357142Y-164500000D01*
X285452380Y-164595238D01*
X285547619Y-164500000D01*
X285452380Y-164404761D01*
X285452380Y-164595238D01*
X286404761Y-165071428D02*
X286404761Y-166404761D01*
X286404761Y-165261904D02*
X286500000Y-165166666D01*
X286690476Y-165071428D01*
X286976190Y-165071428D01*
X287166666Y-165166666D01*
X287261904Y-165357142D01*
X287261904Y-166404761D01*
X288214285Y-166404761D02*
X288214285Y-165071428D01*
X288214285Y-164404761D02*
X288119047Y-164500000D01*
X288214285Y-164595238D01*
X288309523Y-164500000D01*
X288214285Y-164404761D01*
X288214285Y-164595238D01*
X289833333Y-165357142D02*
X289166666Y-165357142D01*
X289166666Y-166404761D02*
X289166666Y-164404761D01*
X290119047Y-164404761D01*
X290880952Y-166404761D02*
X290880952Y-165071428D01*
X290880952Y-164404761D02*
X290785714Y-164500000D01*
X290880952Y-164595238D01*
X290976190Y-164500000D01*
X290880952Y-164404761D01*
X290880952Y-164595238D01*
X292690476Y-165071428D02*
X292690476Y-166690476D01*
X292595238Y-166880952D01*
X292500000Y-166976190D01*
X292309523Y-167071428D01*
X292023809Y-167071428D01*
X291833333Y-166976190D01*
X292690476Y-166309523D02*
X292500000Y-166404761D01*
X292119047Y-166404761D01*
X291928571Y-166309523D01*
X291833333Y-166214285D01*
X291738095Y-166023809D01*
X291738095Y-165452380D01*
X291833333Y-165261904D01*
X291928571Y-165166666D01*
X292119047Y-165071428D01*
X292500000Y-165071428D01*
X292690476Y-165166666D01*
X293642857Y-166404761D02*
X293642857Y-164404761D01*
X294500000Y-166404761D02*
X294500000Y-165357142D01*
X294404761Y-165166666D01*
X294214285Y-165071428D01*
X293928571Y-165071428D01*
X293738095Y-165166666D01*
X293642857Y-165261904D01*
X295166666Y-165071428D02*
X295928571Y-165071428D01*
X295452380Y-164404761D02*
X295452380Y-166119047D01*
X295547619Y-166309523D01*
X295738095Y-166404761D01*
X295928571Y-166404761D01*
X297357142Y-166309523D02*
X297166666Y-166404761D01*
X296785714Y-166404761D01*
X296595238Y-166309523D01*
X296500000Y-166119047D01*
X296500000Y-165357142D01*
X296595238Y-165166666D01*
X296785714Y-165071428D01*
X297166666Y-165071428D01*
X297357142Y-165166666D01*
X297452380Y-165357142D01*
X297452380Y-165547619D01*
X296500000Y-165738095D01*
X298309523Y-166404761D02*
X298309523Y-165071428D01*
X298309523Y-165452380D02*
X298404761Y-165261904D01*
X298500000Y-165166666D01*
X298690476Y-165071428D01*
X298880952Y-165071428D01*
X299547619Y-165642857D02*
X301071428Y-165642857D01*
X302976190Y-166404761D02*
X302023809Y-166404761D01*
X302023809Y-164404761D01*
X303642857Y-166404761D02*
X303642857Y-165071428D01*
X303642857Y-164404761D02*
X303547619Y-164500000D01*
X303642857Y-164595238D01*
X303738095Y-164500000D01*
X303642857Y-164404761D01*
X303642857Y-164595238D01*
X304309523Y-165071428D02*
X305071428Y-165071428D01*
X304595238Y-164404761D02*
X304595238Y-166119047D01*
X304690476Y-166309523D01*
X304880952Y-166404761D01*
X305071428Y-166404761D01*
X306500000Y-166309523D02*
X306309523Y-166404761D01*
X305928571Y-166404761D01*
X305738095Y-166309523D01*
X305642857Y-166119047D01*
X305642857Y-165357142D01*
X305738095Y-165166666D01*
X305928571Y-165071428D01*
X306309523Y-165071428D01*
X306500000Y-165166666D01*
X306595238Y-165357142D01*
X306595238Y-165547619D01*
X305642857Y-165738095D01*
D11*
%TO.C,M3.1*%
X128016190Y-86652380D02*
X128016190Y-85652380D01*
X128349523Y-86366666D01*
X128682857Y-85652380D01*
X128682857Y-86652380D01*
X129063809Y-85652380D02*
X129682857Y-85652380D01*
X129349523Y-86033333D01*
X129492380Y-86033333D01*
X129587619Y-86080952D01*
X129635238Y-86128571D01*
X129682857Y-86223809D01*
X129682857Y-86461904D01*
X129635238Y-86557142D01*
X129587619Y-86604761D01*
X129492380Y-86652380D01*
X129206666Y-86652380D01*
X129111428Y-86604761D01*
X129063809Y-86557142D01*
X130111428Y-86557142D02*
X130159047Y-86604761D01*
X130111428Y-86652380D01*
X130063809Y-86604761D01*
X130111428Y-86557142D01*
X130111428Y-86652380D01*
X131111428Y-86652380D02*
X130540000Y-86652380D01*
X130825714Y-86652380D02*
X130825714Y-85652380D01*
X130730476Y-85795238D01*
X130635238Y-85890476D01*
X130540000Y-85938095D01*
%TO.C,M3.4*%
X321056190Y-166432380D02*
X321056190Y-165432380D01*
X321389523Y-166146666D01*
X321722857Y-165432380D01*
X321722857Y-166432380D01*
X322103809Y-165432380D02*
X322722857Y-165432380D01*
X322389523Y-165813333D01*
X322532380Y-165813333D01*
X322627619Y-165860952D01*
X322675238Y-165908571D01*
X322722857Y-166003809D01*
X322722857Y-166241904D01*
X322675238Y-166337142D01*
X322627619Y-166384761D01*
X322532380Y-166432380D01*
X322246666Y-166432380D01*
X322151428Y-166384761D01*
X322103809Y-166337142D01*
X323151428Y-166337142D02*
X323199047Y-166384761D01*
X323151428Y-166432380D01*
X323103809Y-166384761D01*
X323151428Y-166337142D01*
X323151428Y-166432380D01*
X324056190Y-165765714D02*
X324056190Y-166432380D01*
X323818095Y-165384761D02*
X323580000Y-166099047D01*
X324199047Y-166099047D01*
%TO.C,U1*%
X155897380Y-148081904D02*
X156706904Y-148081904D01*
X156802142Y-148034285D01*
X156849761Y-147986666D01*
X156897380Y-147891428D01*
X156897380Y-147700952D01*
X156849761Y-147605714D01*
X156802142Y-147558095D01*
X156706904Y-147510476D01*
X155897380Y-147510476D01*
X156897380Y-146510476D02*
X156897380Y-147081904D01*
X156897380Y-146796190D02*
X155897380Y-146796190D01*
X156040238Y-146891428D01*
X156135476Y-146986666D01*
X156183095Y-147081904D01*
X137543155Y-160833841D02*
X137570093Y-160914653D01*
X137650905Y-160995465D01*
X137758654Y-161049340D01*
X137866404Y-161049340D01*
X137947216Y-161022402D01*
X138081903Y-160941590D01*
X138162715Y-160860778D01*
X138243528Y-160726091D01*
X138270465Y-160645279D01*
X138270465Y-160537529D01*
X138216590Y-160429780D01*
X138162715Y-160375905D01*
X138054966Y-160322030D01*
X138001091Y-160322030D01*
X137812529Y-160510592D01*
X137920279Y-160618341D01*
X137812529Y-160025719D02*
X137246844Y-160591404D01*
X137489280Y-159702470D01*
X136923595Y-160268155D01*
X137219906Y-159433096D02*
X136654221Y-159998781D01*
X136519534Y-159864094D01*
X136465659Y-159756345D01*
X136465659Y-159648595D01*
X136492597Y-159567783D01*
X136573409Y-159433096D01*
X136654221Y-159352284D01*
X136788908Y-159271471D01*
X136869720Y-159244534D01*
X136977470Y-159244534D01*
X137085219Y-159298409D01*
X137219906Y-159433096D01*
X163885964Y-161276402D02*
X163616590Y-161007028D01*
X164101463Y-161168653D02*
X163347216Y-161545776D01*
X163724340Y-160791529D01*
X162700719Y-160845404D02*
X162727656Y-160926216D01*
X162808468Y-161007028D01*
X162916218Y-161060903D01*
X163023967Y-161060903D01*
X163104780Y-161033966D01*
X163239467Y-160953154D01*
X163320279Y-160872341D01*
X163401091Y-160737654D01*
X163428028Y-160656842D01*
X163428028Y-160549093D01*
X163374154Y-160441343D01*
X163320279Y-160387468D01*
X163212529Y-160333593D01*
X163158654Y-160333593D01*
X162970093Y-160522155D01*
X163077842Y-160629905D01*
X162970093Y-160037282D02*
X162404407Y-160602967D01*
X162646844Y-159714033D01*
X162081158Y-160279719D01*
X162377470Y-159444659D02*
X161811784Y-160010345D01*
X161677097Y-159875658D01*
X161623223Y-159767908D01*
X161623223Y-159660158D01*
X161650160Y-159579346D01*
X161730972Y-159444659D01*
X161811784Y-159363847D01*
X161946471Y-159283035D01*
X162027284Y-159256097D01*
X162135033Y-159256097D01*
X162242783Y-159309972D01*
X162377470Y-159444659D01*
X132705592Y-161330277D02*
X132732529Y-161411089D01*
X132813341Y-161491902D01*
X132921091Y-161545776D01*
X133028841Y-161545776D01*
X133109653Y-161518839D01*
X133244340Y-161438027D01*
X133325152Y-161357215D01*
X133405964Y-161222528D01*
X133432902Y-161141715D01*
X133432902Y-161033966D01*
X133379027Y-160926216D01*
X133325152Y-160872341D01*
X133217402Y-160818467D01*
X133163528Y-160818467D01*
X132974966Y-161007028D01*
X133082715Y-161114778D01*
X132974966Y-160522155D02*
X132409280Y-161087841D01*
X132193781Y-160872341D01*
X132166844Y-160791529D01*
X132166844Y-160737654D01*
X132193781Y-160656842D01*
X132274593Y-160576030D01*
X132355406Y-160549093D01*
X132409280Y-160549093D01*
X132490093Y-160576030D01*
X132705592Y-160791529D01*
X132112969Y-159660158D02*
X132436218Y-159983407D01*
X132274593Y-159821783D02*
X131708908Y-160387468D01*
X131843595Y-160360531D01*
X131951345Y-160360531D01*
X132032157Y-160387468D01*
X131062410Y-159740971D02*
X131170160Y-159848720D01*
X131250972Y-159875658D01*
X131304847Y-159875658D01*
X131439534Y-159848720D01*
X131574221Y-159767908D01*
X131789720Y-159552409D01*
X131816658Y-159471597D01*
X131816658Y-159417722D01*
X131789720Y-159336910D01*
X131681971Y-159229160D01*
X131601158Y-159202223D01*
X131547284Y-159202223D01*
X131466471Y-159229160D01*
X131331784Y-159363847D01*
X131304847Y-159444659D01*
X131304847Y-159498534D01*
X131331784Y-159579346D01*
X131439534Y-159687096D01*
X131520346Y-159714033D01*
X131574221Y-159714033D01*
X131655033Y-159687096D01*
X178694966Y-161799526D02*
X179072089Y-161045279D01*
X178317842Y-161422402D01*
X178694966Y-160722030D02*
X178641091Y-160614280D01*
X178506404Y-160479593D01*
X178425592Y-160452656D01*
X178371717Y-160452656D01*
X178290905Y-160479593D01*
X178237030Y-160533468D01*
X178210093Y-160614280D01*
X178210093Y-160668155D01*
X178237030Y-160748967D01*
X178317842Y-160883654D01*
X178344780Y-160964467D01*
X178344780Y-161018341D01*
X178317842Y-161099154D01*
X178263967Y-161153028D01*
X178183155Y-161179966D01*
X178129280Y-161179966D01*
X178048468Y-161153028D01*
X177913781Y-161018341D01*
X177859906Y-160910592D01*
X177779094Y-160291032D02*
X178048468Y-160021658D01*
X177671345Y-160775905D02*
X177779094Y-160291032D01*
X177294221Y-160398781D01*
X177671345Y-159698409D02*
X177617470Y-159590659D01*
X177482783Y-159455972D01*
X177401971Y-159429035D01*
X177348096Y-159429035D01*
X177267284Y-159455972D01*
X177213409Y-159509847D01*
X177186471Y-159590659D01*
X177186471Y-159644534D01*
X177213409Y-159725346D01*
X177294221Y-159860033D01*
X177321158Y-159940845D01*
X177321158Y-159994720D01*
X177294221Y-160075532D01*
X177240346Y-160129407D01*
X177159534Y-160156345D01*
X177105659Y-160156345D01*
X177024847Y-160129407D01*
X176890160Y-159994720D01*
X176836285Y-159886971D01*
X130568809Y-154615238D02*
X130606904Y-154500952D01*
X130606904Y-154310476D01*
X130568809Y-154234285D01*
X130530714Y-154196190D01*
X130454523Y-154158095D01*
X130378333Y-154158095D01*
X130302142Y-154196190D01*
X130264047Y-154234285D01*
X130225952Y-154310476D01*
X130187857Y-154462857D01*
X130149761Y-154539047D01*
X130111666Y-154577142D01*
X130035476Y-154615238D01*
X129959285Y-154615238D01*
X129883095Y-154577142D01*
X129845000Y-154539047D01*
X129806904Y-154462857D01*
X129806904Y-154272380D01*
X129845000Y-154158095D01*
X129806904Y-153891428D02*
X130606904Y-153700952D01*
X130035476Y-153548571D01*
X130606904Y-153396190D01*
X129806904Y-153205714D01*
X130606904Y-152900952D02*
X129806904Y-152900952D01*
X129806904Y-152710476D01*
X129845000Y-152596190D01*
X129921190Y-152520000D01*
X129997380Y-152481904D01*
X130149761Y-152443809D01*
X130264047Y-152443809D01*
X130416428Y-152481904D01*
X130492619Y-152520000D01*
X130568809Y-152596190D01*
X130606904Y-152710476D01*
X130606904Y-152900952D01*
X130606904Y-152100952D02*
X129806904Y-152100952D01*
X129806904Y-151567619D02*
X129806904Y-151415238D01*
X129845000Y-151339047D01*
X129921190Y-151262857D01*
X130073571Y-151224761D01*
X130340238Y-151224761D01*
X130492619Y-151262857D01*
X130568809Y-151339047D01*
X130606904Y-151415238D01*
X130606904Y-151567619D01*
X130568809Y-151643809D01*
X130492619Y-151720000D01*
X130340238Y-151758095D01*
X130073571Y-151758095D01*
X129921190Y-151720000D01*
X129845000Y-151643809D01*
X129806904Y-151567619D01*
X180696218Y-135206903D02*
X180723155Y-135287715D01*
X180803967Y-135368528D01*
X180911717Y-135422402D01*
X181019467Y-135422402D01*
X181100279Y-135395465D01*
X181234966Y-135314653D01*
X181315778Y-135233841D01*
X181396590Y-135099154D01*
X181423528Y-135018341D01*
X181423528Y-134910592D01*
X181369653Y-134802842D01*
X181315778Y-134748967D01*
X181208028Y-134695093D01*
X181154154Y-134695093D01*
X180965592Y-134883654D01*
X181073341Y-134991404D01*
X180965592Y-134398781D02*
X180399906Y-134964467D01*
X180184407Y-134748967D01*
X180157470Y-134668155D01*
X180157470Y-134614280D01*
X180184407Y-134533468D01*
X180265219Y-134452656D01*
X180346032Y-134425719D01*
X180399906Y-134425719D01*
X180480719Y-134452656D01*
X180696218Y-134668155D01*
X179726471Y-134291032D02*
X179672597Y-134237157D01*
X179645659Y-134156345D01*
X179645659Y-134102470D01*
X179672597Y-134021658D01*
X179753409Y-133886971D01*
X179888096Y-133752284D01*
X180022783Y-133671471D01*
X180103595Y-133644534D01*
X180157470Y-133644534D01*
X180238282Y-133671471D01*
X180292157Y-133725346D01*
X180319094Y-133806158D01*
X180319094Y-133860033D01*
X180292157Y-133940845D01*
X180211345Y-134075532D01*
X180076658Y-134210219D01*
X179941971Y-134291032D01*
X179861158Y-134317969D01*
X179807284Y-134317969D01*
X179726471Y-134291032D01*
X145405592Y-161330277D02*
X145432529Y-161411089D01*
X145513341Y-161491902D01*
X145621091Y-161545776D01*
X145728841Y-161545776D01*
X145809653Y-161518839D01*
X145944340Y-161438027D01*
X146025152Y-161357215D01*
X146105964Y-161222528D01*
X146132902Y-161141715D01*
X146132902Y-161033966D01*
X146079027Y-160926216D01*
X146025152Y-160872341D01*
X145917402Y-160818467D01*
X145863528Y-160818467D01*
X145674966Y-161007028D01*
X145782715Y-161114778D01*
X145674966Y-160522155D02*
X145109280Y-161087841D01*
X144893781Y-160872341D01*
X144866844Y-160791529D01*
X144866844Y-160737654D01*
X144893781Y-160656842D01*
X144974593Y-160576030D01*
X145055406Y-160549093D01*
X145109280Y-160549093D01*
X145190093Y-160576030D01*
X145405592Y-160791529D01*
X144624407Y-160495218D02*
X144570532Y-160495218D01*
X144489720Y-160468280D01*
X144355033Y-160333593D01*
X144328096Y-160252781D01*
X144328096Y-160198906D01*
X144355033Y-160118094D01*
X144408908Y-160064219D01*
X144516658Y-160010345D01*
X145163155Y-160010345D01*
X144812969Y-159660158D01*
X143897097Y-159875658D02*
X143843223Y-159821783D01*
X143816285Y-159740971D01*
X143816285Y-159687096D01*
X143843223Y-159606284D01*
X143924035Y-159471597D01*
X144058722Y-159336910D01*
X144193409Y-159256097D01*
X144274221Y-159229160D01*
X144328096Y-159229160D01*
X144408908Y-159256097D01*
X144462783Y-159309972D01*
X144489720Y-159390784D01*
X144489720Y-159444659D01*
X144462783Y-159525471D01*
X144381971Y-159660158D01*
X144247284Y-159794845D01*
X144112597Y-159875658D01*
X144031784Y-159902595D01*
X143977910Y-159902595D01*
X143897097Y-159875658D01*
X175643155Y-160833841D02*
X175670093Y-160914653D01*
X175750905Y-160995465D01*
X175858654Y-161049340D01*
X175966404Y-161049340D01*
X176047216Y-161022402D01*
X176181903Y-160941590D01*
X176262715Y-160860778D01*
X176343528Y-160726091D01*
X176370465Y-160645279D01*
X176370465Y-160537529D01*
X176316590Y-160429780D01*
X176262715Y-160375905D01*
X176154966Y-160322030D01*
X176101091Y-160322030D01*
X175912529Y-160510592D01*
X176020279Y-160618341D01*
X175912529Y-160025719D02*
X175346844Y-160591404D01*
X175589280Y-159702470D01*
X175023595Y-160268155D01*
X175319906Y-159433096D02*
X174754221Y-159998781D01*
X174619534Y-159864094D01*
X174565659Y-159756345D01*
X174565659Y-159648595D01*
X174592597Y-159567783D01*
X174673409Y-159433096D01*
X174754221Y-159352284D01*
X174888908Y-159271471D01*
X174969720Y-159244534D01*
X175077470Y-159244534D01*
X175185219Y-159298409D01*
X175319906Y-159433096D01*
X165456218Y-135206903D02*
X165483155Y-135287715D01*
X165563967Y-135368528D01*
X165671717Y-135422402D01*
X165779467Y-135422402D01*
X165860279Y-135395465D01*
X165994966Y-135314653D01*
X166075778Y-135233841D01*
X166156590Y-135099154D01*
X166183528Y-135018341D01*
X166183528Y-134910592D01*
X166129653Y-134802842D01*
X166075778Y-134748967D01*
X165968028Y-134695093D01*
X165914154Y-134695093D01*
X165725592Y-134883654D01*
X165833341Y-134991404D01*
X165725592Y-134398781D02*
X165159906Y-134964467D01*
X164944407Y-134748967D01*
X164917470Y-134668155D01*
X164917470Y-134614280D01*
X164944407Y-134533468D01*
X165025219Y-134452656D01*
X165106032Y-134425719D01*
X165159906Y-134425719D01*
X165240719Y-134452656D01*
X165456218Y-134668155D01*
X164324847Y-134129407D02*
X164594221Y-134398781D01*
X164890532Y-134156345D01*
X164836658Y-134156345D01*
X164755845Y-134129407D01*
X164621158Y-133994720D01*
X164594221Y-133913908D01*
X164594221Y-133860033D01*
X164621158Y-133779221D01*
X164755845Y-133644534D01*
X164836658Y-133617597D01*
X164890532Y-133617597D01*
X164971345Y-133644534D01*
X165106032Y-133779221D01*
X165132969Y-133860033D01*
X165132969Y-133913908D01*
X160635592Y-161330277D02*
X160662529Y-161411089D01*
X160743341Y-161491902D01*
X160851091Y-161545776D01*
X160958841Y-161545776D01*
X161039653Y-161518839D01*
X161174340Y-161438027D01*
X161255152Y-161357215D01*
X161335964Y-161222528D01*
X161362902Y-161141715D01*
X161362902Y-161033966D01*
X161309027Y-160926216D01*
X161255152Y-160872341D01*
X161147402Y-160818467D01*
X161093528Y-160818467D01*
X160904966Y-161007028D01*
X161012715Y-161114778D01*
X160904966Y-160522155D02*
X160339280Y-161087841D01*
X160123781Y-160872341D01*
X160096844Y-160791529D01*
X160096844Y-160737654D01*
X160123781Y-160656842D01*
X160204593Y-160576030D01*
X160285406Y-160549093D01*
X160339280Y-160549093D01*
X160420093Y-160576030D01*
X160635592Y-160791529D01*
X159854407Y-160495218D02*
X159800532Y-160495218D01*
X159719720Y-160468280D01*
X159585033Y-160333593D01*
X159558096Y-160252781D01*
X159558096Y-160198906D01*
X159585033Y-160118094D01*
X159638908Y-160064219D01*
X159746658Y-160010345D01*
X160393155Y-160010345D01*
X160042969Y-159660158D01*
X159288722Y-160037282D02*
X158911598Y-159660158D01*
X159719720Y-159336910D01*
X145405592Y-135076277D02*
X145432529Y-135157089D01*
X145513341Y-135237902D01*
X145621091Y-135291776D01*
X145728841Y-135291776D01*
X145809653Y-135264839D01*
X145944340Y-135184027D01*
X146025152Y-135103215D01*
X146105964Y-134968528D01*
X146132902Y-134887715D01*
X146132902Y-134779966D01*
X146079027Y-134672216D01*
X146025152Y-134618341D01*
X145917402Y-134564467D01*
X145863528Y-134564467D01*
X145674966Y-134753028D01*
X145782715Y-134860778D01*
X145674966Y-134268155D02*
X145109280Y-134833841D01*
X144893781Y-134618341D01*
X144866844Y-134537529D01*
X144866844Y-134483654D01*
X144893781Y-134402842D01*
X144974593Y-134322030D01*
X145055406Y-134295093D01*
X145109280Y-134295093D01*
X145190093Y-134322030D01*
X145405592Y-134537529D01*
X144812969Y-133406158D02*
X145136218Y-133729407D01*
X144974593Y-133567783D02*
X144408908Y-134133468D01*
X144543595Y-134106531D01*
X144651345Y-134106531D01*
X144732157Y-134133468D01*
X144274221Y-132867410D02*
X144597470Y-133190659D01*
X144435845Y-133029035D02*
X143870160Y-133594720D01*
X144004847Y-133567783D01*
X144112597Y-133567783D01*
X144193409Y-133594720D01*
X132705592Y-135222277D02*
X132732529Y-135303089D01*
X132813341Y-135383902D01*
X132921091Y-135437776D01*
X133028841Y-135437776D01*
X133109653Y-135410839D01*
X133244340Y-135330027D01*
X133325152Y-135249215D01*
X133405964Y-135114528D01*
X133432902Y-135033715D01*
X133432902Y-134925966D01*
X133379027Y-134818216D01*
X133325152Y-134764341D01*
X133217402Y-134710467D01*
X133163528Y-134710467D01*
X132974966Y-134899028D01*
X133082715Y-135006778D01*
X132974966Y-134414155D02*
X132409280Y-134979841D01*
X132193781Y-134764341D01*
X132166844Y-134683529D01*
X132166844Y-134629654D01*
X132193781Y-134548842D01*
X132274593Y-134468030D01*
X132355406Y-134441093D01*
X132409280Y-134441093D01*
X132490093Y-134468030D01*
X132705592Y-134683529D01*
X132112969Y-133552158D02*
X132436218Y-133875407D01*
X132274593Y-133713783D02*
X131708908Y-134279468D01*
X131843595Y-134252531D01*
X131951345Y-134252531D01*
X132032157Y-134279468D01*
X131035473Y-133606033D02*
X131304847Y-133875407D01*
X131601158Y-133632971D01*
X131547284Y-133632971D01*
X131466471Y-133606033D01*
X131331784Y-133471346D01*
X131304847Y-133390534D01*
X131304847Y-133336659D01*
X131331784Y-133255847D01*
X131466471Y-133121160D01*
X131547284Y-133094223D01*
X131601158Y-133094223D01*
X131681971Y-133121160D01*
X131816658Y-133255847D01*
X131843595Y-133336659D01*
X131843595Y-133390534D01*
X174803308Y-162797868D02*
X174453122Y-162447682D01*
X174857183Y-162420744D01*
X174776370Y-162339932D01*
X174749433Y-162259120D01*
X174749433Y-162205245D01*
X174776370Y-162124433D01*
X174911057Y-161989746D01*
X174991870Y-161962809D01*
X175045744Y-161962809D01*
X175126557Y-161989746D01*
X175288181Y-162151370D01*
X175315118Y-162232183D01*
X175315118Y-162286057D01*
X174291497Y-162286057D02*
X174668621Y-161531810D01*
X173914374Y-161908934D01*
X173779687Y-161774247D02*
X173429500Y-161424061D01*
X173833561Y-161397123D01*
X173752749Y-161316311D01*
X173725812Y-161235499D01*
X173725812Y-161181624D01*
X173752749Y-161100812D01*
X173887436Y-160966125D01*
X173968248Y-160939187D01*
X174022123Y-160939187D01*
X174102935Y-160966125D01*
X174264560Y-161127749D01*
X174291497Y-161208561D01*
X174291497Y-161262436D01*
X173941311Y-160696751D02*
X173510312Y-160265752D01*
X173025439Y-160481251D02*
X172836877Y-160292690D01*
X173052377Y-159915566D02*
X173321751Y-160184940D01*
X172756065Y-160750625D01*
X172486691Y-160481251D01*
X172809940Y-159673129D02*
X172244255Y-160238815D01*
X172486691Y-159349881D01*
X171921006Y-159915566D01*
X147935592Y-161330277D02*
X147962529Y-161411089D01*
X148043341Y-161491902D01*
X148151091Y-161545776D01*
X148258841Y-161545776D01*
X148339653Y-161518839D01*
X148474340Y-161438027D01*
X148555152Y-161357215D01*
X148635964Y-161222528D01*
X148662902Y-161141715D01*
X148662902Y-161033966D01*
X148609027Y-160926216D01*
X148555152Y-160872341D01*
X148447402Y-160818467D01*
X148393528Y-160818467D01*
X148204966Y-161007028D01*
X148312715Y-161114778D01*
X148204966Y-160522155D02*
X147639280Y-161087841D01*
X147423781Y-160872341D01*
X147396844Y-160791529D01*
X147396844Y-160737654D01*
X147423781Y-160656842D01*
X147504593Y-160576030D01*
X147585406Y-160549093D01*
X147639280Y-160549093D01*
X147720093Y-160576030D01*
X147935592Y-160791529D01*
X147154407Y-160495218D02*
X147100532Y-160495218D01*
X147019720Y-160468280D01*
X146885033Y-160333593D01*
X146858096Y-160252781D01*
X146858096Y-160198906D01*
X146885033Y-160118094D01*
X146938908Y-160064219D01*
X147046658Y-160010345D01*
X147693155Y-160010345D01*
X147342969Y-159660158D01*
X146804221Y-159121410D02*
X147127470Y-159444659D01*
X146965845Y-159283035D02*
X146400160Y-159848720D01*
X146534847Y-159821783D01*
X146642597Y-159821783D01*
X146723409Y-159848720D01*
X165979592Y-161330277D02*
X166006529Y-161411089D01*
X166087341Y-161491902D01*
X166195091Y-161545776D01*
X166302841Y-161545776D01*
X166383653Y-161518839D01*
X166518340Y-161438027D01*
X166599152Y-161357215D01*
X166679964Y-161222528D01*
X166706902Y-161141715D01*
X166706902Y-161033966D01*
X166653027Y-160926216D01*
X166599152Y-160872341D01*
X166491402Y-160818467D01*
X166437528Y-160818467D01*
X166248966Y-161007028D01*
X166356715Y-161114778D01*
X166248966Y-160522155D02*
X165683280Y-161087841D01*
X165467781Y-160872341D01*
X165440844Y-160791529D01*
X165440844Y-160737654D01*
X165467781Y-160656842D01*
X165548593Y-160576030D01*
X165629406Y-160549093D01*
X165683280Y-160549093D01*
X165764093Y-160576030D01*
X165979592Y-160791529D01*
X165198407Y-160495218D02*
X165144532Y-160495218D01*
X165063720Y-160468280D01*
X164929033Y-160333593D01*
X164902096Y-160252781D01*
X164902096Y-160198906D01*
X164929033Y-160118094D01*
X164982908Y-160064219D01*
X165090658Y-160010345D01*
X165737155Y-160010345D01*
X165386969Y-159660158D01*
X164740471Y-159660158D02*
X164767409Y-159740971D01*
X164767409Y-159794845D01*
X164740471Y-159875658D01*
X164713534Y-159902595D01*
X164632722Y-159929532D01*
X164578847Y-159929532D01*
X164498035Y-159902595D01*
X164390285Y-159794845D01*
X164363348Y-159714033D01*
X164363348Y-159660158D01*
X164390285Y-159579346D01*
X164417223Y-159552409D01*
X164498035Y-159525471D01*
X164551910Y-159525471D01*
X164632722Y-159552409D01*
X164740471Y-159660158D01*
X164821284Y-159687096D01*
X164875158Y-159687096D01*
X164955971Y-159660158D01*
X165063720Y-159552409D01*
X165090658Y-159471597D01*
X165090658Y-159417722D01*
X165063720Y-159336910D01*
X164955971Y-159229160D01*
X164875158Y-159202223D01*
X164821284Y-159202223D01*
X164740471Y-159229160D01*
X164632722Y-159336910D01*
X164605784Y-159417722D01*
X164605784Y-159471597D01*
X164632722Y-159552409D01*
X173076218Y-135106903D02*
X173103155Y-135187715D01*
X173183967Y-135268528D01*
X173291717Y-135322402D01*
X173399467Y-135322402D01*
X173480279Y-135295465D01*
X173614966Y-135214653D01*
X173695778Y-135133841D01*
X173776590Y-134999154D01*
X173803528Y-134918341D01*
X173803528Y-134810592D01*
X173749653Y-134702842D01*
X173695778Y-134648967D01*
X173588028Y-134595093D01*
X173534154Y-134595093D01*
X173345592Y-134783654D01*
X173453341Y-134891404D01*
X173345592Y-134298781D02*
X172779906Y-134864467D01*
X172564407Y-134648967D01*
X172537470Y-134568155D01*
X172537470Y-134514280D01*
X172564407Y-134433468D01*
X172645219Y-134352656D01*
X172726032Y-134325719D01*
X172779906Y-134325719D01*
X172860719Y-134352656D01*
X173076218Y-134568155D01*
X172295033Y-134271844D02*
X172241158Y-134271844D01*
X172160346Y-134244906D01*
X172025659Y-134110219D01*
X171998722Y-134029407D01*
X171998722Y-133975532D01*
X172025659Y-133894720D01*
X172079534Y-133840845D01*
X172187284Y-133786971D01*
X172833781Y-133786971D01*
X172483595Y-133436784D01*
X142865592Y-161330277D02*
X142892529Y-161411089D01*
X142973341Y-161491902D01*
X143081091Y-161545776D01*
X143188841Y-161545776D01*
X143269653Y-161518839D01*
X143404340Y-161438027D01*
X143485152Y-161357215D01*
X143565964Y-161222528D01*
X143592902Y-161141715D01*
X143592902Y-161033966D01*
X143539027Y-160926216D01*
X143485152Y-160872341D01*
X143377402Y-160818467D01*
X143323528Y-160818467D01*
X143134966Y-161007028D01*
X143242715Y-161114778D01*
X143134966Y-160522155D02*
X142569280Y-161087841D01*
X142353781Y-160872341D01*
X142326844Y-160791529D01*
X142326844Y-160737654D01*
X142353781Y-160656842D01*
X142434593Y-160576030D01*
X142515406Y-160549093D01*
X142569280Y-160549093D01*
X142650093Y-160576030D01*
X142865592Y-160791529D01*
X142272969Y-159660158D02*
X142596218Y-159983407D01*
X142434593Y-159821783D02*
X141868908Y-160387468D01*
X142003595Y-160360531D01*
X142111345Y-160360531D01*
X142192157Y-160387468D01*
X142003595Y-159390784D02*
X141895845Y-159283035D01*
X141815033Y-159256097D01*
X141761158Y-159256097D01*
X141626471Y-159283035D01*
X141491784Y-159363847D01*
X141276285Y-159579346D01*
X141249348Y-159660158D01*
X141249348Y-159714033D01*
X141276285Y-159794845D01*
X141384035Y-159902595D01*
X141464847Y-159929532D01*
X141518722Y-159929532D01*
X141599534Y-159902595D01*
X141734221Y-159767908D01*
X141761158Y-159687096D01*
X141761158Y-159633221D01*
X141734221Y-159552409D01*
X141626471Y-159444659D01*
X141545659Y-159417722D01*
X141491784Y-159417722D01*
X141410972Y-159444659D01*
X140325592Y-135222277D02*
X140352529Y-135303089D01*
X140433341Y-135383902D01*
X140541091Y-135437776D01*
X140648841Y-135437776D01*
X140729653Y-135410839D01*
X140864340Y-135330027D01*
X140945152Y-135249215D01*
X141025964Y-135114528D01*
X141052902Y-135033715D01*
X141052902Y-134925966D01*
X140999027Y-134818216D01*
X140945152Y-134764341D01*
X140837402Y-134710467D01*
X140783528Y-134710467D01*
X140594966Y-134899028D01*
X140702715Y-135006778D01*
X140594966Y-134414155D02*
X140029280Y-134979841D01*
X139813781Y-134764341D01*
X139786844Y-134683529D01*
X139786844Y-134629654D01*
X139813781Y-134548842D01*
X139894593Y-134468030D01*
X139975406Y-134441093D01*
X140029280Y-134441093D01*
X140110093Y-134468030D01*
X140325592Y-134683529D01*
X139732969Y-133552158D02*
X140056218Y-133875407D01*
X139894593Y-133713783D02*
X139328908Y-134279468D01*
X139463595Y-134252531D01*
X139571345Y-134252531D01*
X139652157Y-134279468D01*
X138978722Y-133929282D02*
X138628536Y-133579096D01*
X139032597Y-133552158D01*
X138951784Y-133471346D01*
X138924847Y-133390534D01*
X138924847Y-133336659D01*
X138951784Y-133255847D01*
X139086471Y-133121160D01*
X139167284Y-133094223D01*
X139221158Y-133094223D01*
X139301971Y-133121160D01*
X139463595Y-133282784D01*
X139490532Y-133363597D01*
X139490532Y-133417471D01*
X135245592Y-161330277D02*
X135272529Y-161411089D01*
X135353341Y-161491902D01*
X135461091Y-161545776D01*
X135568841Y-161545776D01*
X135649653Y-161518839D01*
X135784340Y-161438027D01*
X135865152Y-161357215D01*
X135945964Y-161222528D01*
X135972902Y-161141715D01*
X135972902Y-161033966D01*
X135919027Y-160926216D01*
X135865152Y-160872341D01*
X135757402Y-160818467D01*
X135703528Y-160818467D01*
X135514966Y-161007028D01*
X135622715Y-161114778D01*
X135514966Y-160522155D02*
X134949280Y-161087841D01*
X134733781Y-160872341D01*
X134706844Y-160791529D01*
X134706844Y-160737654D01*
X134733781Y-160656842D01*
X134814593Y-160576030D01*
X134895406Y-160549093D01*
X134949280Y-160549093D01*
X135030093Y-160576030D01*
X135245592Y-160791529D01*
X134652969Y-159660158D02*
X134976218Y-159983407D01*
X134814593Y-159821783D02*
X134248908Y-160387468D01*
X134383595Y-160360531D01*
X134491345Y-160360531D01*
X134572157Y-160387468D01*
X133898722Y-160037282D02*
X133521598Y-159660158D01*
X134329720Y-159336910D01*
X178166218Y-135106903D02*
X178193155Y-135187715D01*
X178273967Y-135268528D01*
X178381717Y-135322402D01*
X178489467Y-135322402D01*
X178570279Y-135295465D01*
X178704966Y-135214653D01*
X178785778Y-135133841D01*
X178866590Y-134999154D01*
X178893528Y-134918341D01*
X178893528Y-134810592D01*
X178839653Y-134702842D01*
X178785778Y-134648967D01*
X178678028Y-134595093D01*
X178624154Y-134595093D01*
X178435592Y-134783654D01*
X178543341Y-134891404D01*
X178435592Y-134298781D02*
X177869906Y-134864467D01*
X177654407Y-134648967D01*
X177627470Y-134568155D01*
X177627470Y-134514280D01*
X177654407Y-134433468D01*
X177735219Y-134352656D01*
X177816032Y-134325719D01*
X177869906Y-134325719D01*
X177950719Y-134352656D01*
X178166218Y-134568155D01*
X177573595Y-133436784D02*
X177896844Y-133760033D01*
X177735219Y-133598409D02*
X177169534Y-134164094D01*
X177304221Y-134137157D01*
X177411971Y-134137157D01*
X177492783Y-134164094D01*
X170735592Y-161230152D02*
X170385406Y-160879966D01*
X170789467Y-160853028D01*
X170708654Y-160772216D01*
X170681717Y-160691404D01*
X170681717Y-160637529D01*
X170708654Y-160556717D01*
X170843341Y-160422030D01*
X170924154Y-160395093D01*
X170978028Y-160395093D01*
X171058841Y-160422030D01*
X171220465Y-160583654D01*
X171247402Y-160664467D01*
X171247402Y-160718341D01*
X170223781Y-160718341D02*
X170600905Y-159964094D01*
X169846658Y-160341218D01*
X169711971Y-160206531D02*
X169361784Y-159856345D01*
X169765845Y-159829407D01*
X169685033Y-159748595D01*
X169658096Y-159667783D01*
X169658096Y-159613908D01*
X169685033Y-159533096D01*
X169819720Y-159398409D01*
X169900532Y-159371471D01*
X169954407Y-159371471D01*
X170035219Y-159398409D01*
X170196844Y-159560033D01*
X170223781Y-159640845D01*
X170223781Y-159694720D01*
X181372309Y-161966870D02*
X181749433Y-161212622D01*
X180995186Y-161589746D01*
X180887436Y-160943248D02*
X180833561Y-160835499D01*
X180833561Y-160781624D01*
X180860499Y-160700812D01*
X180941311Y-160619999D01*
X181022123Y-160593062D01*
X181075998Y-160593062D01*
X181156810Y-160619999D01*
X181372309Y-160835499D01*
X180806624Y-161401184D01*
X180618062Y-161212622D01*
X180591125Y-161131810D01*
X180591125Y-161077935D01*
X180618062Y-160997123D01*
X180671937Y-160943248D01*
X180752749Y-160916311D01*
X180806624Y-160916311D01*
X180887436Y-160943248D01*
X181075998Y-161131810D01*
X180240938Y-160835499D02*
X180698874Y-160377563D01*
X180725812Y-160296751D01*
X180725812Y-160242876D01*
X180698874Y-160162064D01*
X180591125Y-160054314D01*
X180510312Y-160027377D01*
X180456438Y-160027377D01*
X180375625Y-160054314D01*
X179917690Y-160512250D01*
X180214001Y-159731065D02*
X180160126Y-159623316D01*
X180025439Y-159488629D01*
X179944627Y-159461691D01*
X179890752Y-159461691D01*
X179809940Y-159488629D01*
X179756065Y-159542503D01*
X179729128Y-159623316D01*
X179729128Y-159677190D01*
X179756065Y-159758003D01*
X179836877Y-159892690D01*
X179863815Y-159973502D01*
X179863815Y-160027377D01*
X179836877Y-160108189D01*
X179783003Y-160162064D01*
X179702190Y-160189001D01*
X179648316Y-160189001D01*
X179567503Y-160162064D01*
X179432816Y-160027377D01*
X179378942Y-159919627D01*
X150243155Y-135233841D02*
X150270093Y-135314653D01*
X150350905Y-135395465D01*
X150458654Y-135449340D01*
X150566404Y-135449340D01*
X150647216Y-135422402D01*
X150781903Y-135341590D01*
X150862715Y-135260778D01*
X150943528Y-135126091D01*
X150970465Y-135045279D01*
X150970465Y-134937529D01*
X150916590Y-134829780D01*
X150862715Y-134775905D01*
X150754966Y-134722030D01*
X150701091Y-134722030D01*
X150512529Y-134910592D01*
X150620279Y-135018341D01*
X150512529Y-134425719D02*
X149946844Y-134991404D01*
X150189280Y-134102470D01*
X149623595Y-134668155D01*
X149919906Y-133833096D02*
X149354221Y-134398781D01*
X149219534Y-134264094D01*
X149165659Y-134156345D01*
X149165659Y-134048595D01*
X149192597Y-133967783D01*
X149273409Y-133833096D01*
X149354221Y-133752284D01*
X149488908Y-133671471D01*
X149569720Y-133644534D01*
X149677470Y-133644534D01*
X149785219Y-133698409D01*
X149919906Y-133833096D01*
X170536218Y-135206903D02*
X170563155Y-135287715D01*
X170643967Y-135368528D01*
X170751717Y-135422402D01*
X170859467Y-135422402D01*
X170940279Y-135395465D01*
X171074966Y-135314653D01*
X171155778Y-135233841D01*
X171236590Y-135099154D01*
X171263528Y-135018341D01*
X171263528Y-134910592D01*
X171209653Y-134802842D01*
X171155778Y-134748967D01*
X171048028Y-134695093D01*
X170994154Y-134695093D01*
X170805592Y-134883654D01*
X170913341Y-134991404D01*
X170805592Y-134398781D02*
X170239906Y-134964467D01*
X170024407Y-134748967D01*
X169997470Y-134668155D01*
X169997470Y-134614280D01*
X170024407Y-134533468D01*
X170105219Y-134452656D01*
X170186032Y-134425719D01*
X170239906Y-134425719D01*
X170320719Y-134452656D01*
X170536218Y-134668155D01*
X169728096Y-134452656D02*
X169377910Y-134102470D01*
X169781971Y-134075532D01*
X169701158Y-133994720D01*
X169674221Y-133913908D01*
X169674221Y-133860033D01*
X169701158Y-133779221D01*
X169835845Y-133644534D01*
X169916658Y-133617597D01*
X169970532Y-133617597D01*
X170051345Y-133644534D01*
X170212969Y-133806158D01*
X170239906Y-133886971D01*
X170239906Y-133940845D01*
X152756218Y-135206903D02*
X152783155Y-135287715D01*
X152863967Y-135368528D01*
X152971717Y-135422402D01*
X153079467Y-135422402D01*
X153160279Y-135395465D01*
X153294966Y-135314653D01*
X153375778Y-135233841D01*
X153456590Y-135099154D01*
X153483528Y-135018341D01*
X153483528Y-134910592D01*
X153429653Y-134802842D01*
X153375778Y-134748967D01*
X153268028Y-134695093D01*
X153214154Y-134695093D01*
X153025592Y-134883654D01*
X153133341Y-134991404D01*
X153025592Y-134398781D02*
X152459906Y-134964467D01*
X152244407Y-134748967D01*
X152217470Y-134668155D01*
X152217470Y-134614280D01*
X152244407Y-134533468D01*
X152325219Y-134452656D01*
X152406032Y-134425719D01*
X152459906Y-134425719D01*
X152540719Y-134452656D01*
X152756218Y-134668155D01*
X152432969Y-133806158D02*
X152325219Y-133698409D01*
X152244407Y-133671471D01*
X152190532Y-133671471D01*
X152055845Y-133698409D01*
X151921158Y-133779221D01*
X151705659Y-133994720D01*
X151678722Y-134075532D01*
X151678722Y-134129407D01*
X151705659Y-134210219D01*
X151813409Y-134317969D01*
X151894221Y-134344906D01*
X151948096Y-134344906D01*
X152028908Y-134317969D01*
X152163595Y-134183282D01*
X152190532Y-134102470D01*
X152190532Y-134048595D01*
X152163595Y-133967783D01*
X152055845Y-133860033D01*
X151975033Y-133833096D01*
X151921158Y-133833096D01*
X151840346Y-133860033D01*
X157866218Y-135306903D02*
X157893155Y-135387715D01*
X157973967Y-135468528D01*
X158081717Y-135522402D01*
X158189467Y-135522402D01*
X158270279Y-135495465D01*
X158404966Y-135414653D01*
X158485778Y-135333841D01*
X158566590Y-135199154D01*
X158593528Y-135118341D01*
X158593528Y-135010592D01*
X158539653Y-134902842D01*
X158485778Y-134848967D01*
X158378028Y-134795093D01*
X158324154Y-134795093D01*
X158135592Y-134983654D01*
X158243341Y-135091404D01*
X158135592Y-134498781D02*
X157569906Y-135064467D01*
X157354407Y-134848967D01*
X157327470Y-134768155D01*
X157327470Y-134714280D01*
X157354407Y-134633468D01*
X157435219Y-134552656D01*
X157516032Y-134525719D01*
X157569906Y-134525719D01*
X157650719Y-134552656D01*
X157866218Y-134768155D01*
X157058096Y-134552656D02*
X156680972Y-134175532D01*
X157489094Y-133852284D01*
X160376218Y-135206903D02*
X160403155Y-135287715D01*
X160483967Y-135368528D01*
X160591717Y-135422402D01*
X160699467Y-135422402D01*
X160780279Y-135395465D01*
X160914966Y-135314653D01*
X160995778Y-135233841D01*
X161076590Y-135099154D01*
X161103528Y-135018341D01*
X161103528Y-134910592D01*
X161049653Y-134802842D01*
X160995778Y-134748967D01*
X160888028Y-134695093D01*
X160834154Y-134695093D01*
X160645592Y-134883654D01*
X160753341Y-134991404D01*
X160645592Y-134398781D02*
X160079906Y-134964467D01*
X159864407Y-134748967D01*
X159837470Y-134668155D01*
X159837470Y-134614280D01*
X159864407Y-134533468D01*
X159945219Y-134452656D01*
X160026032Y-134425719D01*
X160079906Y-134425719D01*
X160160719Y-134452656D01*
X160376218Y-134668155D01*
X159271784Y-134156345D02*
X159379534Y-134264094D01*
X159460346Y-134291032D01*
X159514221Y-134291032D01*
X159648908Y-134264094D01*
X159783595Y-134183282D01*
X159999094Y-133967783D01*
X160026032Y-133886971D01*
X160026032Y-133833096D01*
X159999094Y-133752284D01*
X159891345Y-133644534D01*
X159810532Y-133617597D01*
X159756658Y-133617597D01*
X159675845Y-133644534D01*
X159541158Y-133779221D01*
X159514221Y-133860033D01*
X159514221Y-133913908D01*
X159541158Y-133994720D01*
X159648908Y-134102470D01*
X159729720Y-134129407D01*
X159783595Y-134129407D01*
X159864407Y-134102470D01*
X153025592Y-161330277D02*
X153052529Y-161411089D01*
X153133341Y-161491902D01*
X153241091Y-161545776D01*
X153348841Y-161545776D01*
X153429653Y-161518839D01*
X153564340Y-161438027D01*
X153645152Y-161357215D01*
X153725964Y-161222528D01*
X153752902Y-161141715D01*
X153752902Y-161033966D01*
X153699027Y-160926216D01*
X153645152Y-160872341D01*
X153537402Y-160818467D01*
X153483528Y-160818467D01*
X153294966Y-161007028D01*
X153402715Y-161114778D01*
X153294966Y-160522155D02*
X152729280Y-161087841D01*
X152513781Y-160872341D01*
X152486844Y-160791529D01*
X152486844Y-160737654D01*
X152513781Y-160656842D01*
X152594593Y-160576030D01*
X152675406Y-160549093D01*
X152729280Y-160549093D01*
X152810093Y-160576030D01*
X153025592Y-160791529D01*
X152244407Y-160495218D02*
X152190532Y-160495218D01*
X152109720Y-160468280D01*
X151975033Y-160333593D01*
X151948096Y-160252781D01*
X151948096Y-160198906D01*
X151975033Y-160118094D01*
X152028908Y-160064219D01*
X152136658Y-160010345D01*
X152783155Y-160010345D01*
X152432969Y-159660158D01*
X151705659Y-159956470D02*
X151651784Y-159956470D01*
X151570972Y-159929532D01*
X151436285Y-159794845D01*
X151409348Y-159714033D01*
X151409348Y-159660158D01*
X151436285Y-159579346D01*
X151490160Y-159525471D01*
X151597910Y-159471597D01*
X152244407Y-159471597D01*
X151894221Y-159121410D01*
X140325592Y-161330277D02*
X140352529Y-161411089D01*
X140433341Y-161491902D01*
X140541091Y-161545776D01*
X140648841Y-161545776D01*
X140729653Y-161518839D01*
X140864340Y-161438027D01*
X140945152Y-161357215D01*
X141025964Y-161222528D01*
X141052902Y-161141715D01*
X141052902Y-161033966D01*
X140999027Y-160926216D01*
X140945152Y-160872341D01*
X140837402Y-160818467D01*
X140783528Y-160818467D01*
X140594966Y-161007028D01*
X140702715Y-161114778D01*
X140594966Y-160522155D02*
X140029280Y-161087841D01*
X139813781Y-160872341D01*
X139786844Y-160791529D01*
X139786844Y-160737654D01*
X139813781Y-160656842D01*
X139894593Y-160576030D01*
X139975406Y-160549093D01*
X140029280Y-160549093D01*
X140110093Y-160576030D01*
X140325592Y-160791529D01*
X139732969Y-159660158D02*
X140056218Y-159983407D01*
X139894593Y-159821783D02*
X139328908Y-160387468D01*
X139463595Y-160360531D01*
X139571345Y-160360531D01*
X139652157Y-160387468D01*
X139086471Y-159660158D02*
X139113409Y-159740971D01*
X139113409Y-159794845D01*
X139086471Y-159875658D01*
X139059534Y-159902595D01*
X138978722Y-159929532D01*
X138924847Y-159929532D01*
X138844035Y-159902595D01*
X138736285Y-159794845D01*
X138709348Y-159714033D01*
X138709348Y-159660158D01*
X138736285Y-159579346D01*
X138763223Y-159552409D01*
X138844035Y-159525471D01*
X138897910Y-159525471D01*
X138978722Y-159552409D01*
X139086471Y-159660158D01*
X139167284Y-159687096D01*
X139221158Y-159687096D01*
X139301971Y-159660158D01*
X139409720Y-159552409D01*
X139436658Y-159471597D01*
X139436658Y-159417722D01*
X139409720Y-159336910D01*
X139301971Y-159229160D01*
X139221158Y-159202223D01*
X139167284Y-159202223D01*
X139086471Y-159229160D01*
X138978722Y-159336910D01*
X138951784Y-159417722D01*
X138951784Y-159471597D01*
X138978722Y-159552409D01*
X130568809Y-143429523D02*
X130606904Y-143315238D01*
X130606904Y-143124761D01*
X130568809Y-143048571D01*
X130530714Y-143010476D01*
X130454523Y-142972380D01*
X130378333Y-142972380D01*
X130302142Y-143010476D01*
X130264047Y-143048571D01*
X130225952Y-143124761D01*
X130187857Y-143277142D01*
X130149761Y-143353333D01*
X130111666Y-143391428D01*
X130035476Y-143429523D01*
X129959285Y-143429523D01*
X129883095Y-143391428D01*
X129845000Y-143353333D01*
X129806904Y-143277142D01*
X129806904Y-143086666D01*
X129845000Y-142972380D01*
X129806904Y-142705714D02*
X130606904Y-142515238D01*
X130035476Y-142362857D01*
X130606904Y-142210476D01*
X129806904Y-142020000D01*
X130530714Y-141258095D02*
X130568809Y-141296190D01*
X130606904Y-141410476D01*
X130606904Y-141486666D01*
X130568809Y-141600952D01*
X130492619Y-141677142D01*
X130416428Y-141715238D01*
X130264047Y-141753333D01*
X130149761Y-141753333D01*
X129997380Y-141715238D01*
X129921190Y-141677142D01*
X129845000Y-141600952D01*
X129806904Y-141486666D01*
X129806904Y-141410476D01*
X129845000Y-141296190D01*
X129883095Y-141258095D01*
X130606904Y-140534285D02*
X130606904Y-140915238D01*
X129806904Y-140915238D01*
X130606904Y-140267619D02*
X129806904Y-140267619D01*
X130606904Y-139810476D02*
X130149761Y-140153333D01*
X129806904Y-139810476D02*
X130264047Y-140267619D01*
X147945592Y-135222277D02*
X147972529Y-135303089D01*
X148053341Y-135383902D01*
X148161091Y-135437776D01*
X148268841Y-135437776D01*
X148349653Y-135410839D01*
X148484340Y-135330027D01*
X148565152Y-135249215D01*
X148645964Y-135114528D01*
X148672902Y-135033715D01*
X148672902Y-134925966D01*
X148619027Y-134818216D01*
X148565152Y-134764341D01*
X148457402Y-134710467D01*
X148403528Y-134710467D01*
X148214966Y-134899028D01*
X148322715Y-135006778D01*
X148214966Y-134414155D02*
X147649280Y-134979841D01*
X147433781Y-134764341D01*
X147406844Y-134683529D01*
X147406844Y-134629654D01*
X147433781Y-134548842D01*
X147514593Y-134468030D01*
X147595406Y-134441093D01*
X147649280Y-134441093D01*
X147730093Y-134468030D01*
X147945592Y-134683529D01*
X147352969Y-133552158D02*
X147676218Y-133875407D01*
X147514593Y-133713783D02*
X146948908Y-134279468D01*
X147083595Y-134252531D01*
X147191345Y-134252531D01*
X147272157Y-134279468D01*
X146437097Y-133767658D02*
X146383223Y-133713783D01*
X146356285Y-133632971D01*
X146356285Y-133579096D01*
X146383223Y-133498284D01*
X146464035Y-133363597D01*
X146598722Y-133228910D01*
X146733409Y-133148097D01*
X146814221Y-133121160D01*
X146868096Y-133121160D01*
X146948908Y-133148097D01*
X147002783Y-133201972D01*
X147029720Y-133282784D01*
X147029720Y-133336659D01*
X147002783Y-133417471D01*
X146921971Y-133552158D01*
X146787284Y-133686845D01*
X146652597Y-133767658D01*
X146571784Y-133794595D01*
X146517910Y-133794595D01*
X146437097Y-133767658D01*
X155296218Y-135206903D02*
X155323155Y-135287715D01*
X155403967Y-135368528D01*
X155511717Y-135422402D01*
X155619467Y-135422402D01*
X155700279Y-135395465D01*
X155834966Y-135314653D01*
X155915778Y-135233841D01*
X155996590Y-135099154D01*
X156023528Y-135018341D01*
X156023528Y-134910592D01*
X155969653Y-134802842D01*
X155915778Y-134748967D01*
X155808028Y-134695093D01*
X155754154Y-134695093D01*
X155565592Y-134883654D01*
X155673341Y-134991404D01*
X155565592Y-134398781D02*
X154999906Y-134964467D01*
X154784407Y-134748967D01*
X154757470Y-134668155D01*
X154757470Y-134614280D01*
X154784407Y-134533468D01*
X154865219Y-134452656D01*
X154946032Y-134425719D01*
X154999906Y-134425719D01*
X155080719Y-134452656D01*
X155296218Y-134668155D01*
X154595845Y-134075532D02*
X154622783Y-134156345D01*
X154622783Y-134210219D01*
X154595845Y-134291032D01*
X154568908Y-134317969D01*
X154488096Y-134344906D01*
X154434221Y-134344906D01*
X154353409Y-134317969D01*
X154245659Y-134210219D01*
X154218722Y-134129407D01*
X154218722Y-134075532D01*
X154245659Y-133994720D01*
X154272597Y-133967783D01*
X154353409Y-133940845D01*
X154407284Y-133940845D01*
X154488096Y-133967783D01*
X154595845Y-134075532D01*
X154676658Y-134102470D01*
X154730532Y-134102470D01*
X154811345Y-134075532D01*
X154919094Y-133967783D01*
X154946032Y-133886971D01*
X154946032Y-133833096D01*
X154919094Y-133752284D01*
X154811345Y-133644534D01*
X154730532Y-133617597D01*
X154676658Y-133617597D01*
X154595845Y-133644534D01*
X154488096Y-133752284D01*
X154461158Y-133833096D01*
X154461158Y-133886971D01*
X154488096Y-133967783D01*
X137543155Y-135233841D02*
X137570093Y-135314653D01*
X137650905Y-135395465D01*
X137758654Y-135449340D01*
X137866404Y-135449340D01*
X137947216Y-135422402D01*
X138081903Y-135341590D01*
X138162715Y-135260778D01*
X138243528Y-135126091D01*
X138270465Y-135045279D01*
X138270465Y-134937529D01*
X138216590Y-134829780D01*
X138162715Y-134775905D01*
X138054966Y-134722030D01*
X138001091Y-134722030D01*
X137812529Y-134910592D01*
X137920279Y-135018341D01*
X137812529Y-134425719D02*
X137246844Y-134991404D01*
X137489280Y-134102470D01*
X136923595Y-134668155D01*
X137219906Y-133833096D02*
X136654221Y-134398781D01*
X136519534Y-134264094D01*
X136465659Y-134156345D01*
X136465659Y-134048595D01*
X136492597Y-133967783D01*
X136573409Y-133833096D01*
X136654221Y-133752284D01*
X136788908Y-133671471D01*
X136869720Y-133644534D01*
X136977470Y-133644534D01*
X137085219Y-133698409D01*
X137219906Y-133833096D01*
X175643155Y-135233841D02*
X175670093Y-135314653D01*
X175750905Y-135395465D01*
X175858654Y-135449340D01*
X175966404Y-135449340D01*
X176047216Y-135422402D01*
X176181903Y-135341590D01*
X176262715Y-135260778D01*
X176343528Y-135126091D01*
X176370465Y-135045279D01*
X176370465Y-134937529D01*
X176316590Y-134829780D01*
X176262715Y-134775905D01*
X176154966Y-134722030D01*
X176101091Y-134722030D01*
X175912529Y-134910592D01*
X176020279Y-135018341D01*
X175912529Y-134425719D02*
X175346844Y-134991404D01*
X175589280Y-134102470D01*
X175023595Y-134668155D01*
X175319906Y-133833096D02*
X174754221Y-134398781D01*
X174619534Y-134264094D01*
X174565659Y-134156345D01*
X174565659Y-134048595D01*
X174592597Y-133967783D01*
X174673409Y-133833096D01*
X174754221Y-133752284D01*
X174888908Y-133671471D01*
X174969720Y-133644534D01*
X175077470Y-133644534D01*
X175185219Y-133698409D01*
X175319906Y-133833096D01*
X155848435Y-160481624D02*
X155767622Y-160939560D01*
X156171683Y-160804873D02*
X155605998Y-161370558D01*
X155390499Y-161155059D01*
X155363561Y-161074247D01*
X155363561Y-161020372D01*
X155390499Y-160939560D01*
X155471311Y-160858748D01*
X155552123Y-160831810D01*
X155605998Y-160831810D01*
X155686810Y-160858748D01*
X155902309Y-161074247D01*
X155040312Y-160804873D02*
X155498248Y-160346937D01*
X155525186Y-160266125D01*
X155525186Y-160212250D01*
X155498248Y-160131438D01*
X155390499Y-160023688D01*
X155309687Y-159996751D01*
X155255812Y-159996751D01*
X155175000Y-160023688D01*
X154717064Y-160481624D01*
X155013375Y-159646564D02*
X154447690Y-160212250D01*
X154690126Y-159323316D01*
X154124441Y-159889001D01*
X158105592Y-161330277D02*
X158132529Y-161411089D01*
X158213341Y-161491902D01*
X158321091Y-161545776D01*
X158428841Y-161545776D01*
X158509653Y-161518839D01*
X158644340Y-161438027D01*
X158725152Y-161357215D01*
X158805964Y-161222528D01*
X158832902Y-161141715D01*
X158832902Y-161033966D01*
X158779027Y-160926216D01*
X158725152Y-160872341D01*
X158617402Y-160818467D01*
X158563528Y-160818467D01*
X158374966Y-161007028D01*
X158482715Y-161114778D01*
X158374966Y-160522155D02*
X157809280Y-161087841D01*
X157593781Y-160872341D01*
X157566844Y-160791529D01*
X157566844Y-160737654D01*
X157593781Y-160656842D01*
X157674593Y-160576030D01*
X157755406Y-160549093D01*
X157809280Y-160549093D01*
X157890093Y-160576030D01*
X158105592Y-160791529D01*
X157324407Y-160495218D02*
X157270532Y-160495218D01*
X157189720Y-160468280D01*
X157055033Y-160333593D01*
X157028096Y-160252781D01*
X157028096Y-160198906D01*
X157055033Y-160118094D01*
X157108908Y-160064219D01*
X157216658Y-160010345D01*
X157863155Y-160010345D01*
X157512969Y-159660158D01*
X156462410Y-159740971D02*
X156570160Y-159848720D01*
X156650972Y-159875658D01*
X156704847Y-159875658D01*
X156839534Y-159848720D01*
X156974221Y-159767908D01*
X157189720Y-159552409D01*
X157216658Y-159471597D01*
X157216658Y-159417722D01*
X157189720Y-159336910D01*
X157081971Y-159229160D01*
X157001158Y-159202223D01*
X156947284Y-159202223D01*
X156866471Y-159229160D01*
X156731784Y-159363847D01*
X156704847Y-159444659D01*
X156704847Y-159498534D01*
X156731784Y-159579346D01*
X156839534Y-159687096D01*
X156920346Y-159714033D01*
X156974221Y-159714033D01*
X157055033Y-159687096D01*
X142865592Y-135076277D02*
X142892529Y-135157089D01*
X142973341Y-135237902D01*
X143081091Y-135291776D01*
X143188841Y-135291776D01*
X143269653Y-135264839D01*
X143404340Y-135184027D01*
X143485152Y-135103215D01*
X143565964Y-134968528D01*
X143592902Y-134887715D01*
X143592902Y-134779966D01*
X143539027Y-134672216D01*
X143485152Y-134618341D01*
X143377402Y-134564467D01*
X143323528Y-134564467D01*
X143134966Y-134753028D01*
X143242715Y-134860778D01*
X143134966Y-134268155D02*
X142569280Y-134833841D01*
X142353781Y-134618341D01*
X142326844Y-134537529D01*
X142326844Y-134483654D01*
X142353781Y-134402842D01*
X142434593Y-134322030D01*
X142515406Y-134295093D01*
X142569280Y-134295093D01*
X142650093Y-134322030D01*
X142865592Y-134537529D01*
X142272969Y-133406158D02*
X142596218Y-133729407D01*
X142434593Y-133567783D02*
X141868908Y-134133468D01*
X142003595Y-134106531D01*
X142111345Y-134106531D01*
X142192157Y-134133468D01*
X141545659Y-133702470D02*
X141491784Y-133702470D01*
X141410972Y-133675532D01*
X141276285Y-133540845D01*
X141249348Y-133460033D01*
X141249348Y-133406158D01*
X141276285Y-133325346D01*
X141330160Y-133271471D01*
X141437910Y-133217597D01*
X142084407Y-133217597D01*
X141734221Y-132867410D01*
X167996218Y-135206903D02*
X168023155Y-135287715D01*
X168103967Y-135368528D01*
X168211717Y-135422402D01*
X168319467Y-135422402D01*
X168400279Y-135395465D01*
X168534966Y-135314653D01*
X168615778Y-135233841D01*
X168696590Y-135099154D01*
X168723528Y-135018341D01*
X168723528Y-134910592D01*
X168669653Y-134802842D01*
X168615778Y-134748967D01*
X168508028Y-134695093D01*
X168454154Y-134695093D01*
X168265592Y-134883654D01*
X168373341Y-134991404D01*
X168265592Y-134398781D02*
X167699906Y-134964467D01*
X167484407Y-134748967D01*
X167457470Y-134668155D01*
X167457470Y-134614280D01*
X167484407Y-134533468D01*
X167565219Y-134452656D01*
X167646032Y-134425719D01*
X167699906Y-134425719D01*
X167780719Y-134452656D01*
X167996218Y-134668155D01*
X167080346Y-133967783D02*
X167457470Y-133590659D01*
X166999534Y-134317969D02*
X167538282Y-134048595D01*
X167188096Y-133698409D01*
X150243155Y-160833841D02*
X150270093Y-160914653D01*
X150350905Y-160995465D01*
X150458654Y-161049340D01*
X150566404Y-161049340D01*
X150647216Y-161022402D01*
X150781903Y-160941590D01*
X150862715Y-160860778D01*
X150943528Y-160726091D01*
X150970465Y-160645279D01*
X150970465Y-160537529D01*
X150916590Y-160429780D01*
X150862715Y-160375905D01*
X150754966Y-160322030D01*
X150701091Y-160322030D01*
X150512529Y-160510592D01*
X150620279Y-160618341D01*
X150512529Y-160025719D02*
X149946844Y-160591404D01*
X150189280Y-159702470D01*
X149623595Y-160268155D01*
X149919906Y-159433096D02*
X149354221Y-159998781D01*
X149219534Y-159864094D01*
X149165659Y-159756345D01*
X149165659Y-159648595D01*
X149192597Y-159567783D01*
X149273409Y-159433096D01*
X149354221Y-159352284D01*
X149488908Y-159271471D01*
X149569720Y-159244534D01*
X149677470Y-159244534D01*
X149785219Y-159298409D01*
X149919906Y-159433096D01*
X170978773Y-163165211D02*
X170709399Y-162895837D01*
X171194272Y-163057462D02*
X170440025Y-163434585D01*
X170817149Y-162680338D01*
X170628587Y-162491776D02*
X170062902Y-163057462D01*
X169928215Y-162922775D01*
X169874340Y-162815025D01*
X169874340Y-162707276D01*
X169901277Y-162626463D01*
X169982089Y-162491776D01*
X170062902Y-162410964D01*
X170197589Y-162330152D01*
X170278401Y-162303215D01*
X170386150Y-162303215D01*
X170493900Y-162357089D01*
X170628587Y-162491776D01*
X169685778Y-161656717D02*
X169739653Y-161656717D01*
X169847402Y-161710592D01*
X169901277Y-161764467D01*
X169955152Y-161872216D01*
X169955152Y-161979966D01*
X169928215Y-162060778D01*
X169847402Y-162195465D01*
X169766590Y-162276277D01*
X169631903Y-162357089D01*
X169551091Y-162384027D01*
X169443341Y-162384027D01*
X169335592Y-162330152D01*
X169281717Y-162276277D01*
X169227842Y-162168528D01*
X169227842Y-162114653D01*
X169685778Y-161441218D02*
X169254780Y-161010219D01*
X168581345Y-161575905D02*
X168958468Y-160821658D01*
X168204221Y-161198781D01*
X168258096Y-160121285D02*
X168177284Y-160579221D01*
X168581345Y-160444534D02*
X168015659Y-161010219D01*
X167800160Y-160794720D01*
X167773223Y-160713908D01*
X167773223Y-160660033D01*
X167800160Y-160579221D01*
X167880972Y-160498409D01*
X167961784Y-160471471D01*
X168015659Y-160471471D01*
X168096471Y-160498409D01*
X168311971Y-160713908D01*
X167719348Y-160175160D02*
X167530786Y-159986598D01*
X167746285Y-159609475D02*
X168015659Y-159878849D01*
X167449974Y-160444534D01*
X167180600Y-160175160D01*
X167018975Y-159474788D02*
X167207537Y-159663349D01*
X167503849Y-159367038D02*
X166938163Y-159932723D01*
X166668789Y-159663349D01*
X162943155Y-135233841D02*
X162970093Y-135314653D01*
X163050905Y-135395465D01*
X163158654Y-135449340D01*
X163266404Y-135449340D01*
X163347216Y-135422402D01*
X163481903Y-135341590D01*
X163562715Y-135260778D01*
X163643528Y-135126091D01*
X163670465Y-135045279D01*
X163670465Y-134937529D01*
X163616590Y-134829780D01*
X163562715Y-134775905D01*
X163454966Y-134722030D01*
X163401091Y-134722030D01*
X163212529Y-134910592D01*
X163320279Y-135018341D01*
X163212529Y-134425719D02*
X162646844Y-134991404D01*
X162889280Y-134102470D01*
X162323595Y-134668155D01*
X162619906Y-133833096D02*
X162054221Y-134398781D01*
X161919534Y-134264094D01*
X161865659Y-134156345D01*
X161865659Y-134048595D01*
X161892597Y-133967783D01*
X161973409Y-133833096D01*
X162054221Y-133752284D01*
X162188908Y-133671471D01*
X162269720Y-133644534D01*
X162377470Y-133644534D01*
X162485219Y-133698409D01*
X162619906Y-133833096D01*
X135245592Y-135176277D02*
X135272529Y-135257089D01*
X135353341Y-135337902D01*
X135461091Y-135391776D01*
X135568841Y-135391776D01*
X135649653Y-135364839D01*
X135784340Y-135284027D01*
X135865152Y-135203215D01*
X135945964Y-135068528D01*
X135972902Y-134987715D01*
X135972902Y-134879966D01*
X135919027Y-134772216D01*
X135865152Y-134718341D01*
X135757402Y-134664467D01*
X135703528Y-134664467D01*
X135514966Y-134853028D01*
X135622715Y-134960778D01*
X135514966Y-134368155D02*
X134949280Y-134933841D01*
X134733781Y-134718341D01*
X134706844Y-134637529D01*
X134706844Y-134583654D01*
X134733781Y-134502842D01*
X134814593Y-134422030D01*
X134895406Y-134395093D01*
X134949280Y-134395093D01*
X135030093Y-134422030D01*
X135245592Y-134637529D01*
X134652969Y-133506158D02*
X134976218Y-133829407D01*
X134814593Y-133667783D02*
X134248908Y-134233468D01*
X134383595Y-134206531D01*
X134491345Y-134206531D01*
X134572157Y-134233468D01*
X133790972Y-133398409D02*
X134168096Y-133021285D01*
X133710160Y-133748595D02*
X134248908Y-133479221D01*
X133898722Y-133129035D01*
%TO.C,A1*%
X181455714Y-88236666D02*
X181931904Y-88236666D01*
X181360476Y-88522380D02*
X181693809Y-87522380D01*
X182027142Y-88522380D01*
X182884285Y-88522380D02*
X182312857Y-88522380D01*
X182598571Y-88522380D02*
X182598571Y-87522380D01*
X182503333Y-87665238D01*
X182408095Y-87760476D01*
X182312857Y-87808095D01*
%TO.C,M3.6*%
X232156190Y-119442380D02*
X232156190Y-118442380D01*
X232489523Y-119156666D01*
X232822857Y-118442380D01*
X232822857Y-119442380D01*
X233203809Y-118442380D02*
X233822857Y-118442380D01*
X233489523Y-118823333D01*
X233632380Y-118823333D01*
X233727619Y-118870952D01*
X233775238Y-118918571D01*
X233822857Y-119013809D01*
X233822857Y-119251904D01*
X233775238Y-119347142D01*
X233727619Y-119394761D01*
X233632380Y-119442380D01*
X233346666Y-119442380D01*
X233251428Y-119394761D01*
X233203809Y-119347142D01*
X234251428Y-119347142D02*
X234299047Y-119394761D01*
X234251428Y-119442380D01*
X234203809Y-119394761D01*
X234251428Y-119347142D01*
X234251428Y-119442380D01*
X235156190Y-118442380D02*
X234965714Y-118442380D01*
X234870476Y-118490000D01*
X234822857Y-118537619D01*
X234727619Y-118680476D01*
X234680000Y-118870952D01*
X234680000Y-119251904D01*
X234727619Y-119347142D01*
X234775238Y-119394761D01*
X234870476Y-119442380D01*
X235060952Y-119442380D01*
X235156190Y-119394761D01*
X235203809Y-119347142D01*
X235251428Y-119251904D01*
X235251428Y-119013809D01*
X235203809Y-118918571D01*
X235156190Y-118870952D01*
X235060952Y-118823333D01*
X234870476Y-118823333D01*
X234775238Y-118870952D01*
X234727619Y-118918571D01*
X234680000Y-119013809D01*
%TO.C,P3*%
X287551904Y-85162380D02*
X287551904Y-84162380D01*
X287932857Y-84162380D01*
X288028095Y-84210000D01*
X288075714Y-84257619D01*
X288123333Y-84352857D01*
X288123333Y-84495714D01*
X288075714Y-84590952D01*
X288028095Y-84638571D01*
X287932857Y-84686190D01*
X287551904Y-84686190D01*
X288456666Y-84162380D02*
X289075714Y-84162380D01*
X288742380Y-84543333D01*
X288885238Y-84543333D01*
X288980476Y-84590952D01*
X289028095Y-84638571D01*
X289075714Y-84733809D01*
X289075714Y-84971904D01*
X289028095Y-85067142D01*
X288980476Y-85114761D01*
X288885238Y-85162380D01*
X288599523Y-85162380D01*
X288504285Y-85114761D01*
X288456666Y-85067142D01*
%TO.C,A2*%
X168755714Y-88236666D02*
X169231904Y-88236666D01*
X168660476Y-88522380D02*
X168993809Y-87522380D01*
X169327142Y-88522380D01*
X169612857Y-87617619D02*
X169660476Y-87570000D01*
X169755714Y-87522380D01*
X169993809Y-87522380D01*
X170089047Y-87570000D01*
X170136666Y-87617619D01*
X170184285Y-87712857D01*
X170184285Y-87808095D01*
X170136666Y-87950952D01*
X169565238Y-88522380D01*
X170184285Y-88522380D01*
%TO.C,K3*%
X287551904Y-114372380D02*
X287551904Y-113372380D01*
X288123333Y-114372380D02*
X287694761Y-113800952D01*
X288123333Y-113372380D02*
X287551904Y-113943809D01*
X288456666Y-113372380D02*
X289075714Y-113372380D01*
X288742380Y-113753333D01*
X288885238Y-113753333D01*
X288980476Y-113800952D01*
X289028095Y-113848571D01*
X289075714Y-113943809D01*
X289075714Y-114181904D01*
X289028095Y-114277142D01*
X288980476Y-114324761D01*
X288885238Y-114372380D01*
X288599523Y-114372380D01*
X288504285Y-114324761D01*
X288456666Y-114277142D01*
%TO.C,K2*%
X258341904Y-114372380D02*
X258341904Y-113372380D01*
X258913333Y-114372380D02*
X258484761Y-113800952D01*
X258913333Y-113372380D02*
X258341904Y-113943809D01*
X259294285Y-113467619D02*
X259341904Y-113420000D01*
X259437142Y-113372380D01*
X259675238Y-113372380D01*
X259770476Y-113420000D01*
X259818095Y-113467619D01*
X259865714Y-113562857D01*
X259865714Y-113658095D01*
X259818095Y-113800952D01*
X259246666Y-114372380D01*
X259865714Y-114372380D01*
%TO.C,R3*%
X156603333Y-88522380D02*
X156270000Y-88046190D01*
X156031904Y-88522380D02*
X156031904Y-87522380D01*
X156412857Y-87522380D01*
X156508095Y-87570000D01*
X156555714Y-87617619D01*
X156603333Y-87712857D01*
X156603333Y-87855714D01*
X156555714Y-87950952D01*
X156508095Y-87998571D01*
X156412857Y-88046190D01*
X156031904Y-88046190D01*
X156936666Y-87522380D02*
X157555714Y-87522380D01*
X157222380Y-87903333D01*
X157365238Y-87903333D01*
X157460476Y-87950952D01*
X157508095Y-87998571D01*
X157555714Y-88093809D01*
X157555714Y-88331904D01*
X157508095Y-88427142D01*
X157460476Y-88474761D01*
X157365238Y-88522380D01*
X157079523Y-88522380D01*
X156984285Y-88474761D01*
X156936666Y-88427142D01*
%TO.C,USBC1*%
X230537619Y-82730654D02*
X229728095Y-82730654D01*
X229632857Y-82778273D01*
X229585238Y-82825892D01*
X229537619Y-82921130D01*
X229537619Y-83111607D01*
X229585238Y-83206845D01*
X229632857Y-83254464D01*
X229728095Y-83302083D01*
X230537619Y-83302083D01*
X229585238Y-83730654D02*
X229537619Y-83873511D01*
X229537619Y-84111607D01*
X229585238Y-84206845D01*
X229632857Y-84254464D01*
X229728095Y-84302083D01*
X229823333Y-84302083D01*
X229918571Y-84254464D01*
X229966190Y-84206845D01*
X230013809Y-84111607D01*
X230061428Y-83921130D01*
X230109047Y-83825892D01*
X230156666Y-83778273D01*
X230251904Y-83730654D01*
X230347142Y-83730654D01*
X230442380Y-83778273D01*
X230490000Y-83825892D01*
X230537619Y-83921130D01*
X230537619Y-84159226D01*
X230490000Y-84302083D01*
X230061428Y-85063988D02*
X230013809Y-85206845D01*
X229966190Y-85254464D01*
X229870952Y-85302083D01*
X229728095Y-85302083D01*
X229632857Y-85254464D01*
X229585238Y-85206845D01*
X229537619Y-85111607D01*
X229537619Y-84730654D01*
X230537619Y-84730654D01*
X230537619Y-85063988D01*
X230490000Y-85159226D01*
X230442380Y-85206845D01*
X230347142Y-85254464D01*
X230251904Y-85254464D01*
X230156666Y-85206845D01*
X230109047Y-85159226D01*
X230061428Y-85063988D01*
X230061428Y-84730654D01*
X229632857Y-86302083D02*
X229585238Y-86254464D01*
X229537619Y-86111607D01*
X229537619Y-86016369D01*
X229585238Y-85873511D01*
X229680476Y-85778273D01*
X229775714Y-85730654D01*
X229966190Y-85683035D01*
X230109047Y-85683035D01*
X230299523Y-85730654D01*
X230394761Y-85778273D01*
X230490000Y-85873511D01*
X230537619Y-86016369D01*
X230537619Y-86111607D01*
X230490000Y-86254464D01*
X230442380Y-86302083D01*
X229537619Y-87254464D02*
X229537619Y-86683035D01*
X229537619Y-86968750D02*
X230537619Y-86968750D01*
X230394761Y-86873511D01*
X230299523Y-86778273D01*
X230251904Y-86683035D01*
%TO.C,DOWN1*%
X170362857Y-94052380D02*
X170362857Y-93052380D01*
X170600952Y-93052380D01*
X170743809Y-93100000D01*
X170839047Y-93195238D01*
X170886666Y-93290476D01*
X170934285Y-93480952D01*
X170934285Y-93623809D01*
X170886666Y-93814285D01*
X170839047Y-93909523D01*
X170743809Y-94004761D01*
X170600952Y-94052380D01*
X170362857Y-94052380D01*
X171553333Y-93052380D02*
X171743809Y-93052380D01*
X171839047Y-93100000D01*
X171934285Y-93195238D01*
X171981904Y-93385714D01*
X171981904Y-93719047D01*
X171934285Y-93909523D01*
X171839047Y-94004761D01*
X171743809Y-94052380D01*
X171553333Y-94052380D01*
X171458095Y-94004761D01*
X171362857Y-93909523D01*
X171315238Y-93719047D01*
X171315238Y-93385714D01*
X171362857Y-93195238D01*
X171458095Y-93100000D01*
X171553333Y-93052380D01*
X172315238Y-93052380D02*
X172553333Y-94052380D01*
X172743809Y-93338095D01*
X172934285Y-94052380D01*
X173172380Y-93052380D01*
X173553333Y-94052380D02*
X173553333Y-93052380D01*
X174124761Y-94052380D01*
X174124761Y-93052380D01*
X175124761Y-94052380D02*
X174553333Y-94052380D01*
X174839047Y-94052380D02*
X174839047Y-93052380D01*
X174743809Y-93195238D01*
X174648571Y-93290476D01*
X174553333Y-93338095D01*
%TO.C,RIGHT1*%
X196310476Y-108022380D02*
X195977142Y-107546190D01*
X195739047Y-108022380D02*
X195739047Y-107022380D01*
X196120000Y-107022380D01*
X196215238Y-107070000D01*
X196262857Y-107117619D01*
X196310476Y-107212857D01*
X196310476Y-107355714D01*
X196262857Y-107450952D01*
X196215238Y-107498571D01*
X196120000Y-107546190D01*
X195739047Y-107546190D01*
X196739047Y-108022380D02*
X196739047Y-107022380D01*
X197739047Y-107070000D02*
X197643809Y-107022380D01*
X197500952Y-107022380D01*
X197358095Y-107070000D01*
X197262857Y-107165238D01*
X197215238Y-107260476D01*
X197167619Y-107450952D01*
X197167619Y-107593809D01*
X197215238Y-107784285D01*
X197262857Y-107879523D01*
X197358095Y-107974761D01*
X197500952Y-108022380D01*
X197596190Y-108022380D01*
X197739047Y-107974761D01*
X197786666Y-107927142D01*
X197786666Y-107593809D01*
X197596190Y-107593809D01*
X198215238Y-108022380D02*
X198215238Y-107022380D01*
X198215238Y-107498571D02*
X198786666Y-107498571D01*
X198786666Y-108022380D02*
X198786666Y-107022380D01*
X199120000Y-107022380D02*
X199691428Y-107022380D01*
X199405714Y-108022380D02*
X199405714Y-107022380D01*
X200548571Y-108022380D02*
X199977142Y-108022380D01*
X200262857Y-108022380D02*
X200262857Y-107022380D01*
X200167619Y-107165238D01*
X200072380Y-107260476D01*
X199977142Y-107308095D01*
%TO.C,SELECT1*%
X191917619Y-88474761D02*
X192060476Y-88522380D01*
X192298571Y-88522380D01*
X192393809Y-88474761D01*
X192441428Y-88427142D01*
X192489047Y-88331904D01*
X192489047Y-88236666D01*
X192441428Y-88141428D01*
X192393809Y-88093809D01*
X192298571Y-88046190D01*
X192108095Y-87998571D01*
X192012857Y-87950952D01*
X191965238Y-87903333D01*
X191917619Y-87808095D01*
X191917619Y-87712857D01*
X191965238Y-87617619D01*
X192012857Y-87570000D01*
X192108095Y-87522380D01*
X192346190Y-87522380D01*
X192489047Y-87570000D01*
X192917619Y-87998571D02*
X193250952Y-87998571D01*
X193393809Y-88522380D02*
X192917619Y-88522380D01*
X192917619Y-87522380D01*
X193393809Y-87522380D01*
X194298571Y-88522380D02*
X193822380Y-88522380D01*
X193822380Y-87522380D01*
X194631904Y-87998571D02*
X194965238Y-87998571D01*
X195108095Y-88522380D02*
X194631904Y-88522380D01*
X194631904Y-87522380D01*
X195108095Y-87522380D01*
X196108095Y-88427142D02*
X196060476Y-88474761D01*
X195917619Y-88522380D01*
X195822380Y-88522380D01*
X195679523Y-88474761D01*
X195584285Y-88379523D01*
X195536666Y-88284285D01*
X195489047Y-88093809D01*
X195489047Y-87950952D01*
X195536666Y-87760476D01*
X195584285Y-87665238D01*
X195679523Y-87570000D01*
X195822380Y-87522380D01*
X195917619Y-87522380D01*
X196060476Y-87570000D01*
X196108095Y-87617619D01*
X196393809Y-87522380D02*
X196965238Y-87522380D01*
X196679523Y-88522380D02*
X196679523Y-87522380D01*
X197822380Y-88522380D02*
X197250952Y-88522380D01*
X197536666Y-88522380D02*
X197536666Y-87522380D01*
X197441428Y-87665238D01*
X197346190Y-87760476D01*
X197250952Y-87808095D01*
D12*
%TO.C,_*%
X252007619Y-150240952D02*
X252007619Y-149479047D01*
D11*
%TO.C,P4*%
X315491904Y-92782380D02*
X315491904Y-91782380D01*
X315872857Y-91782380D01*
X315968095Y-91830000D01*
X316015714Y-91877619D01*
X316063333Y-91972857D01*
X316063333Y-92115714D01*
X316015714Y-92210952D01*
X315968095Y-92258571D01*
X315872857Y-92306190D01*
X315491904Y-92306190D01*
X316920476Y-92115714D02*
X316920476Y-92782380D01*
X316682380Y-91734761D02*
X316444285Y-92449047D01*
X317063333Y-92449047D01*
%TO.C,K1*%
X232941904Y-128342380D02*
X232941904Y-127342380D01*
X233513333Y-128342380D02*
X233084761Y-127770952D01*
X233513333Y-127342380D02*
X232941904Y-127913809D01*
X234465714Y-128342380D02*
X233894285Y-128342380D01*
X234180000Y-128342380D02*
X234180000Y-127342380D01*
X234084761Y-127485238D01*
X233989523Y-127580476D01*
X233894285Y-127628095D01*
%TO.C,RUN1*%
X305415714Y-87542380D02*
X305082380Y-87066190D01*
X304844285Y-87542380D02*
X304844285Y-86542380D01*
X305225238Y-86542380D01*
X305320476Y-86590000D01*
X305368095Y-86637619D01*
X305415714Y-86732857D01*
X305415714Y-86875714D01*
X305368095Y-86970952D01*
X305320476Y-87018571D01*
X305225238Y-87066190D01*
X304844285Y-87066190D01*
X305844285Y-86542380D02*
X305844285Y-87351904D01*
X305891904Y-87447142D01*
X305939523Y-87494761D01*
X306034761Y-87542380D01*
X306225238Y-87542380D01*
X306320476Y-87494761D01*
X306368095Y-87447142D01*
X306415714Y-87351904D01*
X306415714Y-86542380D01*
X306891904Y-87542380D02*
X306891904Y-86542380D01*
X307463333Y-87542380D01*
X307463333Y-86542380D01*
X308463333Y-87542380D02*
X307891904Y-87542380D01*
X308177619Y-87542380D02*
X308177619Y-86542380D01*
X308082380Y-86685238D01*
X307987142Y-86780476D01*
X307891904Y-86828095D01*
%TO.C,P2*%
X258341904Y-85162380D02*
X258341904Y-84162380D01*
X258722857Y-84162380D01*
X258818095Y-84210000D01*
X258865714Y-84257619D01*
X258913333Y-84352857D01*
X258913333Y-84495714D01*
X258865714Y-84590952D01*
X258818095Y-84638571D01*
X258722857Y-84686190D01*
X258341904Y-84686190D01*
X259294285Y-84257619D02*
X259341904Y-84210000D01*
X259437142Y-84162380D01*
X259675238Y-84162380D01*
X259770476Y-84210000D01*
X259818095Y-84257619D01*
X259865714Y-84352857D01*
X259865714Y-84448095D01*
X259818095Y-84590952D01*
X259246666Y-85162380D01*
X259865714Y-85162380D01*
%TO.C,LEFT1*%
X143351428Y-94052380D02*
X142875238Y-94052380D01*
X142875238Y-93052380D01*
X143684761Y-93528571D02*
X144018095Y-93528571D01*
X144160952Y-94052380D02*
X143684761Y-94052380D01*
X143684761Y-93052380D01*
X144160952Y-93052380D01*
X144922857Y-93528571D02*
X144589523Y-93528571D01*
X144589523Y-94052380D02*
X144589523Y-93052380D01*
X145065714Y-93052380D01*
X145303809Y-93052380D02*
X145875238Y-93052380D01*
X145589523Y-94052380D02*
X145589523Y-93052380D01*
X146732380Y-94052380D02*
X146160952Y-94052380D01*
X146446666Y-94052380D02*
X146446666Y-93052380D01*
X146351428Y-93195238D01*
X146256190Y-93290476D01*
X146160952Y-93338095D01*
%TO.C,P1*%
X232941904Y-99132380D02*
X232941904Y-98132380D01*
X233322857Y-98132380D01*
X233418095Y-98180000D01*
X233465714Y-98227619D01*
X233513333Y-98322857D01*
X233513333Y-98465714D01*
X233465714Y-98560952D01*
X233418095Y-98608571D01*
X233322857Y-98656190D01*
X232941904Y-98656190D01*
X234465714Y-99132380D02*
X233894285Y-99132380D01*
X234180000Y-99132380D02*
X234180000Y-98132380D01*
X234084761Y-98275238D01*
X233989523Y-98370476D01*
X233894285Y-98418095D01*
%TO.C,L3*%
X143903333Y-88522380D02*
X143427142Y-88522380D01*
X143427142Y-87522380D01*
X144141428Y-87522380D02*
X144760476Y-87522380D01*
X144427142Y-87903333D01*
X144570000Y-87903333D01*
X144665238Y-87950952D01*
X144712857Y-87998571D01*
X144760476Y-88093809D01*
X144760476Y-88331904D01*
X144712857Y-88427142D01*
X144665238Y-88474761D01*
X144570000Y-88522380D01*
X144284285Y-88522380D01*
X144189047Y-88474761D01*
X144141428Y-88427142D01*
%TO.C,M3.3*%
X128016190Y-166432380D02*
X128016190Y-165432380D01*
X128349523Y-166146666D01*
X128682857Y-165432380D01*
X128682857Y-166432380D01*
X129063809Y-165432380D02*
X129682857Y-165432380D01*
X129349523Y-165813333D01*
X129492380Y-165813333D01*
X129587619Y-165860952D01*
X129635238Y-165908571D01*
X129682857Y-166003809D01*
X129682857Y-166241904D01*
X129635238Y-166337142D01*
X129587619Y-166384761D01*
X129492380Y-166432380D01*
X129206666Y-166432380D01*
X129111428Y-166384761D01*
X129063809Y-166337142D01*
X130111428Y-166337142D02*
X130159047Y-166384761D01*
X130111428Y-166432380D01*
X130063809Y-166384761D01*
X130111428Y-166337142D01*
X130111428Y-166432380D01*
X130492380Y-165432380D02*
X131111428Y-165432380D01*
X130778095Y-165813333D01*
X130920952Y-165813333D01*
X131016190Y-165860952D01*
X131063809Y-165908571D01*
X131111428Y-166003809D01*
X131111428Y-166241904D01*
X131063809Y-166337142D01*
X131016190Y-166384761D01*
X130920952Y-166432380D01*
X130635238Y-166432380D01*
X130540000Y-166384761D01*
X130492380Y-166337142D01*
%TO.C,START1*%
X205117619Y-88474761D02*
X205260476Y-88522380D01*
X205498571Y-88522380D01*
X205593809Y-88474761D01*
X205641428Y-88427142D01*
X205689047Y-88331904D01*
X205689047Y-88236666D01*
X205641428Y-88141428D01*
X205593809Y-88093809D01*
X205498571Y-88046190D01*
X205308095Y-87998571D01*
X205212857Y-87950952D01*
X205165238Y-87903333D01*
X205117619Y-87808095D01*
X205117619Y-87712857D01*
X205165238Y-87617619D01*
X205212857Y-87570000D01*
X205308095Y-87522380D01*
X205546190Y-87522380D01*
X205689047Y-87570000D01*
X205974761Y-87522380D02*
X206546190Y-87522380D01*
X206260476Y-88522380D02*
X206260476Y-87522380D01*
X206831904Y-88236666D02*
X207308095Y-88236666D01*
X206736666Y-88522380D02*
X207070000Y-87522380D01*
X207403333Y-88522380D01*
X208308095Y-88522380D02*
X207974761Y-88046190D01*
X207736666Y-88522380D02*
X207736666Y-87522380D01*
X208117619Y-87522380D01*
X208212857Y-87570000D01*
X208260476Y-87617619D01*
X208308095Y-87712857D01*
X208308095Y-87855714D01*
X208260476Y-87950952D01*
X208212857Y-87998571D01*
X208117619Y-88046190D01*
X207736666Y-88046190D01*
X208593809Y-87522380D02*
X209165238Y-87522380D01*
X208879523Y-88522380D02*
X208879523Y-87522380D01*
X210022380Y-88522380D02*
X209450952Y-88522380D01*
X209736666Y-88522380D02*
X209736666Y-87522380D01*
X209641428Y-87665238D01*
X209546190Y-87760476D01*
X209450952Y-87808095D01*
D12*
%TO.C,0*%
X271732380Y-155662380D02*
X271827619Y-155662380D01*
X271922857Y-155710000D01*
X271970476Y-155757619D01*
X272018095Y-155852857D01*
X272065714Y-156043333D01*
X272065714Y-156281428D01*
X272018095Y-156471904D01*
X271970476Y-156567142D01*
X271922857Y-156614761D01*
X271827619Y-156662380D01*
X271732380Y-156662380D01*
X271637142Y-156614761D01*
X271589523Y-156567142D01*
X271541904Y-156471904D01*
X271494285Y-156281428D01*
X271494285Y-156043333D01*
X271541904Y-155852857D01*
X271589523Y-155757619D01*
X271637142Y-155710000D01*
X271732380Y-155662380D01*
D11*
%TO.C,M3.5*%
X232156190Y-166432380D02*
X232156190Y-165432380D01*
X232489523Y-166146666D01*
X232822857Y-165432380D01*
X232822857Y-166432380D01*
X233203809Y-165432380D02*
X233822857Y-165432380D01*
X233489523Y-165813333D01*
X233632380Y-165813333D01*
X233727619Y-165860952D01*
X233775238Y-165908571D01*
X233822857Y-166003809D01*
X233822857Y-166241904D01*
X233775238Y-166337142D01*
X233727619Y-166384761D01*
X233632380Y-166432380D01*
X233346666Y-166432380D01*
X233251428Y-166384761D01*
X233203809Y-166337142D01*
X234251428Y-166337142D02*
X234299047Y-166384761D01*
X234251428Y-166432380D01*
X234203809Y-166384761D01*
X234251428Y-166337142D01*
X234251428Y-166432380D01*
X235203809Y-165432380D02*
X234727619Y-165432380D01*
X234680000Y-165908571D01*
X234727619Y-165860952D01*
X234822857Y-165813333D01*
X235060952Y-165813333D01*
X235156190Y-165860952D01*
X235203809Y-165908571D01*
X235251428Y-166003809D01*
X235251428Y-166241904D01*
X235203809Y-166337142D01*
X235156190Y-166384761D01*
X235060952Y-166432380D01*
X234822857Y-166432380D01*
X234727619Y-166384761D01*
X234680000Y-166337142D01*
%TO.C,UP1*%
X209558095Y-154012380D02*
X209558095Y-154821904D01*
X209605714Y-154917142D01*
X209653333Y-154964761D01*
X209748571Y-155012380D01*
X209939047Y-155012380D01*
X210034285Y-154964761D01*
X210081904Y-154917142D01*
X210129523Y-154821904D01*
X210129523Y-154012380D01*
X210605714Y-155012380D02*
X210605714Y-154012380D01*
X210986666Y-154012380D01*
X211081904Y-154060000D01*
X211129523Y-154107619D01*
X211177142Y-154202857D01*
X211177142Y-154345714D01*
X211129523Y-154440952D01*
X211081904Y-154488571D01*
X210986666Y-154536190D01*
X210605714Y-154536190D01*
X212129523Y-155012380D02*
X211558095Y-155012380D01*
X211843809Y-155012380D02*
X211843809Y-154012380D01*
X211748571Y-154155238D01*
X211653333Y-154250476D01*
X211558095Y-154298095D01*
%TO.C,M3.2*%
X321056190Y-86652380D02*
X321056190Y-85652380D01*
X321389523Y-86366666D01*
X321722857Y-85652380D01*
X321722857Y-86652380D01*
X322103809Y-85652380D02*
X322722857Y-85652380D01*
X322389523Y-86033333D01*
X322532380Y-86033333D01*
X322627619Y-86080952D01*
X322675238Y-86128571D01*
X322722857Y-86223809D01*
X322722857Y-86461904D01*
X322675238Y-86557142D01*
X322627619Y-86604761D01*
X322532380Y-86652380D01*
X322246666Y-86652380D01*
X322151428Y-86604761D01*
X322103809Y-86557142D01*
X323151428Y-86557142D02*
X323199047Y-86604761D01*
X323151428Y-86652380D01*
X323103809Y-86604761D01*
X323151428Y-86557142D01*
X323151428Y-86652380D01*
X323580000Y-85747619D02*
X323627619Y-85700000D01*
X323722857Y-85652380D01*
X323960952Y-85652380D01*
X324056190Y-85700000D01*
X324103809Y-85747619D01*
X324151428Y-85842857D01*
X324151428Y-85938095D01*
X324103809Y-86080952D01*
X323532380Y-86652380D01*
X324151428Y-86652380D01*
%TO.C,K4*%
X315491904Y-121992380D02*
X315491904Y-120992380D01*
X316063333Y-121992380D02*
X315634761Y-121420952D01*
X316063333Y-120992380D02*
X315491904Y-121563809D01*
X316920476Y-121325714D02*
X316920476Y-121992380D01*
X316682380Y-120944761D02*
X316444285Y-121659047D01*
X317063333Y-121659047D01*
D12*
%TO.C,O*%
X232314761Y-155662380D02*
X232505238Y-155662380D01*
X232600476Y-155710000D01*
X232695714Y-155805238D01*
X232743333Y-155995714D01*
X232743333Y-156329047D01*
X232695714Y-156519523D01*
X232600476Y-156614761D01*
X232505238Y-156662380D01*
X232314761Y-156662380D01*
X232219523Y-156614761D01*
X232124285Y-156519523D01*
X232076666Y-156329047D01*
X232076666Y-155995714D01*
X232124285Y-155805238D01*
X232219523Y-155710000D01*
X232314761Y-155662380D01*
D13*
%TO.C,U1*%
X179278000Y-136820000D02*
X179278000Y-139827000D01*
X156645000Y-136820000D02*
X156245000Y-136820000D01*
X146445000Y-157820000D02*
X146045000Y-157820000D01*
X141345000Y-136820000D02*
X140945000Y-136820000D01*
X179545000Y-157820000D02*
X179145000Y-157820000D01*
X130945000Y-145820000D02*
X130945000Y-146220000D01*
X161745000Y-136820000D02*
X161345000Y-136820000D01*
X181945000Y-157820000D02*
X181645000Y-157820000D01*
X159145000Y-136820000D02*
X158745000Y-136820000D01*
X156645000Y-157820000D02*
X156245000Y-157820000D01*
X143945000Y-157820000D02*
X143545000Y-157820000D01*
X136345000Y-157820000D02*
X135945000Y-157820000D01*
X159145000Y-157820000D02*
X158745000Y-157820000D01*
X154145000Y-136820000D02*
X153745000Y-136820000D01*
X171845000Y-136820000D02*
X171445000Y-136820000D01*
X166845000Y-157820000D02*
X166445000Y-157820000D01*
X154145000Y-157820000D02*
X153745000Y-157820000D01*
X136345000Y-136820000D02*
X135945000Y-136820000D01*
X141345000Y-157820000D02*
X140945000Y-157820000D01*
X176945000Y-157820000D02*
X176545000Y-157820000D01*
X171845000Y-157820000D02*
X171445000Y-157820000D01*
X166845000Y-136820000D02*
X166445000Y-136820000D01*
X181945000Y-136820000D02*
X181645000Y-136820000D01*
X174445000Y-136820000D02*
X174045000Y-136820000D01*
X151545000Y-157820000D02*
X151145000Y-157820000D01*
X176945000Y-136820000D02*
X176545000Y-136820000D01*
X133745000Y-157820000D02*
X133345000Y-157820000D01*
X151545000Y-136820000D02*
X151145000Y-136820000D01*
X130945000Y-157820000D02*
X130945000Y-151020000D01*
X174445000Y-157820000D02*
X174045000Y-157820000D01*
X179545000Y-136820000D02*
X179145000Y-136820000D01*
X149045000Y-136820000D02*
X148645000Y-136820000D01*
X130945000Y-143620000D02*
X130945000Y-136820000D01*
X169345000Y-136820000D02*
X168945000Y-136820000D01*
X146445000Y-136820000D02*
X146045000Y-136820000D01*
X179278000Y-139827000D02*
X181945000Y-139827000D01*
X181945000Y-136820000D02*
X181945000Y-157820000D01*
X164245000Y-136820000D02*
X163845000Y-136820000D01*
X164245000Y-157820000D02*
X163845000Y-157820000D01*
X169345000Y-157820000D02*
X168945000Y-157820000D01*
X138845000Y-157820000D02*
X138445000Y-157820000D01*
X149045000Y-157820000D02*
X148645000Y-157820000D01*
X138845000Y-136820000D02*
X138445000Y-136820000D01*
X161745000Y-157820000D02*
X161345000Y-157820000D01*
X133745000Y-136820000D02*
X133345000Y-136820000D01*
X143945000Y-136820000D02*
X143545000Y-136820000D01*
X130945000Y-148420000D02*
X130945000Y-148820000D01*
%TO.C,A1*%
X184420000Y-80570000D02*
X179920000Y-80570000D01*
X185670000Y-84570000D02*
X185670000Y-83070000D01*
X178670000Y-83070000D02*
X178670000Y-84570000D01*
X179920000Y-87070000D02*
X184420000Y-87070000D01*
%TO.C,P3*%
X281190000Y-85610000D02*
X281190000Y-99810000D01*
X295390000Y-85610000D02*
X281190000Y-85610000D01*
X295390000Y-99810000D02*
X295390000Y-85610000D01*
X281190000Y-99810000D02*
X295390000Y-99810000D01*
%TO.C,A2*%
X167220000Y-87070000D02*
X171720000Y-87070000D01*
X172970000Y-84570000D02*
X172970000Y-83070000D01*
X171720000Y-80570000D02*
X167220000Y-80570000D01*
X165970000Y-83070000D02*
X165970000Y-84570000D01*
%TO.C,K3*%
X295390000Y-114820000D02*
X281190000Y-114820000D01*
X281190000Y-114820000D02*
X281190000Y-129020000D01*
X281190000Y-129020000D02*
X295390000Y-129020000D01*
X295390000Y-129020000D02*
X295390000Y-114820000D01*
%TO.C,K2*%
X266180000Y-129020000D02*
X266180000Y-114820000D01*
X251980000Y-114820000D02*
X251980000Y-129020000D01*
X251980000Y-129020000D02*
X266180000Y-129020000D01*
X266180000Y-114820000D02*
X251980000Y-114820000D01*
%TO.C,R3*%
X153270000Y-83070000D02*
X153270000Y-84570000D01*
X159020000Y-80570000D02*
X154520000Y-80570000D01*
X160270000Y-84570000D02*
X160270000Y-83070000D01*
X154520000Y-87070000D02*
X159020000Y-87070000D01*
%TO.C,DOWN1*%
X179820000Y-108700000D02*
X179820000Y-94500000D01*
X179820000Y-94500000D02*
X165620000Y-94500000D01*
X165620000Y-108700000D02*
X179820000Y-108700000D01*
X165620000Y-94500000D02*
X165620000Y-108700000D01*
%TO.C,RIGHT1*%
X191020000Y-122670000D02*
X205220000Y-122670000D01*
X205220000Y-122670000D02*
X205220000Y-108470000D01*
X205220000Y-108470000D02*
X191020000Y-108470000D01*
X191020000Y-108470000D02*
X191020000Y-122670000D01*
%TO.C,SELECT1*%
X198370000Y-84570000D02*
X198370000Y-83070000D01*
X192620000Y-87070000D02*
X197120000Y-87070000D01*
X197120000Y-80570000D02*
X192620000Y-80570000D01*
X191370000Y-83070000D02*
X191370000Y-84570000D01*
%TO.C,_*%
G36*
X281599517Y-160731873D02*
G01*
X281825617Y-160316481D01*
X282086191Y-159854120D01*
X282367779Y-159369165D01*
X282656919Y-158885994D01*
X282875202Y-158532156D01*
X283550859Y-157453453D01*
X283413839Y-156471893D01*
X283328358Y-155496006D01*
X283363051Y-154606984D01*
X283522586Y-153767868D01*
X283811631Y-152941697D01*
X283879109Y-152788565D01*
X284113201Y-152273000D01*
X284178151Y-152779511D01*
X284245811Y-153152328D01*
X284347749Y-153534139D01*
X284468100Y-153878219D01*
X284590997Y-154137846D01*
X284677891Y-154251234D01*
X284731419Y-154268370D01*
X284747623Y-154182583D01*
X284727897Y-153968968D01*
X284703362Y-153795492D01*
X284677533Y-153108305D01*
X284788977Y-152349733D01*
X285031861Y-151538911D01*
X285400351Y-150694974D01*
X285888610Y-149837057D01*
X285930063Y-149772423D01*
X286111111Y-149506738D01*
X286322069Y-149227737D01*
X286577948Y-148918566D01*
X286893757Y-148562372D01*
X287284504Y-148142302D01*
X287765201Y-147641502D01*
X288350857Y-147043120D01*
X288453526Y-146939000D01*
X289211362Y-146163159D01*
X289856612Y-145484348D01*
X290403022Y-144886839D01*
X290864334Y-144354903D01*
X291254296Y-143872814D01*
X291586650Y-143424842D01*
X291804774Y-143104248D01*
X292004144Y-142848133D01*
X292161802Y-142753466D01*
X292277967Y-142820774D01*
X292352857Y-143050587D01*
X292386690Y-143443431D01*
X292379683Y-143999837D01*
X292354287Y-144436139D01*
X292326652Y-144855685D01*
X292307693Y-145210189D01*
X292298785Y-145467750D01*
X292301304Y-145596461D01*
X292303915Y-145604804D01*
X292340989Y-145545467D01*
X292411370Y-145360429D01*
X292501291Y-145086647D01*
X292521937Y-145019467D01*
X292819075Y-144207363D01*
X293200894Y-143479053D01*
X293695556Y-142787214D01*
X294169479Y-142251244D01*
X294997303Y-141480854D01*
X295867685Y-140862722D01*
X296770991Y-140403115D01*
X297302124Y-140212886D01*
X297598699Y-140133411D01*
X297982480Y-140045397D01*
X298406744Y-139957852D01*
X298824770Y-139879786D01*
X299189835Y-139820206D01*
X299455218Y-139788121D01*
X299521356Y-139785007D01*
X299539070Y-139851505D01*
X299479302Y-140028949D01*
X299382248Y-140229166D01*
X299197004Y-140590845D01*
X299103497Y-140813706D01*
X299103596Y-140902454D01*
X299199175Y-140861791D01*
X299392103Y-140696422D01*
X299519602Y-140574360D01*
X299820907Y-140310792D01*
X300150279Y-140069613D01*
X300438339Y-139901443D01*
X300448104Y-139896912D01*
X300664856Y-139803001D01*
X300843888Y-139749613D01*
X301036104Y-139732364D01*
X301292407Y-139746871D01*
X301663702Y-139788748D01*
X301680394Y-139790776D01*
X302245568Y-139874876D01*
X302824350Y-139987614D01*
X303360416Y-140116472D01*
X303797443Y-140248935D01*
X303881534Y-140279948D01*
X304112342Y-140453976D01*
X304239940Y-140750188D01*
X304267065Y-141158673D01*
X304196450Y-141669516D01*
X304030831Y-142272807D01*
X303772943Y-142958633D01*
X303425521Y-143717080D01*
X302991300Y-144538238D01*
X302473014Y-145412192D01*
X302459465Y-145433895D01*
X302035383Y-146064196D01*
X301606195Y-146591117D01*
X301150402Y-147026157D01*
X300646505Y-147380815D01*
X300073007Y-147666592D01*
X299408410Y-147894988D01*
X298631215Y-148077502D01*
X297719924Y-148225634D01*
X297095333Y-148303306D01*
X296545000Y-148365809D01*
X297010666Y-148476327D01*
X297330570Y-148538016D01*
X297736087Y-148596786D01*
X298143738Y-148640665D01*
X298174833Y-148643246D01*
X298494513Y-148675675D01*
X298737284Y-148712899D01*
X298863795Y-148748401D01*
X298873333Y-148758935D01*
X298812772Y-148852392D01*
X298651809Y-149024102D01*
X298421526Y-149245615D01*
X298153004Y-149488479D01*
X297877324Y-149724241D01*
X297625567Y-149924452D01*
X297504806Y-150011675D01*
X296889868Y-150382457D01*
X296135755Y-150755054D01*
X295272046Y-151117267D01*
X294328317Y-151456899D01*
X293334146Y-151761749D01*
X293116000Y-151821752D01*
X292735000Y-151924387D01*
X294915306Y-152188333D01*
X294402238Y-152586074D01*
X294177487Y-152784382D01*
X293876541Y-153084395D01*
X293528548Y-153455239D01*
X293162656Y-153866042D01*
X292882013Y-154196240D01*
X292448855Y-154712302D01*
X292099398Y-155113852D01*
X291813755Y-155420332D01*
X291572041Y-155651185D01*
X291354372Y-155825852D01*
X291140860Y-155963775D01*
X290991381Y-156044723D01*
X290752173Y-156141882D01*
X290380526Y-156261976D01*
X289910193Y-156395469D01*
X289374925Y-156532822D01*
X288808474Y-156664498D01*
X288761842Y-156674715D01*
X288514018Y-156728750D01*
X288937766Y-156970763D01*
X289307284Y-157224219D01*
X289625890Y-157521356D01*
X289855945Y-157822569D01*
X289949944Y-158035829D01*
X289978310Y-158207810D01*
X289968700Y-158284854D01*
X289876475Y-158279451D01*
X289669002Y-158231385D01*
X289400655Y-158153911D01*
X288967993Y-158042200D01*
X288568233Y-157998519D01*
X288143598Y-158022727D01*
X287636311Y-158114682D01*
X287485666Y-158149217D01*
X287114717Y-158233652D01*
X286759834Y-158309033D01*
X286490337Y-158360711D01*
X286463290Y-158365233D01*
X286227976Y-158377152D01*
X285947420Y-158355348D01*
X285671569Y-158308909D01*
X285450373Y-158246924D01*
X285333781Y-158178479D01*
X285326666Y-158158432D01*
X285371335Y-158062594D01*
X285495144Y-157850097D01*
X285682795Y-157544840D01*
X285918992Y-157170717D01*
X286188437Y-156751625D01*
X286475832Y-156311461D01*
X286765881Y-155874119D01*
X287043286Y-155463498D01*
X287167294Y-155283145D01*
X287656545Y-154594071D01*
X288224375Y-153823476D01*
X288836521Y-153016099D01*
X289458722Y-152216674D01*
X290056716Y-151469940D01*
X290477722Y-150960666D01*
X290778734Y-150616264D01*
X291176870Y-150181045D01*
X291654086Y-149673182D01*
X292192339Y-149110846D01*
X292773583Y-148512209D01*
X293379775Y-147895443D01*
X293992871Y-147278719D01*
X294594825Y-146680210D01*
X295167595Y-146118087D01*
X295693136Y-145610521D01*
X296153403Y-145175685D01*
X296530353Y-144831750D01*
X296759387Y-144634601D01*
X297263309Y-144237568D01*
X297844153Y-143808345D01*
X298457691Y-143377497D01*
X299059697Y-142975591D01*
X299605944Y-142633192D01*
X299910500Y-142456830D01*
X300222649Y-142279191D01*
X300411752Y-142161055D01*
X300471635Y-142108024D01*
X300396121Y-142125698D01*
X300179037Y-142219680D01*
X300164500Y-142226416D01*
X299276349Y-142686174D01*
X298313196Y-143271052D01*
X297294583Y-143965691D01*
X296240056Y-144754732D01*
X295169158Y-145622814D01*
X294101434Y-146554579D01*
X293056428Y-147534668D01*
X292053684Y-148547719D01*
X291860287Y-148752549D01*
X290971909Y-149723142D01*
X290080682Y-150738661D01*
X289197846Y-151783995D01*
X288334639Y-152844031D01*
X287502298Y-153903657D01*
X286712064Y-154947760D01*
X285975174Y-155961230D01*
X285302866Y-156928953D01*
X284706379Y-157835817D01*
X284196952Y-158666710D01*
X283785823Y-159406520D01*
X283508886Y-159982567D01*
X283385214Y-160248481D01*
X283265971Y-160424355D01*
X283103820Y-160556493D01*
X282851418Y-160691197D01*
X282721085Y-160753116D01*
X282355994Y-160932769D01*
X281976847Y-161132118D01*
X281707166Y-161283996D01*
X281476559Y-161406789D01*
X281315881Y-161465838D01*
X281262666Y-161452454D01*
X281304581Y-161324236D01*
X281406803Y-161106855D01*
X281646339Y-161106855D01*
X281659284Y-161105495D01*
X281761297Y-161055211D01*
X281976931Y-160948040D01*
X282268344Y-160802806D01*
X282429369Y-160722433D01*
X283130404Y-160372354D01*
X283595424Y-159457151D01*
X283908051Y-158884796D01*
X284316274Y-158204935D01*
X284805435Y-157438585D01*
X285360880Y-156606764D01*
X285967952Y-155730490D01*
X286611996Y-154830781D01*
X287278355Y-153928654D01*
X287952373Y-153045128D01*
X288619395Y-152201221D01*
X288870681Y-151892000D01*
X290099364Y-150443966D01*
X291353954Y-149064171D01*
X292622342Y-147763297D01*
X293892413Y-146552023D01*
X295152057Y-145441033D01*
X296389161Y-144441007D01*
X297591613Y-143562627D01*
X298747301Y-142816575D01*
X299844112Y-142213532D01*
X299847000Y-142212099D01*
X300314295Y-141989297D01*
X300780381Y-141783168D01*
X301218414Y-141603888D01*
X301601553Y-141461632D01*
X301902955Y-141366578D01*
X302095780Y-141328901D01*
X302149422Y-141339200D01*
X302175159Y-141364306D01*
X302179895Y-141389226D01*
X302143075Y-141426514D01*
X302044143Y-141488725D01*
X301862543Y-141588414D01*
X301577717Y-141738135D01*
X301169110Y-141950442D01*
X301032333Y-142021456D01*
X300056876Y-142563703D01*
X299047055Y-143189715D01*
X298056407Y-143863607D01*
X297138470Y-144549494D01*
X296587333Y-145000836D01*
X296161362Y-145377762D01*
X295645113Y-145854753D01*
X295063192Y-146407468D01*
X294440199Y-147011568D01*
X293800739Y-147642712D01*
X293169414Y-148276560D01*
X292570828Y-148888773D01*
X292029583Y-149455011D01*
X291570283Y-149950933D01*
X291461685Y-150071666D01*
X290884306Y-150735879D01*
X290249100Y-151496344D01*
X289591994Y-152308301D01*
X288948917Y-153126991D01*
X288355795Y-153907656D01*
X288063598Y-154305000D01*
X287695788Y-154819223D01*
X287321138Y-155355459D01*
X286952450Y-155894159D01*
X286602524Y-156415778D01*
X286284165Y-156900767D01*
X286010173Y-157329579D01*
X285793352Y-157682669D01*
X285646502Y-157940488D01*
X285582426Y-158083490D01*
X285580666Y-158096084D01*
X285657688Y-158159466D01*
X285862378Y-158195646D01*
X286155171Y-158204012D01*
X286496501Y-158183950D01*
X286846804Y-158134847D01*
X286935333Y-158117062D01*
X287519784Y-157993870D01*
X287974935Y-157908668D01*
X288336269Y-157860458D01*
X288639267Y-157848242D01*
X288919414Y-157871021D01*
X289212193Y-157927797D01*
X289553086Y-158017573D01*
X289636060Y-158041081D01*
X289839120Y-158098985D01*
X289683849Y-157836132D01*
X289500959Y-157593944D01*
X289232546Y-157359075D01*
X288850110Y-157109171D01*
X288524918Y-156927026D01*
X288040170Y-156666970D01*
X289103549Y-156434628D01*
X289730798Y-156292199D01*
X290222159Y-156163821D01*
X290608717Y-156035383D01*
X290921558Y-155892774D01*
X291191770Y-155721882D01*
X291450437Y-155508596D01*
X291721205Y-155246350D01*
X292025793Y-154924374D01*
X292383908Y-154525358D01*
X292745353Y-154106107D01*
X292991205Y-153809129D01*
X293292401Y-153451579D01*
X293601268Y-153109884D01*
X293879803Y-152824736D01*
X294075368Y-152648299D01*
X294293638Y-152469330D01*
X294392545Y-152366158D01*
X294387436Y-152311975D01*
X294293654Y-152279973D01*
X294287035Y-152278501D01*
X294139282Y-152254440D01*
X293863588Y-152216529D01*
X293500305Y-152169671D01*
X293089784Y-152118767D01*
X292672377Y-152068718D01*
X292288434Y-152024426D01*
X291978309Y-151990793D01*
X291782351Y-151972720D01*
X291757918Y-151971290D01*
X291785150Y-151953219D01*
X291950912Y-151908021D01*
X292227845Y-151842544D01*
X292583210Y-151764772D01*
X293645053Y-151503892D01*
X294665430Y-151183851D01*
X295621816Y-150814881D01*
X296491683Y-150407211D01*
X297252504Y-149971071D01*
X297881754Y-149516693D01*
X298221261Y-149204317D01*
X298542856Y-148870806D01*
X297800203Y-148766914D01*
X297379816Y-148700984D01*
X296922330Y-148617564D01*
X296464923Y-148524767D01*
X296044779Y-148430707D01*
X295699076Y-148343497D01*
X295464996Y-148271250D01*
X295402000Y-148243594D01*
X295418773Y-148210562D01*
X295586356Y-148185989D01*
X295886348Y-148171846D01*
X296096163Y-148169241D01*
X296992483Y-148134873D01*
X297881017Y-148041809D01*
X298726134Y-147896755D01*
X299492200Y-147706416D01*
X300143586Y-147477497D01*
X300397333Y-147359843D01*
X300906464Y-147020783D01*
X301429700Y-146519739D01*
X301962183Y-145862998D01*
X302499054Y-145056845D01*
X303035457Y-144107565D01*
X303274587Y-143637000D01*
X303570155Y-143018199D01*
X303788994Y-142512340D01*
X303942615Y-142087839D01*
X304042533Y-141713115D01*
X304097634Y-141379244D01*
X304114071Y-140960085D01*
X304042239Y-140666436D01*
X303874947Y-140475150D01*
X303803940Y-140433697D01*
X303503903Y-140317822D01*
X303073290Y-140198583D01*
X302550412Y-140084884D01*
X301973580Y-139985626D01*
X301723934Y-139950319D01*
X301344648Y-139905367D01*
X301078549Y-139891926D01*
X300872010Y-139912397D01*
X300671407Y-139969180D01*
X300584143Y-140001325D01*
X300326244Y-140144067D01*
X300004391Y-140385453D01*
X299657137Y-140689345D01*
X299323035Y-141019605D01*
X299040636Y-141340095D01*
X298848492Y-141614676D01*
X298833646Y-141642214D01*
X298732779Y-141811108D01*
X298662583Y-141882100D01*
X298654198Y-141879753D01*
X298656556Y-141781858D01*
X298706665Y-141568433D01*
X298791020Y-141281813D01*
X298896118Y-140964333D01*
X299008455Y-140658331D01*
X299114529Y-140406142D01*
X299142778Y-140347962D01*
X299236941Y-140142713D01*
X299278538Y-140010221D01*
X299275867Y-139989644D01*
X299172637Y-139982126D01*
X298942939Y-140009539D01*
X298624210Y-140064291D01*
X298253890Y-140138788D01*
X297869415Y-140225437D01*
X297508224Y-140316643D01*
X297207754Y-140404813D01*
X297174447Y-140415879D01*
X296320837Y-140785401D01*
X295488481Y-141298953D01*
X294706309Y-141931409D01*
X294003251Y-142657638D01*
X293408235Y-143452514D01*
X293124966Y-143933333D01*
X292751228Y-144800395D01*
X292521014Y-145710098D01*
X292463731Y-146173374D01*
X292410863Y-146847082D01*
X292289870Y-146512041D01*
X292244483Y-146344835D01*
X292214581Y-146121993D01*
X292199078Y-145817296D01*
X292196888Y-145404525D01*
X292206925Y-144857462D01*
X292212607Y-144647481D01*
X292223130Y-144150567D01*
X292225529Y-143709002D01*
X292220201Y-143351967D01*
X292207547Y-143108645D01*
X292190188Y-143010934D01*
X292113884Y-143008592D01*
X291972350Y-143150302D01*
X291761707Y-143439785D01*
X291513863Y-143795783D01*
X291254614Y-144144021D01*
X290968629Y-144501909D01*
X290640575Y-144886859D01*
X290255118Y-145316281D01*
X289796927Y-145807585D01*
X289250668Y-146378183D01*
X288601009Y-147045485D01*
X288456419Y-147193000D01*
X287964073Y-147699590D01*
X287496804Y-148189332D01*
X287071539Y-148643805D01*
X286705205Y-149044589D01*
X286414731Y-149373263D01*
X286217044Y-149611407D01*
X286150890Y-149701829D01*
X285849197Y-150201090D01*
X285552073Y-150760065D01*
X285287375Y-151321690D01*
X285082961Y-151828907D01*
X285019642Y-152019000D01*
X284914986Y-152512057D01*
X284866061Y-153079901D01*
X284872071Y-153664660D01*
X284932222Y-154208465D01*
X285045716Y-154653445D01*
X285056250Y-154680953D01*
X285148422Y-154932647D01*
X285201120Y-155113055D01*
X285205291Y-155174264D01*
X285143240Y-155129648D01*
X285014540Y-154981838D01*
X284847247Y-154768012D01*
X284669416Y-154525351D01*
X284509102Y-154291033D01*
X284394361Y-154102237D01*
X284389624Y-154093333D01*
X284306017Y-153895529D01*
X284206973Y-153606985D01*
X284139751Y-153381304D01*
X284001212Y-152880941D01*
X283865955Y-153218981D01*
X283737862Y-153612701D01*
X283620695Y-154101692D01*
X283528170Y-154614786D01*
X283474007Y-155080814D01*
X283465551Y-155296263D01*
X283478634Y-155577103D01*
X283512501Y-155963197D01*
X283561234Y-156392584D01*
X283592925Y-156629656D01*
X283718748Y-157514980D01*
X283410335Y-157979483D01*
X283142378Y-158393305D01*
X282864578Y-158840228D01*
X282588864Y-159298960D01*
X282327163Y-159748205D01*
X282091404Y-160166671D01*
X281893514Y-160533063D01*
X281745421Y-160826087D01*
X281659053Y-161024449D01*
X281646339Y-161106855D01*
X281406803Y-161106855D01*
X281421351Y-161075917D01*
X281599517Y-160731873D01*
G37*
%TO.C,P4*%
X323330000Y-107430000D02*
X323330000Y-93230000D01*
X309130000Y-107430000D02*
X323330000Y-107430000D01*
X309130000Y-93230000D02*
X309130000Y-107430000D01*
X323330000Y-93230000D02*
X309130000Y-93230000D01*
%TO.C,K1*%
X240780000Y-128790000D02*
X226580000Y-128790000D01*
X240780000Y-142990000D02*
X240780000Y-128790000D01*
X226580000Y-128790000D02*
X226580000Y-142990000D01*
X226580000Y-142990000D02*
X240780000Y-142990000D01*
%TO.C,RUN1*%
X308880000Y-79590000D02*
X304380000Y-79590000D01*
X303130000Y-82090000D02*
X303130000Y-83590000D01*
X310130000Y-83590000D02*
X310130000Y-82090000D01*
X304380000Y-86090000D02*
X308880000Y-86090000D01*
%TO.C,P2*%
X266180000Y-99810000D02*
X266180000Y-85610000D01*
X266180000Y-85610000D02*
X251980000Y-85610000D01*
X251980000Y-85610000D02*
X251980000Y-99810000D01*
X251980000Y-99810000D02*
X266180000Y-99810000D01*
%TO.C,LEFT1*%
X151880000Y-108700000D02*
X151880000Y-94500000D01*
X137680000Y-108700000D02*
X151880000Y-108700000D01*
X137680000Y-94500000D02*
X137680000Y-108700000D01*
X151880000Y-94500000D02*
X137680000Y-94500000D01*
%TO.C,P1*%
X226580000Y-113780000D02*
X240780000Y-113780000D01*
X240780000Y-113780000D02*
X240780000Y-99580000D01*
X240780000Y-99580000D02*
X226580000Y-99580000D01*
X226580000Y-99580000D02*
X226580000Y-113780000D01*
%TO.C,L3*%
X141820000Y-87070000D02*
X146320000Y-87070000D01*
X140570000Y-83070000D02*
X140570000Y-84570000D01*
X146320000Y-80570000D02*
X141820000Y-80570000D01*
X147570000Y-84570000D02*
X147570000Y-83070000D01*
%TO.C,START1*%
X211070000Y-84570000D02*
X211070000Y-83070000D01*
X205320000Y-87070000D02*
X209820000Y-87070000D01*
X204070000Y-83070000D02*
X204070000Y-84570000D01*
X209820000Y-80570000D02*
X205320000Y-80570000D01*
%TO.C,0*%
G36*
X273281088Y-160853305D02*
G01*
X272949062Y-160853305D01*
X272949062Y-156774127D01*
X273281088Y-156774127D01*
X273281088Y-160853305D01*
G37*
G36*
X274229734Y-157461895D02*
G01*
X273897708Y-157461895D01*
X273897708Y-156774127D01*
X274229734Y-156774127D01*
X274229734Y-157461895D01*
G37*
G36*
X275344394Y-157888786D02*
G01*
X275961014Y-157888786D01*
X275961014Y-158173380D01*
X275342583Y-158173380D01*
X275349418Y-159262613D01*
X275351080Y-159518308D01*
X275352711Y-159730866D01*
X275354519Y-159904583D01*
X275356714Y-160043754D01*
X275359505Y-160152674D01*
X275363102Y-160235637D01*
X275367715Y-160296939D01*
X275373553Y-160340876D01*
X275380825Y-160371741D01*
X275389742Y-160393831D01*
X275400511Y-160411440D01*
X275405817Y-160418775D01*
X275466211Y-160482052D01*
X275542264Y-160523139D01*
X275644317Y-160545824D01*
X275774323Y-160553774D01*
X275960599Y-160556853D01*
X275960806Y-160705079D01*
X275961014Y-160853305D01*
X275789071Y-160850706D01*
X275685128Y-160846409D01*
X275583801Y-160837765D01*
X275513531Y-160827748D01*
X275388125Y-160791735D01*
X275274295Y-160738348D01*
X275186161Y-160674993D01*
X275154331Y-160639391D01*
X275125429Y-160597942D01*
X275101200Y-160558778D01*
X275081198Y-160517437D01*
X275064978Y-160469458D01*
X275052095Y-160410378D01*
X275042103Y-160335736D01*
X275034555Y-160241069D01*
X275029007Y-160121915D01*
X275025014Y-159973813D01*
X275022128Y-159792300D01*
X275019906Y-159572915D01*
X275017901Y-159311195D01*
X275017607Y-159270252D01*
X275009762Y-158173380D01*
X274490612Y-158173380D01*
X274490612Y-157888786D01*
X275012367Y-157888786D01*
X275012367Y-156987572D01*
X275344394Y-156987572D01*
X275344394Y-157888786D01*
G37*
G36*
X276207259Y-158801158D02*
G01*
X276279182Y-158634041D01*
X276379643Y-158464359D01*
X276430616Y-158390281D01*
X276592207Y-158190602D01*
X276762197Y-158035959D01*
X276944486Y-157924168D01*
X277142978Y-157853045D01*
X277361575Y-157820407D01*
X277454012Y-157817637D01*
X277703292Y-157838817D01*
X277930868Y-157900902D01*
X278134870Y-158001710D01*
X278313430Y-158139061D01*
X278464677Y-158310771D01*
X278586742Y-158514661D01*
X278677754Y-158748548D01*
X278735843Y-159010251D01*
X278759141Y-159297588D01*
X278759520Y-159340778D01*
X278759520Y-159454052D01*
X276435337Y-159454052D01*
X276435337Y-159545123D01*
X276445981Y-159654006D01*
X276474507Y-159786771D01*
X276515800Y-159925811D01*
X276564747Y-160053523D01*
X276607714Y-160138625D01*
X276740043Y-160320345D01*
X276894149Y-160459955D01*
X277069474Y-160557188D01*
X277265461Y-160611781D01*
X277481555Y-160623469D01*
X277602849Y-160612342D01*
X277805209Y-160561863D01*
X277985052Y-160471244D01*
X278138692Y-160343878D01*
X278262445Y-160183158D01*
X278352626Y-159992476D01*
X278382001Y-159894922D01*
X278409408Y-159786078D01*
X278731597Y-159786078D01*
X278699408Y-159924058D01*
X278622942Y-160174124D01*
X278518506Y-160386326D01*
X278385002Y-160561888D01*
X278221333Y-160702032D01*
X278026400Y-160807982D01*
X277852236Y-160867593D01*
X277733874Y-160890649D01*
X277587384Y-160906193D01*
X277431515Y-160913343D01*
X277285019Y-160911220D01*
X277170537Y-160899627D01*
X276998762Y-160851589D01*
X276821950Y-160769865D01*
X276656112Y-160663275D01*
X276517259Y-160540639D01*
X276515480Y-160538740D01*
X276370395Y-160356505D01*
X276260725Y-160156298D01*
X276184754Y-159933114D01*
X276140764Y-159681951D01*
X276127027Y-159406620D01*
X276134751Y-159175496D01*
X276138594Y-159145742D01*
X276441914Y-159145742D01*
X278427493Y-159145742D01*
X278427493Y-159091434D01*
X278411482Y-158964872D01*
X278367606Y-158819312D01*
X278302103Y-158668722D01*
X278221212Y-158527071D01*
X278131169Y-158408329D01*
X278114496Y-158390493D01*
X277960734Y-158263253D01*
X277787837Y-158173869D01*
X277602977Y-158122540D01*
X277413326Y-158109468D01*
X277226054Y-158134853D01*
X277048332Y-158198898D01*
X276887332Y-158301803D01*
X276828653Y-158354450D01*
X276697143Y-158510981D01*
X276584736Y-158696823D01*
X276499818Y-158895791D01*
X276452519Y-159080523D01*
X276441914Y-159145742D01*
X276138594Y-159145742D01*
X276160305Y-158977659D01*
X276207259Y-158801158D01*
G37*
G36*
X274229734Y-160853305D02*
G01*
X273897708Y-160853305D01*
X273897708Y-157888786D01*
X274229734Y-157888786D01*
X274229734Y-160853305D01*
G37*
%TO.C,UP1*%
X203720000Y-169660000D02*
X217920000Y-169660000D01*
X203720000Y-155460000D02*
X203720000Y-169660000D01*
X217920000Y-155460000D02*
X203720000Y-155460000D01*
X217920000Y-169660000D02*
X217920000Y-155460000D01*
%TO.C,K4*%
X309130000Y-136640000D02*
X323330000Y-136640000D01*
X323330000Y-136640000D02*
X323330000Y-122440000D01*
X309130000Y-122440000D02*
X309130000Y-136640000D01*
X323330000Y-122440000D02*
X309130000Y-122440000D01*
%TO.C,O*%
G36*
X258552064Y-151798805D02*
G01*
X258680327Y-151805078D01*
X258786911Y-151816002D01*
X258859497Y-151831518D01*
X258881955Y-151843349D01*
X258890225Y-151856046D01*
X258897362Y-151878895D01*
X258903450Y-151915616D01*
X258908568Y-151969932D01*
X258912799Y-152045565D01*
X258916224Y-152146236D01*
X258918924Y-152275668D01*
X258920980Y-152437582D01*
X258922475Y-152635700D01*
X258923489Y-152873744D01*
X258924103Y-153155436D01*
X258924400Y-153484497D01*
X258924463Y-153787641D01*
X258924544Y-154156246D01*
X258924846Y-154474502D01*
X258925454Y-154746159D01*
X258926457Y-154974969D01*
X258927939Y-155164682D01*
X258929989Y-155319048D01*
X258932693Y-155441819D01*
X258936136Y-155536745D01*
X258940407Y-155607577D01*
X258945591Y-155658066D01*
X258951776Y-155691962D01*
X258959047Y-155713016D01*
X258967492Y-155724979D01*
X258969255Y-155726550D01*
X259016152Y-155743070D01*
X259102994Y-155755155D01*
X259216798Y-155762769D01*
X259344579Y-155765880D01*
X259473353Y-155764456D01*
X259590137Y-155758463D01*
X259681946Y-155747867D01*
X259735796Y-155732636D01*
X259741402Y-155728519D01*
X259748455Y-155711691D01*
X259754647Y-155674052D01*
X259760047Y-155612338D01*
X259764728Y-155523284D01*
X259768760Y-155403625D01*
X259772213Y-155250096D01*
X259775159Y-155059432D01*
X259777667Y-154828369D01*
X259779809Y-154553642D01*
X259781655Y-154231986D01*
X259783275Y-153860136D01*
X259783573Y-153780915D01*
X259785010Y-153411456D01*
X259786475Y-153092359D01*
X259788070Y-152819885D01*
X259789894Y-152590296D01*
X259792050Y-152399853D01*
X259794637Y-152244818D01*
X259797757Y-152121453D01*
X259801511Y-152026019D01*
X259805999Y-151954777D01*
X259811322Y-151903990D01*
X259817582Y-151869918D01*
X259824878Y-151848824D01*
X259833313Y-151836969D01*
X259836081Y-151834654D01*
X259880942Y-151821383D01*
X259967375Y-151811262D01*
X260082935Y-151804377D01*
X260215180Y-151800814D01*
X260351669Y-151800656D01*
X260479958Y-151803991D01*
X260587604Y-151810902D01*
X260662166Y-151821474D01*
X260684494Y-151828844D01*
X260691260Y-151833364D01*
X260697416Y-151840982D01*
X260702991Y-151854153D01*
X260708014Y-151875331D01*
X260712514Y-151906971D01*
X260716519Y-151951527D01*
X260720058Y-152011453D01*
X260723160Y-152089204D01*
X260725854Y-152187234D01*
X260728168Y-152307998D01*
X260730131Y-152453950D01*
X260731773Y-152627544D01*
X260733121Y-152831236D01*
X260734205Y-153067479D01*
X260735054Y-153338728D01*
X260735696Y-153647438D01*
X260736159Y-153996062D01*
X260736474Y-154387056D01*
X260736668Y-154822873D01*
X260736771Y-155305968D01*
X260736810Y-155838796D01*
X260736816Y-156290170D01*
X260736780Y-156867342D01*
X260736657Y-157392829D01*
X260736424Y-157869046D01*
X260736058Y-158298408D01*
X260735536Y-158683332D01*
X260734836Y-159026232D01*
X260733933Y-159329522D01*
X260732806Y-159595620D01*
X260731431Y-159826938D01*
X260729786Y-160025894D01*
X260727847Y-160194902D01*
X260725592Y-160336377D01*
X260722997Y-160452735D01*
X260720040Y-160546390D01*
X260716698Y-160619759D01*
X260712947Y-160675255D01*
X260708765Y-160715295D01*
X260704130Y-160742294D01*
X260699017Y-160758666D01*
X260694309Y-160766002D01*
X260667152Y-160783564D01*
X260621017Y-160795721D01*
X260547235Y-160803347D01*
X260437140Y-160807317D01*
X260282065Y-160808507D01*
X260273255Y-160808509D01*
X260130641Y-160806565D01*
X260004880Y-160801227D01*
X259907385Y-160793236D01*
X259849568Y-160783334D01*
X259842386Y-160780508D01*
X259832490Y-160773882D01*
X259823927Y-160762880D01*
X259816600Y-160743801D01*
X259810414Y-160712946D01*
X259805271Y-160666616D01*
X259801076Y-160601111D01*
X259797733Y-160512731D01*
X259795144Y-160397778D01*
X259793214Y-160252551D01*
X259791846Y-160073351D01*
X259790944Y-159856479D01*
X259790411Y-159598234D01*
X259790152Y-159294919D01*
X259790069Y-158942833D01*
X259790064Y-158771298D01*
X259789963Y-158392260D01*
X259789610Y-158063657D01*
X259788930Y-157781822D01*
X259787846Y-157543090D01*
X259786283Y-157343795D01*
X259784165Y-157180271D01*
X259781418Y-157048853D01*
X259777964Y-156945875D01*
X259773729Y-156867670D01*
X259768637Y-156810575D01*
X259762612Y-156770921D01*
X259755580Y-156745045D01*
X259747955Y-156729970D01*
X259727820Y-156705544D01*
X259701268Y-156688812D01*
X259658656Y-156678324D01*
X259590341Y-156672634D01*
X259486680Y-156670293D01*
X259347614Y-156669851D01*
X259172177Y-156672299D01*
X259049050Y-156679729D01*
X258976661Y-156692272D01*
X258956923Y-156702311D01*
X258950431Y-156721869D01*
X258944782Y-156768547D01*
X258939931Y-156845131D01*
X258935833Y-156954410D01*
X258932443Y-157099170D01*
X258929717Y-157282199D01*
X258927610Y-157506284D01*
X258926078Y-157774212D01*
X258925076Y-158088772D01*
X258924559Y-158452750D01*
X258924463Y-158729532D01*
X258924463Y-160724292D01*
X258864344Y-160766401D01*
X258809432Y-160785208D01*
X258714129Y-160799053D01*
X258591476Y-160807877D01*
X258454516Y-160811623D01*
X258316292Y-160810235D01*
X258189847Y-160803655D01*
X258088224Y-160791827D01*
X258024466Y-160774692D01*
X258016693Y-160770115D01*
X258009899Y-160764259D01*
X258003717Y-160755449D01*
X257998119Y-160741222D01*
X257993076Y-160719116D01*
X257988559Y-160686669D01*
X257984539Y-160641420D01*
X257980987Y-160580905D01*
X257977874Y-160502663D01*
X257975171Y-160404232D01*
X257972849Y-160283149D01*
X257970880Y-160136953D01*
X257969234Y-159963180D01*
X257967882Y-159759370D01*
X257966796Y-159523060D01*
X257965946Y-159251787D01*
X257965304Y-158943091D01*
X257964840Y-158594507D01*
X257964526Y-158203576D01*
X257964332Y-157767833D01*
X257964230Y-157284817D01*
X257964191Y-156752067D01*
X257964186Y-156304676D01*
X257964196Y-155731799D01*
X257964247Y-155210559D01*
X257964367Y-154738496D01*
X257964586Y-154313147D01*
X257964931Y-153932049D01*
X257965433Y-153592740D01*
X257966120Y-153292759D01*
X257967021Y-153029643D01*
X257968165Y-152800930D01*
X257969581Y-152604157D01*
X257971298Y-152436864D01*
X257973345Y-152296587D01*
X257975750Y-152180865D01*
X257978544Y-152087235D01*
X257981754Y-152013235D01*
X257985410Y-151956403D01*
X257989540Y-151914278D01*
X257994174Y-151884396D01*
X257999341Y-151864295D01*
X258005069Y-151851515D01*
X258011387Y-151843591D01*
X258016693Y-151839236D01*
X258068580Y-151821381D01*
X258160379Y-151808469D01*
X258279771Y-151800442D01*
X258414439Y-151797240D01*
X258552064Y-151798805D01*
G37*
G36*
X238013523Y-151801129D02*
G01*
X238165519Y-151803538D01*
X238306511Y-151807587D01*
X238425836Y-151813168D01*
X238512831Y-151820170D01*
X238556832Y-151828483D01*
X238557551Y-151828844D01*
X238564317Y-151833364D01*
X238570473Y-151840982D01*
X238576048Y-151854153D01*
X238581071Y-151875331D01*
X238585570Y-151906971D01*
X238589575Y-151951527D01*
X238593114Y-152011453D01*
X238596216Y-152089204D01*
X238598910Y-152187234D01*
X238601224Y-152307998D01*
X238603188Y-152453950D01*
X238604829Y-152627544D01*
X238606178Y-152831236D01*
X238607262Y-153067479D01*
X238608110Y-153338728D01*
X238608752Y-153647438D01*
X238609216Y-153996062D01*
X238609530Y-154387056D01*
X238609725Y-154822873D01*
X238609827Y-155305968D01*
X238609867Y-155838796D01*
X238609873Y-156290170D01*
X238609837Y-156867342D01*
X238609714Y-157392829D01*
X238609481Y-157869046D01*
X238609115Y-158298408D01*
X238608593Y-158683332D01*
X238607892Y-159026232D01*
X238606990Y-159329522D01*
X238605863Y-159595620D01*
X238604488Y-159826938D01*
X238602842Y-160025894D01*
X238600904Y-160194902D01*
X238598648Y-160336377D01*
X238596053Y-160452735D01*
X238593096Y-160546390D01*
X238589754Y-160619759D01*
X238586004Y-160675255D01*
X238581822Y-160715295D01*
X238577186Y-160742294D01*
X238572073Y-160758666D01*
X238567365Y-160766002D01*
X238517796Y-160787626D01*
X238427997Y-160802614D01*
X238311421Y-160811050D01*
X238181518Y-160813020D01*
X238051740Y-160808608D01*
X237935538Y-160797898D01*
X237846365Y-160780976D01*
X237801123Y-160761172D01*
X237743782Y-160713834D01*
X237776227Y-157272357D01*
X237780108Y-156845233D01*
X237783570Y-156433085D01*
X237786598Y-156039146D01*
X237789180Y-155666651D01*
X237791303Y-155318832D01*
X237792954Y-154998924D01*
X237794121Y-154710161D01*
X237794790Y-154455775D01*
X237794949Y-154239001D01*
X237794585Y-154063072D01*
X237793685Y-153931222D01*
X237792235Y-153846685D01*
X237790224Y-153812695D01*
X237789997Y-153812205D01*
X237759633Y-153806120D01*
X237755790Y-153809060D01*
X237748968Y-153837528D01*
X237733894Y-153915329D01*
X237711272Y-154038443D01*
X237681806Y-154202849D01*
X237646201Y-154404528D01*
X237605161Y-154639458D01*
X237559390Y-154903621D01*
X237509593Y-155192994D01*
X237456473Y-155503558D01*
X237400735Y-155831293D01*
X237377101Y-155970810D01*
X237320482Y-156304941D01*
X237266273Y-156623923D01*
X237215173Y-156923695D01*
X237167882Y-157200194D01*
X237125100Y-157449360D01*
X237087526Y-157667130D01*
X237055860Y-157849443D01*
X237030802Y-157992237D01*
X237013051Y-158091450D01*
X237003307Y-158143021D01*
X237001799Y-158149424D01*
X236961814Y-158186202D01*
X236882376Y-158212593D01*
X236777195Y-158228239D01*
X236659980Y-158232782D01*
X236544443Y-158225863D01*
X236444292Y-158207123D01*
X236373237Y-158176206D01*
X236361257Y-158166165D01*
X236350150Y-158147922D01*
X236336853Y-158111531D01*
X236320755Y-158053855D01*
X236301243Y-157971754D01*
X236277705Y-157862090D01*
X236249531Y-157721725D01*
X236216108Y-157547521D01*
X236176825Y-157336339D01*
X236131070Y-157085041D01*
X236078231Y-156790488D01*
X236017698Y-156449543D01*
X235948857Y-156059066D01*
X235933063Y-155969198D01*
X235874334Y-155635760D01*
X235818034Y-155317815D01*
X235764892Y-155019377D01*
X235715636Y-154744460D01*
X235670995Y-154497077D01*
X235631697Y-154281244D01*
X235598473Y-154100974D01*
X235572049Y-153960281D01*
X235553156Y-153863179D01*
X235542521Y-153813682D01*
X235540698Y-153808061D01*
X235528958Y-153800092D01*
X235518707Y-153803216D01*
X235509893Y-153820471D01*
X235502466Y-153854893D01*
X235496372Y-153909522D01*
X235491562Y-153987395D01*
X235487983Y-154091549D01*
X235485583Y-154225023D01*
X235484310Y-154390854D01*
X235484114Y-154592081D01*
X235484942Y-154831740D01*
X235486743Y-155112871D01*
X235489466Y-155438510D01*
X235493057Y-155811695D01*
X235497467Y-156235465D01*
X235498223Y-156306150D01*
X235504349Y-156880605D01*
X235509821Y-157403410D01*
X235514631Y-157877009D01*
X235518770Y-158303849D01*
X235522230Y-158686375D01*
X235525005Y-159027032D01*
X235527084Y-159328266D01*
X235528461Y-159592523D01*
X235529128Y-159822249D01*
X235529075Y-160019887D01*
X235528296Y-160187886D01*
X235526782Y-160328688D01*
X235524525Y-160444742D01*
X235521517Y-160538491D01*
X235517750Y-160612381D01*
X235513216Y-160668859D01*
X235507907Y-160710369D01*
X235501814Y-160739358D01*
X235494930Y-160758270D01*
X235487247Y-160769551D01*
X235483496Y-160772811D01*
X235436205Y-160790276D01*
X235347591Y-160801696D01*
X235212884Y-160807516D01*
X235101721Y-160808509D01*
X234959554Y-160807645D01*
X234861052Y-160804081D01*
X234795792Y-160796360D01*
X234753353Y-160783026D01*
X234723314Y-160762623D01*
X234714665Y-160754409D01*
X234707637Y-160746747D01*
X234701245Y-160736817D01*
X234695460Y-160722137D01*
X234690251Y-160700225D01*
X234685588Y-160668599D01*
X234681441Y-160624776D01*
X234677780Y-160566275D01*
X234674573Y-160490612D01*
X234671792Y-160395306D01*
X234669405Y-160277875D01*
X234667383Y-160135836D01*
X234665696Y-159966706D01*
X234664313Y-159768004D01*
X234663203Y-159537247D01*
X234662338Y-159271954D01*
X234661686Y-158969640D01*
X234661217Y-158627826D01*
X234660901Y-158244027D01*
X234660708Y-157815763D01*
X234660608Y-157340550D01*
X234660570Y-156815906D01*
X234660565Y-156310694D01*
X234660603Y-155735812D01*
X234660733Y-155212597D01*
X234660979Y-154738620D01*
X234661362Y-154311448D01*
X234661907Y-153928650D01*
X234662635Y-153587795D01*
X234663571Y-153286451D01*
X234664737Y-153022186D01*
X234666156Y-152792569D01*
X234667851Y-152595168D01*
X234669845Y-152427552D01*
X234672161Y-152287290D01*
X234674822Y-152171950D01*
X234677852Y-152079100D01*
X234681272Y-152006309D01*
X234685107Y-151951145D01*
X234689379Y-151911176D01*
X234694111Y-151883973D01*
X234699326Y-151867102D01*
X234702674Y-151860961D01*
X234719106Y-151840225D01*
X234740307Y-151824903D01*
X234773971Y-151814178D01*
X234827789Y-151807230D01*
X234909454Y-151803240D01*
X235026659Y-151801392D01*
X235187097Y-151800865D01*
X235267728Y-151800842D01*
X235451764Y-151801350D01*
X235589470Y-151803297D01*
X235688610Y-151807321D01*
X235756947Y-151814058D01*
X235802246Y-151824142D01*
X235832271Y-151838212D01*
X235845436Y-151848179D01*
X235856705Y-151862865D01*
X235869059Y-151890267D01*
X235883167Y-151933804D01*
X235899700Y-151996893D01*
X235919329Y-152082951D01*
X235942724Y-152195396D01*
X235970556Y-152337646D01*
X236003495Y-152513119D01*
X236042213Y-152725231D01*
X236087380Y-152977400D01*
X236139666Y-153273045D01*
X236199742Y-153615582D01*
X236259993Y-153960858D01*
X236317437Y-154288815D01*
X236372871Y-154601842D01*
X236425520Y-154895768D01*
X236474609Y-155166421D01*
X236519361Y-155409629D01*
X236559001Y-155621218D01*
X236592754Y-155797019D01*
X236619843Y-155932857D01*
X236639494Y-156024562D01*
X236650931Y-156067961D01*
X236652175Y-156070492D01*
X236677991Y-156096627D01*
X236698058Y-156079991D01*
X236713180Y-156047430D01*
X236721838Y-156010385D01*
X236737977Y-155924156D01*
X236760894Y-155793037D01*
X236789886Y-155621322D01*
X236824251Y-155413303D01*
X236863285Y-155173276D01*
X236906286Y-154905532D01*
X236952550Y-154614367D01*
X237001374Y-154304074D01*
X237052057Y-153978946D01*
X237056337Y-153951347D01*
X237107014Y-153625889D01*
X237155776Y-153315431D01*
X237201932Y-153024204D01*
X237244793Y-152756438D01*
X237283668Y-152516362D01*
X237317868Y-152308206D01*
X237346703Y-152136200D01*
X237369482Y-152004574D01*
X237385515Y-151917557D01*
X237394112Y-151879380D01*
X237394522Y-151878438D01*
X237437873Y-151831037D01*
X237461706Y-151817549D01*
X237508769Y-151810104D01*
X237598146Y-151804849D01*
X237719173Y-151801675D01*
X237861186Y-151800472D01*
X238013523Y-151801129D01*
G37*
G36*
X241275857Y-151867043D02*
G01*
X241294152Y-151904794D01*
X241305871Y-151957971D01*
X241311828Y-152036518D01*
X241312840Y-152150379D01*
X241310293Y-152287358D01*
X241305677Y-152442941D01*
X241297714Y-152552525D01*
X241281500Y-152624187D01*
X241252130Y-152666006D01*
X241204701Y-152686060D01*
X241134308Y-152692428D01*
X241063995Y-152693079D01*
X240973558Y-152695904D01*
X240922212Y-152707188D01*
X240895053Y-152732054D01*
X240884474Y-152754815D01*
X240881701Y-152789034D01*
X240879245Y-152874159D01*
X240877112Y-153006996D01*
X240875311Y-153184353D01*
X240873850Y-153403036D01*
X240872736Y-153659852D01*
X240871977Y-153951608D01*
X240871581Y-154275109D01*
X240871556Y-154627164D01*
X240871909Y-155004579D01*
X240872649Y-155404160D01*
X240873783Y-155822715D01*
X240875319Y-156257050D01*
X240875690Y-156349095D01*
X240890220Y-159882054D01*
X241067124Y-159896255D01*
X241158471Y-159905534D01*
X241224065Y-159921765D01*
X241268166Y-159952977D01*
X241295037Y-160007202D01*
X241308938Y-160092469D01*
X241314129Y-160216808D01*
X241314878Y-160363161D01*
X241314021Y-160511358D01*
X241310657Y-160615085D01*
X241303600Y-160683957D01*
X241291663Y-160727587D01*
X241273657Y-160755589D01*
X241265410Y-160763742D01*
X241246540Y-160776347D01*
X241216991Y-160786373D01*
X241170978Y-160794106D01*
X241102716Y-160799835D01*
X241006418Y-160803847D01*
X240876300Y-160806428D01*
X240706576Y-160807867D01*
X240491460Y-160808449D01*
X240363742Y-160808509D01*
X240154193Y-160807957D01*
X239962208Y-160806392D01*
X239794422Y-160803952D01*
X239657471Y-160800774D01*
X239557989Y-160796996D01*
X239502613Y-160792756D01*
X239493508Y-160790476D01*
X239487145Y-160758387D01*
X239481766Y-160682221D01*
X239477807Y-160571997D01*
X239475702Y-160437737D01*
X239475474Y-160374512D01*
X239476648Y-160209939D01*
X239480610Y-160091973D01*
X239488025Y-160013162D01*
X239499555Y-159966057D01*
X239513727Y-159944835D01*
X239559661Y-159925286D01*
X239640634Y-159906384D01*
X239723365Y-159894185D01*
X239894750Y-159875283D01*
X239901613Y-156306334D01*
X239902540Y-155775412D01*
X239903167Y-155296258D01*
X239903476Y-154866541D01*
X239903448Y-154483929D01*
X239903067Y-154146092D01*
X239902315Y-153850697D01*
X239901175Y-153595414D01*
X239899628Y-153377911D01*
X239897657Y-153195857D01*
X239895245Y-153046921D01*
X239892374Y-152928771D01*
X239889027Y-152839076D01*
X239885186Y-152775504D01*
X239880833Y-152735726D01*
X239875951Y-152717408D01*
X239874563Y-152715854D01*
X239830159Y-152703911D01*
X239751633Y-152695913D01*
X239686646Y-152693908D01*
X239597698Y-152689900D01*
X239534040Y-152673313D01*
X239491490Y-152636469D01*
X239465868Y-152571691D01*
X239452993Y-152471301D01*
X239448685Y-152327623D01*
X239448424Y-152256435D01*
X239450633Y-152124070D01*
X239456627Y-152005786D01*
X239465456Y-151915481D01*
X239474805Y-151870228D01*
X239501185Y-151800842D01*
X241232481Y-151800842D01*
X241275857Y-151867043D01*
G37*
G36*
X253286081Y-151867043D02*
G01*
X253304376Y-151904794D01*
X253316094Y-151957971D01*
X253322052Y-152036518D01*
X253323063Y-152150379D01*
X253320517Y-152287358D01*
X253315901Y-152442941D01*
X253307938Y-152552525D01*
X253291723Y-152624187D01*
X253262353Y-152666006D01*
X253214924Y-152686060D01*
X253144532Y-152692428D01*
X253074219Y-152693079D01*
X252983957Y-152695841D01*
X252932708Y-152707019D01*
X252905475Y-152731871D01*
X252894179Y-152756179D01*
X252891207Y-152791031D01*
X252888596Y-152877096D01*
X252886351Y-153011487D01*
X252884480Y-153191319D01*
X252882991Y-153413704D01*
X252881889Y-153675758D01*
X252881183Y-153974594D01*
X252880878Y-154307325D01*
X252880982Y-154671065D01*
X252881502Y-155062929D01*
X252882445Y-155480030D01*
X252883817Y-155919481D01*
X252885506Y-156350468D01*
X252900665Y-159882072D01*
X253077458Y-159896263D01*
X253168765Y-159905542D01*
X253234329Y-159921776D01*
X253278411Y-159952998D01*
X253305270Y-160007237D01*
X253319164Y-160092523D01*
X253324354Y-160216885D01*
X253325101Y-160363161D01*
X253324244Y-160511358D01*
X253320881Y-160615085D01*
X253313824Y-160683957D01*
X253301886Y-160727587D01*
X253283881Y-160755589D01*
X253275634Y-160763742D01*
X253256764Y-160776347D01*
X253227215Y-160786373D01*
X253181202Y-160794106D01*
X253112939Y-160799835D01*
X253016642Y-160803847D01*
X252886524Y-160806428D01*
X252716799Y-160807867D01*
X252501684Y-160808449D01*
X252373966Y-160808509D01*
X252164417Y-160807957D01*
X251972432Y-160806392D01*
X251804646Y-160803952D01*
X251667695Y-160800774D01*
X251568213Y-160796996D01*
X251512836Y-160792756D01*
X251503731Y-160790476D01*
X251497368Y-160758387D01*
X251491990Y-160682221D01*
X251488031Y-160571997D01*
X251485925Y-160437737D01*
X251485698Y-160374512D01*
X251486871Y-160209939D01*
X251490834Y-160091973D01*
X251498248Y-160013162D01*
X251509779Y-159966057D01*
X251523951Y-159944835D01*
X251569885Y-159925286D01*
X251650857Y-159906384D01*
X251733589Y-159894185D01*
X251904974Y-159875283D01*
X251911836Y-156306334D01*
X251912764Y-155775412D01*
X251913391Y-155296258D01*
X251913699Y-154866541D01*
X251913672Y-154483929D01*
X251913291Y-154146092D01*
X251912539Y-153850697D01*
X251911398Y-153595414D01*
X251909851Y-153377911D01*
X251907881Y-153195857D01*
X251905469Y-153046921D01*
X251902598Y-152928771D01*
X251899251Y-152839076D01*
X251895409Y-152775504D01*
X251891057Y-152735726D01*
X251886175Y-152717408D01*
X251884786Y-152715854D01*
X251840382Y-152703911D01*
X251761856Y-152695913D01*
X251696870Y-152693908D01*
X251607922Y-152689900D01*
X251544264Y-152673313D01*
X251501714Y-152636469D01*
X251476092Y-152571691D01*
X251463217Y-152471301D01*
X251458909Y-152327623D01*
X251458648Y-152256435D01*
X251460857Y-152124070D01*
X251466851Y-152005786D01*
X251475680Y-151915481D01*
X251485028Y-151870228D01*
X251511409Y-151800842D01*
X253242704Y-151800842D01*
X253286081Y-151867043D01*
G37*
G36*
X244901651Y-151800571D02*
G01*
X245023191Y-151804980D01*
X245120406Y-151813643D01*
X245180245Y-151826701D01*
X245184814Y-151828844D01*
X245191572Y-151833358D01*
X245197721Y-151840968D01*
X245203291Y-151854125D01*
X245208310Y-151875279D01*
X245212807Y-151906882D01*
X245216810Y-151951385D01*
X245220348Y-152011241D01*
X245223450Y-152088899D01*
X245226145Y-152186811D01*
X245228460Y-152307430D01*
X245230426Y-152453205D01*
X245232070Y-152626588D01*
X245233421Y-152830032D01*
X245234508Y-153065986D01*
X245235359Y-153336903D01*
X245236004Y-153645233D01*
X245236471Y-153993428D01*
X245236788Y-154383940D01*
X245236984Y-154819219D01*
X245237088Y-155301718D01*
X245237129Y-155833886D01*
X245237136Y-156301285D01*
X245237136Y-160745725D01*
X245168238Y-160777117D01*
X245110059Y-160790440D01*
X245005664Y-160800464D01*
X244862866Y-160806656D01*
X244709895Y-160808509D01*
X244556119Y-160807999D01*
X244446684Y-160805601D01*
X244371832Y-160800015D01*
X244321806Y-160789941D01*
X244286851Y-160774076D01*
X244257209Y-160751121D01*
X244253345Y-160747647D01*
X244242449Y-160735843D01*
X244231523Y-160718549D01*
X244219977Y-160692794D01*
X244207219Y-160655610D01*
X244192660Y-160604027D01*
X244175708Y-160535075D01*
X244155772Y-160445785D01*
X244132263Y-160333187D01*
X244104588Y-160194312D01*
X244072157Y-160026191D01*
X244034380Y-159825854D01*
X243990665Y-159590332D01*
X243940422Y-159316654D01*
X243883061Y-159001853D01*
X243817989Y-158642957D01*
X243744617Y-158236999D01*
X243662353Y-157781007D01*
X243654958Y-157739990D01*
X243584047Y-157347536D01*
X243515447Y-156969536D01*
X243449802Y-156609453D01*
X243387757Y-156270752D01*
X243329957Y-155956897D01*
X243277046Y-155671352D01*
X243229668Y-155417582D01*
X243188470Y-155199050D01*
X243154094Y-155019221D01*
X243127186Y-154881558D01*
X243108391Y-154789527D01*
X243098353Y-154746591D01*
X243097452Y-154744197D01*
X243079038Y-154712775D01*
X243063476Y-154695235D01*
X243050594Y-154695129D01*
X243040220Y-154716011D01*
X243032183Y-154761433D01*
X243026310Y-154834950D01*
X243022431Y-154940115D01*
X243020373Y-155080480D01*
X243019965Y-155259599D01*
X243021034Y-155481026D01*
X243023410Y-155748313D01*
X243026920Y-156065014D01*
X243028240Y-156176188D01*
X243032284Y-156514344D01*
X243036787Y-156893186D01*
X243041592Y-157299306D01*
X243046541Y-157719294D01*
X243051476Y-158139740D01*
X243056240Y-158547235D01*
X243060674Y-158928368D01*
X243063873Y-159204829D01*
X243081728Y-160752480D01*
X243008044Y-160780495D01*
X242946041Y-160792941D01*
X242845994Y-160801219D01*
X242721942Y-160805418D01*
X242587928Y-160805631D01*
X242457989Y-160801950D01*
X242346168Y-160794465D01*
X242266503Y-160783269D01*
X242241342Y-160775495D01*
X242180480Y-160746142D01*
X242180480Y-156301494D01*
X242180490Y-155727435D01*
X242180541Y-155205025D01*
X242180661Y-154731813D01*
X242180878Y-154305347D01*
X242181222Y-153923177D01*
X242181720Y-153582850D01*
X242182403Y-153281915D01*
X242183297Y-153017921D01*
X242184433Y-152788418D01*
X242185838Y-152590953D01*
X242187542Y-152423075D01*
X242189573Y-152282334D01*
X242191959Y-152166277D01*
X242194730Y-152072454D01*
X242197913Y-151998413D01*
X242201539Y-151941704D01*
X242205635Y-151899874D01*
X242210230Y-151870472D01*
X242215352Y-151851047D01*
X242221031Y-151839149D01*
X242227296Y-151832325D01*
X242232801Y-151828844D01*
X242278336Y-151818665D01*
X242367485Y-151810217D01*
X242489773Y-151804142D01*
X242634724Y-151801082D01*
X242689656Y-151800842D01*
X242850829Y-151801675D01*
X242967024Y-151804795D01*
X243047341Y-151811134D01*
X243100885Y-151821623D01*
X243136759Y-151837195D01*
X243152153Y-151848179D01*
X243162043Y-151859953D01*
X243172884Y-151881507D01*
X243185252Y-151915727D01*
X243199722Y-151965496D01*
X243216870Y-152033700D01*
X243237272Y-152123222D01*
X243261503Y-152236947D01*
X243290140Y-152377761D01*
X243323757Y-152548547D01*
X243362931Y-152752190D01*
X243408237Y-152991575D01*
X243460251Y-153269586D01*
X243519549Y-153589108D01*
X243586706Y-153953025D01*
X243662299Y-154364222D01*
X243746902Y-154825583D01*
X243752749Y-154857498D01*
X243838469Y-155323927D01*
X243918697Y-155757490D01*
X243993051Y-156156206D01*
X244061148Y-156518097D01*
X244122604Y-156841183D01*
X244177039Y-157123485D01*
X244224068Y-157363024D01*
X244263310Y-157557820D01*
X244294381Y-157705893D01*
X244316900Y-157805266D01*
X244330484Y-157853958D01*
X244332812Y-157858444D01*
X244370341Y-157882999D01*
X244387212Y-157880442D01*
X244389164Y-157851681D01*
X244390450Y-157772291D01*
X244391090Y-157645741D01*
X244391104Y-157475497D01*
X244390511Y-157265028D01*
X244389331Y-157017800D01*
X244387584Y-156737281D01*
X244385290Y-156426939D01*
X244382469Y-156090241D01*
X244379140Y-155730654D01*
X244375323Y-155351647D01*
X244371037Y-154956686D01*
X244370042Y-154868744D01*
X244364745Y-154401997D01*
X244360109Y-153986344D01*
X244356151Y-153618784D01*
X244352887Y-153296315D01*
X244350331Y-153015936D01*
X244348501Y-152774645D01*
X244347411Y-152569441D01*
X244347077Y-152397321D01*
X244347515Y-152255284D01*
X244348741Y-152140329D01*
X244350771Y-152049453D01*
X244353620Y-151979656D01*
X244357304Y-151927935D01*
X244361839Y-151891288D01*
X244367240Y-151866715D01*
X244373523Y-151851214D01*
X244380705Y-151841782D01*
X244385940Y-151837428D01*
X244433308Y-151822670D01*
X244521616Y-151811465D01*
X244637811Y-151803954D01*
X244768840Y-151800275D01*
X244901651Y-151800571D01*
G37*
G36*
X250170740Y-151801636D02*
G01*
X250412862Y-151803974D01*
X250610860Y-151807793D01*
X250762339Y-151813026D01*
X250864904Y-151819609D01*
X250916159Y-151827477D01*
X250919425Y-151828844D01*
X250939994Y-151843900D01*
X250954359Y-151869195D01*
X250963618Y-151913513D01*
X250968870Y-151985637D01*
X250971213Y-152094351D01*
X250971747Y-152247168D01*
X250971204Y-152400904D01*
X250968844Y-152509328D01*
X250963568Y-152581224D01*
X250954276Y-152625376D01*
X250939871Y-152650568D01*
X250919425Y-152665492D01*
X250873981Y-152675380D01*
X250782881Y-152683545D01*
X250654555Y-152689539D01*
X250497430Y-152692913D01*
X250393222Y-152693493D01*
X250192668Y-152695464D01*
X250033339Y-152701219D01*
X249919331Y-152710521D01*
X249854741Y-152723132D01*
X249850442Y-152724885D01*
X249781545Y-152756277D01*
X249781545Y-154225212D01*
X249781601Y-154544414D01*
X249781870Y-154813833D01*
X249782502Y-155037785D01*
X249783649Y-155220587D01*
X249785462Y-155366557D01*
X249788091Y-155480011D01*
X249791687Y-155565265D01*
X249796401Y-155626637D01*
X249802385Y-155668443D01*
X249809788Y-155695000D01*
X249818762Y-155710625D01*
X249829457Y-155719634D01*
X249833866Y-155722148D01*
X249879578Y-155732584D01*
X249967481Y-155741255D01*
X250085673Y-155747355D01*
X250222254Y-155750080D01*
X250247972Y-155750150D01*
X250416342Y-155750557D01*
X250538332Y-155755875D01*
X250621646Y-155772242D01*
X250673991Y-155805799D01*
X250703071Y-155862688D01*
X250716592Y-155949048D01*
X250722260Y-156071020D01*
X250724004Y-156129503D01*
X250727819Y-156302057D01*
X250725872Y-156428625D01*
X250716211Y-156517190D01*
X250696884Y-156575732D01*
X250665941Y-156612231D01*
X250621429Y-156634668D01*
X250598767Y-156641666D01*
X250531834Y-156652744D01*
X250425903Y-156661764D01*
X250296063Y-156667740D01*
X250170320Y-156669700D01*
X250016081Y-156671701D01*
X249909327Y-156677975D01*
X249843565Y-156689176D01*
X249812424Y-156705813D01*
X249806080Y-156733485D01*
X249800381Y-156801498D01*
X249795298Y-156911482D01*
X249790801Y-157065066D01*
X249786860Y-157263879D01*
X249783445Y-157509550D01*
X249780527Y-157803709D01*
X249778075Y-158147985D01*
X249776061Y-158544007D01*
X249775299Y-158736754D01*
X249773889Y-159112962D01*
X249772526Y-159438775D01*
X249771100Y-159717899D01*
X249769502Y-159954039D01*
X249767624Y-160150901D01*
X249765357Y-160312191D01*
X249762591Y-160441613D01*
X249759218Y-160542873D01*
X249755128Y-160619676D01*
X249750214Y-160675729D01*
X249744365Y-160714735D01*
X249737473Y-160740402D01*
X249729428Y-160756433D01*
X249720123Y-160766535D01*
X249715512Y-160770122D01*
X249662033Y-160788452D01*
X249567765Y-160801464D01*
X249445751Y-160809214D01*
X249309033Y-160811760D01*
X249170655Y-160809159D01*
X249043660Y-160801468D01*
X248941090Y-160788745D01*
X248875989Y-160771046D01*
X248867861Y-160766401D01*
X248807743Y-160724292D01*
X248807743Y-156307334D01*
X248807760Y-155734656D01*
X248807830Y-155213613D01*
X248807981Y-154741742D01*
X248808239Y-154316579D01*
X248808632Y-153935658D01*
X248809188Y-153596516D01*
X248809933Y-153296689D01*
X248810894Y-153033713D01*
X248812100Y-152805123D01*
X248813578Y-152608454D01*
X248815354Y-152441243D01*
X248817457Y-152301026D01*
X248819913Y-152185338D01*
X248822750Y-152091714D01*
X248825995Y-152017692D01*
X248829675Y-151960806D01*
X248833818Y-151918592D01*
X248838452Y-151888586D01*
X248843603Y-151868324D01*
X248849298Y-151855341D01*
X248855566Y-151847174D01*
X248857210Y-151845609D01*
X248874881Y-151833792D01*
X248902688Y-151824230D01*
X248945997Y-151816690D01*
X249010168Y-151810938D01*
X249100566Y-151806742D01*
X249222553Y-151803868D01*
X249381492Y-151802084D01*
X249582746Y-151801155D01*
X249831678Y-151800849D01*
X249886890Y-151800842D01*
X250170740Y-151801636D01*
G37*
G36*
X263002033Y-151800244D02*
G01*
X263231934Y-151801333D01*
X263450150Y-151803276D01*
X263650103Y-151806072D01*
X263825215Y-151809722D01*
X263968908Y-151814225D01*
X264074605Y-151819581D01*
X264135728Y-151825791D01*
X264146901Y-151828844D01*
X264167470Y-151843900D01*
X264181835Y-151869195D01*
X264191094Y-151913513D01*
X264196346Y-151985637D01*
X264198689Y-152094351D01*
X264199223Y-152247168D01*
X264198680Y-152400904D01*
X264196320Y-152509328D01*
X264191044Y-152581224D01*
X264181752Y-152625376D01*
X264167347Y-152650568D01*
X264146901Y-152665492D01*
X264100426Y-152676337D01*
X264012432Y-152685227D01*
X263895490Y-152691250D01*
X263762170Y-152693493D01*
X263760694Y-152693493D01*
X263607407Y-152695178D01*
X263498808Y-152700894D01*
X263425573Y-152711640D01*
X263378374Y-152728413D01*
X263366690Y-152735602D01*
X263306571Y-152777711D01*
X263306571Y-156739010D01*
X263306562Y-157279431D01*
X263306510Y-157768367D01*
X263306382Y-158208437D01*
X263306140Y-158602256D01*
X263305751Y-158952441D01*
X263305179Y-159261608D01*
X263304388Y-159532374D01*
X263303344Y-159767356D01*
X263302010Y-159969169D01*
X263300353Y-160140431D01*
X263298336Y-160283758D01*
X263295925Y-160401766D01*
X263293084Y-160497072D01*
X263289777Y-160572293D01*
X263285971Y-160630044D01*
X263281628Y-160672943D01*
X263276715Y-160703605D01*
X263271196Y-160724648D01*
X263265035Y-160738688D01*
X263258197Y-160748341D01*
X263252471Y-160754409D01*
X263226169Y-160776075D01*
X263191660Y-160791081D01*
X263139348Y-160800626D01*
X263059638Y-160805910D01*
X262942936Y-160808131D01*
X262819670Y-160808509D01*
X262667346Y-160807847D01*
X262559519Y-160805061D01*
X262486595Y-160798951D01*
X262438978Y-160788319D01*
X262407074Y-160771965D01*
X262386869Y-160754409D01*
X262379489Y-160746348D01*
X262372812Y-160735907D01*
X262366804Y-160720470D01*
X262361429Y-160697421D01*
X262356651Y-160664143D01*
X262352437Y-160618020D01*
X262348750Y-160556435D01*
X262345555Y-160476772D01*
X262342817Y-160376414D01*
X262340500Y-160252744D01*
X262338571Y-160103147D01*
X262336992Y-159925005D01*
X262335729Y-159715703D01*
X262334747Y-159472623D01*
X262334010Y-159193150D01*
X262333484Y-158874666D01*
X262333132Y-158514555D01*
X262332920Y-158110201D01*
X262332812Y-157658988D01*
X262332774Y-157158298D01*
X262332769Y-156739010D01*
X262332769Y-152777711D01*
X262272650Y-152735602D01*
X262232129Y-152716573D01*
X262168716Y-152703907D01*
X262073085Y-152696605D01*
X261935911Y-152693672D01*
X261878646Y-152693493D01*
X261745219Y-152691295D01*
X261628033Y-152685309D01*
X261539661Y-152676445D01*
X261492674Y-152665615D01*
X261492439Y-152665492D01*
X261471870Y-152650436D01*
X261457506Y-152625141D01*
X261448247Y-152580823D01*
X261442995Y-152508698D01*
X261440651Y-152399984D01*
X261440117Y-152247168D01*
X261440660Y-152093432D01*
X261443020Y-151985007D01*
X261448297Y-151913111D01*
X261457588Y-151868959D01*
X261471993Y-151843767D01*
X261492439Y-151828844D01*
X261531503Y-151822252D01*
X261618082Y-151816514D01*
X261745599Y-151811630D01*
X261907476Y-151807599D01*
X262097135Y-151804421D01*
X262307998Y-151802096D01*
X262533487Y-151800626D01*
X262767025Y-151800008D01*
X263002033Y-151800244D01*
G37*
G36*
X268991975Y-151801130D02*
G01*
X269166910Y-151802368D01*
X269304675Y-151805120D01*
X269413733Y-151809948D01*
X269502549Y-151817414D01*
X269579587Y-151828081D01*
X269653311Y-151842510D01*
X269732185Y-151861266D01*
X269750609Y-151865912D01*
X269992365Y-151939712D01*
X270187920Y-152030154D01*
X270344290Y-152144140D01*
X270468490Y-152288570D01*
X270567536Y-152470345D01*
X270648443Y-152696366D01*
X270669019Y-152769327D01*
X270683656Y-152827764D01*
X270695699Y-152887827D01*
X270705497Y-152955730D01*
X270713402Y-153037685D01*
X270719762Y-153139905D01*
X270724929Y-153268604D01*
X270729251Y-153429992D01*
X270733081Y-153630285D01*
X270736767Y-153875693D01*
X270738457Y-154001277D01*
X270741867Y-154306701D01*
X270743087Y-154563947D01*
X270741675Y-154778906D01*
X270737184Y-154957471D01*
X270729173Y-155105535D01*
X270717197Y-155228991D01*
X270700812Y-155333730D01*
X270679574Y-155425647D01*
X270653040Y-155510633D01*
X270620766Y-155594581D01*
X270617946Y-155601374D01*
X270561034Y-155717993D01*
X270484822Y-155847648D01*
X270400195Y-155973889D01*
X270318040Y-156080267D01*
X270261643Y-156139805D01*
X270219422Y-156188916D01*
X270210875Y-156237640D01*
X270239157Y-156294537D01*
X270307419Y-156368172D01*
X270365029Y-156420565D01*
X270524673Y-156596317D01*
X270640446Y-156802757D01*
X270710582Y-157036602D01*
X270717335Y-157075602D01*
X270722938Y-157139290D01*
X270728028Y-157253552D01*
X270732556Y-157414868D01*
X270736470Y-157619714D01*
X270739720Y-157864568D01*
X270742254Y-158145907D01*
X270744023Y-158460209D01*
X270744975Y-158803950D01*
X270745131Y-159003588D01*
X270745336Y-160755748D01*
X270675950Y-160782129D01*
X270622923Y-160792214D01*
X270528793Y-160800520D01*
X270406551Y-160806223D01*
X270269184Y-160808500D01*
X270259671Y-160808509D01*
X270110657Y-160807396D01*
X270005757Y-160803278D01*
X269935015Y-160794988D01*
X269888476Y-160781357D01*
X269856184Y-160761218D01*
X269856129Y-160761172D01*
X269844596Y-160750675D01*
X269834724Y-160737220D01*
X269826360Y-160716746D01*
X269819353Y-160685189D01*
X269813552Y-160638487D01*
X269808806Y-160572578D01*
X269804963Y-160483399D01*
X269801872Y-160366889D01*
X269799381Y-160218984D01*
X269797340Y-160035622D01*
X269795597Y-159812740D01*
X269794001Y-159546277D01*
X269792400Y-159232170D01*
X269791394Y-159023206D01*
X269789592Y-158659761D01*
X269787669Y-158346149D01*
X269785256Y-158078104D01*
X269781984Y-157851358D01*
X269777484Y-157661644D01*
X269771387Y-157504698D01*
X269763325Y-157376250D01*
X269752928Y-157272036D01*
X269739827Y-157187788D01*
X269723654Y-157119240D01*
X269704039Y-157062125D01*
X269680614Y-157012177D01*
X269653010Y-156965128D01*
X269620857Y-156916712D01*
X269607576Y-156897367D01*
X269502281Y-156779256D01*
X269374083Y-156702989D01*
X269214854Y-156664672D01*
X269108808Y-156658337D01*
X268919457Y-156656326D01*
X268901845Y-156805102D01*
X268898859Y-156856790D01*
X268895957Y-156957794D01*
X268893186Y-157103328D01*
X268890593Y-157288608D01*
X268888225Y-157508849D01*
X268886130Y-157759266D01*
X268884356Y-158035074D01*
X268882949Y-158331489D01*
X268881957Y-158643725D01*
X268881557Y-158853191D01*
X268881003Y-159219594D01*
X268880375Y-159535677D01*
X268879566Y-159805220D01*
X268878467Y-160032005D01*
X268876971Y-160219811D01*
X268874970Y-160372420D01*
X268872356Y-160493611D01*
X268869021Y-160587165D01*
X268864857Y-160656862D01*
X268859757Y-160706484D01*
X268853612Y-160739809D01*
X268846315Y-160760619D01*
X268837757Y-160772695D01*
X268827831Y-160779816D01*
X268826560Y-160780508D01*
X268775343Y-160793124D01*
X268684186Y-160802029D01*
X268565547Y-160807307D01*
X268431883Y-160809043D01*
X268295651Y-160807324D01*
X268169307Y-160802233D01*
X268065311Y-160793856D01*
X267996117Y-160782280D01*
X267977568Y-160774697D01*
X267971588Y-160767904D01*
X267966159Y-160755089D01*
X267961258Y-160733805D01*
X267956863Y-160701605D01*
X267952954Y-160656041D01*
X267949510Y-160594667D01*
X267946507Y-160515036D01*
X267943926Y-160414700D01*
X267941745Y-160291213D01*
X267939941Y-160142128D01*
X267938495Y-159964997D01*
X267937384Y-159757373D01*
X267936586Y-159516810D01*
X267936081Y-159240860D01*
X267935847Y-158927077D01*
X267935863Y-158573013D01*
X267936106Y-158176221D01*
X267936556Y-157734255D01*
X267937192Y-157244667D01*
X267937991Y-156705010D01*
X267938585Y-156327801D01*
X267939515Y-155755677D01*
X267940409Y-155235178D01*
X267941298Y-154763827D01*
X267942216Y-154339151D01*
X267942572Y-154200562D01*
X268905932Y-154200562D01*
X268906291Y-154479294D01*
X268907324Y-154741755D01*
X268908964Y-154982969D01*
X268911143Y-155197956D01*
X268913795Y-155381740D01*
X268916853Y-155529341D01*
X268920249Y-155635784D01*
X268923918Y-155696089D01*
X268926220Y-155708053D01*
X268964824Y-155718272D01*
X269040306Y-155719311D01*
X269136515Y-155712682D01*
X269237294Y-155699899D01*
X269326492Y-155682474D01*
X269380278Y-155665519D01*
X269546242Y-155574690D01*
X269665363Y-155464123D01*
X269742816Y-155328939D01*
X269745902Y-155320874D01*
X269761051Y-155277844D01*
X269773153Y-155234220D01*
X269782509Y-155183717D01*
X269789420Y-155120052D01*
X269794186Y-155036939D01*
X269797108Y-154928095D01*
X269798486Y-154787234D01*
X269798622Y-154608073D01*
X269797815Y-154384328D01*
X269797133Y-154249996D01*
X269795286Y-154025895D01*
X269792306Y-153813860D01*
X269788391Y-153621298D01*
X269783737Y-153455619D01*
X269778543Y-153324231D01*
X269773005Y-153234543D01*
X269769180Y-153201352D01*
X269714417Y-153038903D01*
X269617183Y-152895585D01*
X269511764Y-152802806D01*
X269454715Y-152769630D01*
X269391885Y-152748080D01*
X269308146Y-152734818D01*
X269188371Y-152726509D01*
X269159750Y-152725192D01*
X268905932Y-152714091D01*
X268905932Y-154200562D01*
X267942572Y-154200562D01*
X267943194Y-153958673D01*
X267944266Y-153619917D01*
X267945463Y-153320409D01*
X267946818Y-153057673D01*
X267948364Y-152829234D01*
X267949400Y-152714091D01*
X267950133Y-152632615D01*
X267952157Y-152465342D01*
X267954469Y-152324940D01*
X267957102Y-152208932D01*
X267960087Y-152114843D01*
X267963458Y-152040198D01*
X267967246Y-151982521D01*
X267971484Y-151939337D01*
X267976205Y-151908171D01*
X267981441Y-151886546D01*
X267987225Y-151871989D01*
X267993589Y-151862022D01*
X267997185Y-151857779D01*
X268014523Y-151840724D01*
X268036269Y-151827465D01*
X268068907Y-151817523D01*
X268118926Y-151810423D01*
X268192810Y-151805687D01*
X268297047Y-151802839D01*
X268438122Y-151801401D01*
X268622522Y-151800896D01*
X268771406Y-151800842D01*
X268991975Y-151801130D01*
G37*
G36*
X255651406Y-151727520D02*
G01*
X255908390Y-151752380D01*
X256129546Y-151804311D01*
X256327908Y-151887162D01*
X256462374Y-151967082D01*
X256610668Y-152086023D01*
X256731044Y-152228762D01*
X256825891Y-152400815D01*
X256897595Y-152607695D01*
X256948543Y-152854918D01*
X256981122Y-153147996D01*
X256982682Y-153169057D01*
X256994894Y-153353284D01*
X257000513Y-153490897D01*
X256998385Y-153589106D01*
X256987355Y-153655123D01*
X256966270Y-153696158D01*
X256933976Y-153719422D01*
X256892678Y-153731469D01*
X256823317Y-153739676D01*
X256720657Y-153744981D01*
X256597333Y-153747508D01*
X256465979Y-153747384D01*
X256339230Y-153744732D01*
X256229720Y-153739678D01*
X256150083Y-153732348D01*
X256114152Y-153723757D01*
X256083679Y-153677152D01*
X256059074Y-153584059D01*
X256041589Y-153451896D01*
X256032477Y-153288078D01*
X256031568Y-153234495D01*
X256022680Y-153059665D01*
X255997100Y-152924645D01*
X255951269Y-152816766D01*
X255890910Y-152733706D01*
X255782325Y-152647944D01*
X255653051Y-152604767D01*
X255515943Y-152604317D01*
X255383861Y-152646736D01*
X255274741Y-152726879D01*
X255252901Y-152749038D01*
X255233277Y-152770400D01*
X255215751Y-152793827D01*
X255200204Y-152822186D01*
X255186517Y-152858338D01*
X255174573Y-152905149D01*
X255164252Y-152965483D01*
X255155437Y-153042202D01*
X255148008Y-153138172D01*
X255141847Y-153256256D01*
X255136837Y-153399318D01*
X255132857Y-153570223D01*
X255129790Y-153771833D01*
X255127518Y-154007014D01*
X255125921Y-154278628D01*
X255124882Y-154589540D01*
X255124282Y-154942615D01*
X255124002Y-155340715D01*
X255123924Y-155786705D01*
X255123929Y-156283449D01*
X255123930Y-156372301D01*
X255123945Y-156862387D01*
X255124022Y-157301299D01*
X255124207Y-157691964D01*
X255124548Y-158037309D01*
X255125090Y-158340261D01*
X255125880Y-158603746D01*
X255126965Y-158830690D01*
X255128392Y-159024020D01*
X255130207Y-159186663D01*
X255132457Y-159321546D01*
X255135189Y-159431595D01*
X255138449Y-159519736D01*
X255142284Y-159588897D01*
X255146740Y-159642004D01*
X255151865Y-159681983D01*
X255157705Y-159711761D01*
X255164307Y-159734266D01*
X255171716Y-159752422D01*
X255178030Y-159765337D01*
X255256398Y-159879490D01*
X255358634Y-159950720D01*
X255496280Y-159987061D01*
X255496602Y-159987105D01*
X255647481Y-159983209D01*
X255779285Y-159929687D01*
X255889394Y-159828452D01*
X255975186Y-159681416D01*
X255998453Y-159621033D01*
X256006785Y-159576434D01*
X256013747Y-159493501D01*
X256019397Y-159369789D01*
X256023791Y-159202850D01*
X256026986Y-158990237D01*
X256029040Y-158729503D01*
X256030009Y-158418202D01*
X256030107Y-158264662D01*
X256030399Y-157965106D01*
X256030722Y-157715186D01*
X256030242Y-157510446D01*
X256028127Y-157346427D01*
X256023544Y-157218673D01*
X256015660Y-157122728D01*
X256003643Y-157054133D01*
X255986660Y-157008432D01*
X255963879Y-156981168D01*
X255934466Y-156967883D01*
X255897590Y-156964121D01*
X255852417Y-156965425D01*
X255798115Y-156967337D01*
X255787756Y-156967402D01*
X255677187Y-156960121D01*
X255610662Y-156939161D01*
X255599835Y-156929874D01*
X255585535Y-156884418D01*
X255577193Y-156788830D01*
X255574729Y-156641727D01*
X255576235Y-156518118D01*
X255579565Y-156369227D01*
X255583648Y-156265232D01*
X255590174Y-156196935D01*
X255600832Y-156155140D01*
X255617312Y-156130651D01*
X255641303Y-156114270D01*
X255651406Y-156108948D01*
X255702884Y-156096642D01*
X255796982Y-156087474D01*
X255923992Y-156081320D01*
X256074207Y-156078061D01*
X256237916Y-156077572D01*
X256405413Y-156079732D01*
X256566988Y-156084419D01*
X256712934Y-156091511D01*
X256833542Y-156100885D01*
X256919104Y-156112420D01*
X256959244Y-156125400D01*
X256967192Y-156135337D01*
X256974146Y-156153348D01*
X256980170Y-156182847D01*
X256985330Y-156227249D01*
X256989692Y-156289967D01*
X256993321Y-156374417D01*
X256996285Y-156484013D01*
X256998647Y-156622170D01*
X257000475Y-156792301D01*
X257001834Y-156997822D01*
X257002790Y-157242146D01*
X257003408Y-157528689D01*
X257003754Y-157860865D01*
X257003895Y-158242088D01*
X257003909Y-158443408D01*
X257003909Y-160724292D01*
X256943790Y-160766401D01*
X256877419Y-160793139D01*
X256784815Y-160807518D01*
X256754439Y-160808509D01*
X256674332Y-160803880D01*
X256615357Y-160783604D01*
X256563651Y-160738100D01*
X256505355Y-160657788D01*
X256480497Y-160619159D01*
X256422154Y-160547058D01*
X256361504Y-160520221D01*
X256289920Y-160538629D01*
X256198776Y-160602260D01*
X256179739Y-160618418D01*
X256092358Y-160688094D01*
X256003067Y-160750062D01*
X255953259Y-160779181D01*
X255884591Y-160809520D01*
X255794724Y-160843320D01*
X255699672Y-160875325D01*
X255615450Y-160900280D01*
X255558073Y-160912927D01*
X255545059Y-160913155D01*
X255512283Y-160908447D01*
X255441185Y-160899530D01*
X255347682Y-160888397D01*
X255079415Y-160835171D01*
X254839946Y-160742845D01*
X254633546Y-160614151D01*
X254464485Y-160451823D01*
X254337034Y-160258591D01*
X254325014Y-160234038D01*
X254299941Y-160181649D01*
X254277383Y-160134033D01*
X254257206Y-160088209D01*
X254239279Y-160041197D01*
X254223468Y-159990019D01*
X254209641Y-159931694D01*
X254197666Y-159863243D01*
X254187409Y-159781686D01*
X254178738Y-159684043D01*
X254171520Y-159567335D01*
X254165623Y-159428581D01*
X254160915Y-159264803D01*
X254157262Y-159073020D01*
X254154532Y-158850253D01*
X254152592Y-158593521D01*
X254151310Y-158299846D01*
X254150553Y-157966248D01*
X254150189Y-157589747D01*
X254150085Y-157167363D01*
X254150107Y-156696116D01*
X254150128Y-156304676D01*
X254150167Y-155806649D01*
X254150310Y-155359754D01*
X254150598Y-154961020D01*
X254151070Y-154607480D01*
X254151767Y-154296165D01*
X254152728Y-154024105D01*
X254153993Y-153788332D01*
X254155603Y-153585877D01*
X254157597Y-153413770D01*
X254160015Y-153269043D01*
X254162898Y-153148728D01*
X254166286Y-153049854D01*
X254170217Y-152969454D01*
X254174734Y-152904558D01*
X254179874Y-152852198D01*
X254185679Y-152809404D01*
X254192188Y-152773208D01*
X254198067Y-152746423D01*
X254283046Y-152475744D01*
X254401182Y-152247293D01*
X254553028Y-152060683D01*
X254739136Y-151915526D01*
X254960059Y-151811435D01*
X255216347Y-151748024D01*
X255508555Y-151724904D01*
X255651406Y-151727520D01*
G37*
G36*
X266171549Y-151800402D02*
G01*
X266378313Y-151801683D01*
X266572556Y-151804038D01*
X266746879Y-151807468D01*
X266893880Y-151811972D01*
X267006157Y-151817551D01*
X267076311Y-151824205D01*
X267095357Y-151828844D01*
X267115941Y-151843913D01*
X267130311Y-151869233D01*
X267139568Y-151913594D01*
X267144814Y-151985789D01*
X267147151Y-152094610D01*
X267147679Y-152246523D01*
X267146109Y-152416049D01*
X267141112Y-152536790D01*
X267132259Y-152613976D01*
X267119120Y-152652840D01*
X267113866Y-152658085D01*
X267077766Y-152665186D01*
X266996035Y-152672621D01*
X266877139Y-152679896D01*
X266729539Y-152686523D01*
X266561700Y-152692009D01*
X266503007Y-152693493D01*
X266310981Y-152698324D01*
X266165862Y-152703117D01*
X266060462Y-152708643D01*
X265987593Y-152715674D01*
X265940068Y-152724981D01*
X265910699Y-152737334D01*
X265892299Y-152753507D01*
X265887618Y-152759526D01*
X265878956Y-152778898D01*
X265871655Y-152814098D01*
X265865605Y-152869276D01*
X265860701Y-152948586D01*
X265856833Y-153056178D01*
X265853895Y-153196204D01*
X265851779Y-153372815D01*
X265850377Y-153590164D01*
X265849582Y-153852403D01*
X265849285Y-154163681D01*
X265849276Y-154238584D01*
X265849420Y-154556251D01*
X265849933Y-154824137D01*
X265850942Y-155046562D01*
X265852570Y-155227845D01*
X265854944Y-155372307D01*
X265858187Y-155484265D01*
X265862426Y-155568040D01*
X265867785Y-155627950D01*
X265874388Y-155668316D01*
X265882362Y-155693455D01*
X265891783Y-155707642D01*
X265916974Y-155724150D01*
X265959705Y-155735905D01*
X266028089Y-155743638D01*
X266130242Y-155748076D01*
X266274277Y-155749948D01*
X266365159Y-155750150D01*
X266549981Y-155750361D01*
X266687514Y-155754787D01*
X266784547Y-155769119D01*
X266847870Y-155799045D01*
X266884275Y-155850254D01*
X266900552Y-155928436D01*
X266903490Y-156039280D01*
X266899881Y-156188476D01*
X266899626Y-156197960D01*
X266895122Y-156350758D01*
X266886187Y-156464999D01*
X266865789Y-156546555D01*
X266826898Y-156601296D01*
X266762484Y-156635090D01*
X266665516Y-156653809D01*
X266528964Y-156663322D01*
X266345798Y-156669498D01*
X266334437Y-156669851D01*
X266164362Y-156676136D01*
X266041115Y-156683328D01*
X265957424Y-156692285D01*
X265906018Y-156703865D01*
X265879625Y-156718924D01*
X265875683Y-156723951D01*
X265870309Y-156759026D01*
X265865564Y-156842213D01*
X265861449Y-156967529D01*
X265857963Y-157128989D01*
X265855107Y-157320611D01*
X265852880Y-157536411D01*
X265851282Y-157770404D01*
X265850314Y-158016608D01*
X265849974Y-158269038D01*
X265850264Y-158521711D01*
X265851183Y-158768644D01*
X265852732Y-159003851D01*
X265854909Y-159221351D01*
X265857716Y-159415159D01*
X265861152Y-159579291D01*
X265865216Y-159707764D01*
X265869910Y-159794593D01*
X265875233Y-159833797D01*
X265875693Y-159834708D01*
X265893365Y-159848817D01*
X265930838Y-159860089D01*
X265994552Y-159869123D01*
X266090951Y-159876519D01*
X266226476Y-159882877D01*
X266407569Y-159888797D01*
X266477143Y-159890723D01*
X266650695Y-159896286D01*
X266807803Y-159903042D01*
X266939736Y-159910475D01*
X267037764Y-159918073D01*
X267093158Y-159925320D01*
X267100341Y-159927429D01*
X267118813Y-159941017D01*
X267131802Y-159968026D01*
X267140244Y-160016834D01*
X267145078Y-160095819D01*
X267147241Y-160213362D01*
X267147679Y-160350601D01*
X267147165Y-160506878D01*
X267144922Y-160617701D01*
X267139898Y-160691710D01*
X267131042Y-160737547D01*
X267117302Y-160763852D01*
X267097627Y-160779267D01*
X267095357Y-160780508D01*
X267055159Y-160787703D01*
X266968383Y-160793816D01*
X266842383Y-160798853D01*
X266684516Y-160802817D01*
X266502136Y-160805713D01*
X266302600Y-160807544D01*
X266093263Y-160808314D01*
X265881480Y-160808029D01*
X265674606Y-160806691D01*
X265479999Y-160804306D01*
X265305012Y-160800877D01*
X265157002Y-160796409D01*
X265043324Y-160790906D01*
X264971334Y-160784371D01*
X264949862Y-160779293D01*
X264943740Y-160773683D01*
X264938168Y-160762691D01*
X264933120Y-160743877D01*
X264928571Y-160714802D01*
X264924495Y-160673025D01*
X264920866Y-160616108D01*
X264917658Y-160541611D01*
X264914845Y-160447095D01*
X264912402Y-160330120D01*
X264910303Y-160188247D01*
X264908522Y-160019036D01*
X264907033Y-159820049D01*
X264905811Y-159588845D01*
X264904829Y-159322985D01*
X264904062Y-159020030D01*
X264903484Y-158677540D01*
X264903069Y-158293076D01*
X264902791Y-157864198D01*
X264902625Y-157388468D01*
X264902545Y-156863445D01*
X264902524Y-156304283D01*
X264902535Y-155730036D01*
X264902586Y-155207439D01*
X264902705Y-154734041D01*
X264902922Y-154307392D01*
X264903266Y-153925040D01*
X264903764Y-153584537D01*
X264904446Y-153283430D01*
X264905340Y-153019270D01*
X264906474Y-152789606D01*
X264907878Y-152591988D01*
X264909580Y-152423965D01*
X264911609Y-152283087D01*
X264913993Y-152166903D01*
X264916761Y-152072962D01*
X264919942Y-151998815D01*
X264923564Y-151942010D01*
X264927656Y-151900098D01*
X264932247Y-151870627D01*
X264937364Y-151851147D01*
X264943038Y-151839208D01*
X264949297Y-151832359D01*
X264954846Y-151828844D01*
X264995332Y-151821527D01*
X265082506Y-151815285D01*
X265208968Y-151810118D01*
X265367316Y-151806026D01*
X265550149Y-151803008D01*
X265750066Y-151801065D01*
X265959666Y-151800196D01*
X266171549Y-151800402D01*
G37*
G36*
X247576328Y-151805554D02*
G01*
X247691137Y-151807782D01*
X247774420Y-151811772D01*
X247831817Y-151817744D01*
X247868971Y-151825921D01*
X247891522Y-151836522D01*
X247899262Y-151842977D01*
X247917008Y-151870117D01*
X247929271Y-151915804D01*
X247936949Y-151988798D01*
X247940939Y-152097861D01*
X247942138Y-152251750D01*
X247942141Y-152261673D01*
X247941375Y-152423123D01*
X247936201Y-152538290D01*
X247922303Y-152614991D01*
X247895366Y-152661045D01*
X247851076Y-152684269D01*
X247785117Y-152692479D01*
X247703781Y-152693493D01*
X247611239Y-152701101D01*
X247550010Y-152721425D01*
X247539602Y-152730199D01*
X247534905Y-152751809D01*
X247530723Y-152805846D01*
X247527046Y-152894043D01*
X247523861Y-153018133D01*
X247521157Y-153179849D01*
X247518924Y-153380925D01*
X247517148Y-153623093D01*
X247515820Y-153908087D01*
X247514928Y-154237639D01*
X247514459Y-154613484D01*
X247514404Y-155037353D01*
X247514750Y-155510981D01*
X247515486Y-156036101D01*
X247516002Y-156321093D01*
X247522865Y-159875283D01*
X247694250Y-159894185D01*
X247790176Y-159908910D01*
X247867238Y-159928190D01*
X247903888Y-159944835D01*
X247921833Y-159986678D01*
X247934786Y-160069963D01*
X247942811Y-160182268D01*
X247945974Y-160311171D01*
X247944338Y-160444251D01*
X247937967Y-160569085D01*
X247926927Y-160673252D01*
X247911281Y-160744330D01*
X247899634Y-160766002D01*
X247881841Y-160777965D01*
X247851243Y-160787497D01*
X247802212Y-160794864D01*
X247729117Y-160800329D01*
X247626331Y-160804159D01*
X247488223Y-160806617D01*
X247309165Y-160807969D01*
X247083528Y-160808480D01*
X246996351Y-160808509D01*
X246755448Y-160808259D01*
X246563158Y-160807328D01*
X246413995Y-160805449D01*
X246302473Y-160802355D01*
X246223107Y-160797779D01*
X246170411Y-160791452D01*
X246138900Y-160783107D01*
X246123087Y-160772476D01*
X246119156Y-160765722D01*
X246113143Y-160723985D01*
X246108118Y-160639447D01*
X246104528Y-160523404D01*
X246102819Y-160387152D01*
X246102737Y-160349758D01*
X246103897Y-160192767D01*
X246107919Y-160081635D01*
X246115617Y-160008161D01*
X246127802Y-159964145D01*
X246143049Y-159943126D01*
X246189953Y-159923632D01*
X246272080Y-159906109D01*
X246359548Y-159895528D01*
X246535736Y-159881385D01*
X246528874Y-156294202D01*
X246522013Y-152707019D01*
X246341756Y-152699073D01*
X246232775Y-152688860D01*
X246157401Y-152670647D01*
X246131377Y-152654834D01*
X246117966Y-152608655D01*
X246109925Y-152509351D01*
X246107290Y-152357636D01*
X246108759Y-152216453D01*
X246116262Y-151814367D01*
X246986323Y-151807233D01*
X247229562Y-151805500D01*
X247424350Y-151804867D01*
X247576328Y-151805554D01*
G37*
%TD*%
M02*
