%TF.GenerationSoftware,KiCad,Pcbnew,(6.0.4)*%
%TF.CreationDate,2022-07-03T17:31:01+01:00*%
%TF.ProjectId,MiniFighter Lite,4d696e69-4669-4676-9874-6572204c6974,rev?*%
%TF.SameCoordinates,Original*%
%TF.FileFunction,Soldermask,Bot*%
%TF.FilePolarity,Negative*%
%FSLAX46Y46*%
G04 Gerber Fmt 4.6, Leading zero omitted, Abs format (unit mm)*
G04 Created by KiCad (PCBNEW (6.0.4)) date 2022-07-03 17:31:01*
%MOMM*%
%LPD*%
G01*
G04 APERTURE LIST*
G04 Aperture macros list*
%AMRoundRect*
0 Rectangle with rounded corners*
0 $1 Rounding radius*
0 $2 $3 $4 $5 $6 $7 $8 $9 X,Y pos of 4 corners*
0 Add a 4 corners polygon primitive as box body*
4,1,4,$2,$3,$4,$5,$6,$7,$8,$9,$2,$3,0*
0 Add four circle primitives for the rounded corners*
1,1,$1+$1,$2,$3*
1,1,$1+$1,$4,$5*
1,1,$1+$1,$6,$7*
1,1,$1+$1,$8,$9*
0 Add four rect primitives between the rounded corners*
20,1,$1+$1,$2,$3,$4,$5,0*
20,1,$1+$1,$4,$5,$6,$7,0*
20,1,$1+$1,$6,$7,$8,$9,0*
20,1,$1+$1,$8,$9,$2,$3,0*%
G04 Aperture macros list end*
%ADD10C,3.200000*%
%ADD11C,2.100000*%
%ADD12O,1.700000X1.700000*%
%ADD13R,1.700000X1.700000*%
%ADD14RoundRect,0.300000X-0.950000X0.450000X-0.950000X-0.450000X0.950000X-0.450000X0.950000X0.450000X0*%
%ADD15C,2.000000*%
%ADD16C,1.750000*%
%ADD17C,3.050000*%
%ADD18C,4.000000*%
%ADD19RoundRect,0.250000X-1.025000X-1.000000X1.025000X-1.000000X1.025000X1.000000X-1.025000X1.000000X0*%
%ADD20C,3.302000*%
%ADD21C,2.082800*%
G04 APERTURE END LIST*
D10*
%TO.C,M3.1*%
X129540000Y-82000000D03*
%TD*%
%TO.C,M3.4*%
X322580000Y-170180000D03*
%TD*%
D11*
%TO.C,U1*%
X179945000Y-153020000D03*
X179945000Y-141620000D03*
X132945000Y-153020000D03*
X132945000Y-141620000D03*
D12*
X180575000Y-138430000D03*
X178035000Y-138430000D03*
D13*
X175495000Y-138430000D03*
D12*
X172955000Y-138430000D03*
X170415000Y-138430000D03*
X167875000Y-138430000D03*
X165335000Y-138430000D03*
D13*
X162795000Y-138430000D03*
D12*
X160255000Y-138430000D03*
X157715000Y-138430000D03*
X155175000Y-138430000D03*
X152635000Y-138430000D03*
D13*
X150095000Y-138430000D03*
D12*
X147555000Y-138430000D03*
X145015000Y-138430000D03*
X142475000Y-138430000D03*
X139935000Y-138430000D03*
D13*
X137395000Y-138430000D03*
D12*
X134855000Y-138430000D03*
X132315000Y-138430000D03*
X132315000Y-156210000D03*
X134855000Y-156210000D03*
D13*
X137395000Y-156210000D03*
D12*
X139935000Y-156210000D03*
X142475000Y-156210000D03*
X145015000Y-156210000D03*
X147555000Y-156210000D03*
D13*
X150095000Y-156210000D03*
D12*
X152635000Y-156210000D03*
X155175000Y-156210000D03*
X157715000Y-156210000D03*
X160255000Y-156210000D03*
D13*
X162795000Y-156210000D03*
D12*
X165335000Y-156210000D03*
X167875000Y-156210000D03*
X170415000Y-156210000D03*
X172955000Y-156210000D03*
D13*
X175495000Y-156210000D03*
D12*
X178035000Y-156210000D03*
X180575000Y-156210000D03*
X132545000Y-144780000D03*
D13*
X132545000Y-147320000D03*
D12*
X132545000Y-149860000D03*
D14*
X177815000Y-147320000D03*
X181095000Y-148320000D03*
X181115000Y-146320000D03*
%TD*%
D15*
%TO.C,A1*%
X178920000Y-86070000D03*
X185420000Y-86070000D03*
X185420000Y-81570000D03*
X178920000Y-81570000D03*
%TD*%
D10*
%TO.C,M3.6*%
X233680000Y-123190000D03*
%TD*%
D16*
%TO.C,P3*%
X293370000Y-92710000D03*
D17*
X284480000Y-90170000D03*
X290830000Y-87630000D03*
D18*
X288290000Y-92710000D03*
D16*
X283210000Y-92710000D03*
D19*
X281205000Y-90170000D03*
X294132000Y-87630000D03*
%TD*%
D15*
%TO.C,A2*%
X166220000Y-86070000D03*
X172720000Y-86070000D03*
X166220000Y-81570000D03*
X172720000Y-81570000D03*
%TD*%
D16*
%TO.C,K3*%
X283210000Y-121920000D03*
D17*
X284480000Y-119380000D03*
D18*
X288290000Y-121920000D03*
D17*
X290830000Y-116840000D03*
D16*
X293370000Y-121920000D03*
D19*
X281205000Y-119380000D03*
X294132000Y-116840000D03*
%TD*%
D17*
%TO.C,K2*%
X255270000Y-119380000D03*
D18*
X259080000Y-121920000D03*
D16*
X254000000Y-121920000D03*
X264160000Y-121920000D03*
D17*
X261620000Y-116840000D03*
D19*
X251995000Y-119380000D03*
X264922000Y-116840000D03*
%TD*%
D15*
%TO.C,R3*%
X153520000Y-86070000D03*
X160020000Y-86070000D03*
X160020000Y-81570000D03*
X153520000Y-81570000D03*
%TD*%
D20*
%TO.C,USBC1*%
X221235000Y-80808750D03*
X237745000Y-80808750D03*
D21*
X223140000Y-89698750D03*
X225680000Y-89698750D03*
X228220000Y-89698750D03*
X230760000Y-89698750D03*
X233300000Y-89698750D03*
X235840000Y-89698750D03*
%TD*%
D18*
%TO.C,DOWN1*%
X172720000Y-101600000D03*
D16*
X177800000Y-101600000D03*
X167640000Y-101600000D03*
D17*
X175260000Y-96520000D03*
X168910000Y-99060000D03*
D19*
X165635000Y-99060000D03*
X178562000Y-96520000D03*
%TD*%
D16*
%TO.C,RIGHT1*%
X193040000Y-115570000D03*
D18*
X198120000Y-115570000D03*
D16*
X203200000Y-115570000D03*
D17*
X200660000Y-110490000D03*
X194310000Y-113030000D03*
D19*
X191035000Y-113030000D03*
X203962000Y-110490000D03*
%TD*%
D15*
%TO.C,SELECT1*%
X198120000Y-86070000D03*
X191620000Y-86070000D03*
X191620000Y-81570000D03*
X198120000Y-81570000D03*
%TD*%
D16*
%TO.C,P4*%
X321310000Y-100330000D03*
D18*
X316230000Y-100330000D03*
D17*
X318770000Y-95250000D03*
X312420000Y-97790000D03*
D16*
X311150000Y-100330000D03*
D19*
X309145000Y-97790000D03*
X322072000Y-95250000D03*
%TD*%
D17*
%TO.C,K1*%
X229870000Y-133350000D03*
D16*
X228600000Y-135890000D03*
D17*
X236220000Y-130810000D03*
D16*
X238760000Y-135890000D03*
D18*
X233680000Y-135890000D03*
D19*
X226595000Y-133350000D03*
X239522000Y-130810000D03*
%TD*%
D15*
%TO.C,RUN1*%
X303380000Y-85090000D03*
X309880000Y-85090000D03*
X309880000Y-80590000D03*
X303380000Y-80590000D03*
%TD*%
D17*
%TO.C,P2*%
X261620000Y-87630000D03*
D16*
X254000000Y-92710000D03*
X264160000Y-92710000D03*
D18*
X259080000Y-92710000D03*
D17*
X255270000Y-90170000D03*
D19*
X251995000Y-90170000D03*
X264922000Y-87630000D03*
%TD*%
D17*
%TO.C,LEFT1*%
X140970000Y-99060000D03*
D18*
X144780000Y-101600000D03*
D16*
X139700000Y-101600000D03*
D17*
X147320000Y-96520000D03*
D16*
X149860000Y-101600000D03*
D19*
X137695000Y-99060000D03*
X150622000Y-96520000D03*
%TD*%
D16*
%TO.C,P1*%
X228600000Y-106680000D03*
D17*
X229870000Y-104140000D03*
X236220000Y-101600000D03*
D18*
X233680000Y-106680000D03*
D16*
X238760000Y-106680000D03*
D19*
X226595000Y-104140000D03*
X239522000Y-101600000D03*
%TD*%
D15*
%TO.C,L3*%
X140820000Y-86070000D03*
X147320000Y-86070000D03*
X140820000Y-81570000D03*
X147320000Y-81570000D03*
%TD*%
D10*
%TO.C,M3.3*%
X129540000Y-170180000D03*
%TD*%
D15*
%TO.C,START1*%
X204320000Y-86070000D03*
X210820000Y-86070000D03*
X210820000Y-81570000D03*
X204320000Y-81570000D03*
%TD*%
D10*
%TO.C,M3.5*%
X233680000Y-170180000D03*
%TD*%
D17*
%TO.C,UP1*%
X207010000Y-160020000D03*
D18*
X210820000Y-162560000D03*
D16*
X215900000Y-162560000D03*
X205740000Y-162560000D03*
D17*
X213360000Y-157480000D03*
D19*
X203735000Y-160020000D03*
X216662000Y-157480000D03*
%TD*%
D10*
%TO.C,M3.2*%
X322580000Y-82000000D03*
%TD*%
D16*
%TO.C,K4*%
X321310000Y-129540000D03*
D18*
X316230000Y-129540000D03*
D17*
X312420000Y-127000000D03*
D16*
X311150000Y-129540000D03*
D17*
X318770000Y-124460000D03*
D19*
X309145000Y-127000000D03*
X322072000Y-124460000D03*
%TD*%
M02*
