M48
; DRILL file {KiCad (6.0.4)} date Sun Jul  3 17:31:03 2022
; FORMAT={-:-/ absolute / inch / decimal}
; #@! TF.CreationDate,2022-07-03T17:31:03+01:00
; #@! TF.GenerationSoftware,Kicad,Pcbnew,(6.0.4)
; #@! TF.FileFunction,Plated,1,2,PTH
FMAT,2
INCH
; #@! TA.AperFunction,Plated,PTH,ViaDrill
T1C0.0157
; #@! TA.AperFunction,Plated,PTH,ComponentDrill
T2C0.0400
; #@! TA.AperFunction,Plated,PTH,ComponentDrill
T3C0.0402
; #@! TA.AperFunction,Plated,PTH,ComponentDrill
T4C0.0433
; #@! TA.AperFunction,Plated,PTH,ComponentDrill
T5C0.0472
%
G90
G05
T1
X5.1Y-3.65
X5.4Y-3.65
X5.4Y-5.1
X7.1Y-4.55
X7.2Y-4.6
X7.4Y-6.45
X7.45Y-4.05
X8.15Y-3.65
X8.65Y-3.9
X8.7Y-3.8
X8.9Y-3.8
X10.75Y-3.85
X11.75Y-5.25
T2
X8.785Y-3.5314
X8.885Y-3.5314
X8.985Y-3.5314
X9.085Y-3.5314
X9.185Y-3.5314
X9.285Y-3.5314
T3
X5.2093Y-5.45
X5.2093Y-6.15
X5.2183Y-5.7
X5.2183Y-5.8
X5.2183Y-5.9
X5.3093Y-5.45
X5.3093Y-6.15
X5.4093Y-5.45
X5.4093Y-6.15
X5.5093Y-5.45
X5.5093Y-6.15
X5.6093Y-5.45
X5.6093Y-6.15
X5.7093Y-5.45
X5.7093Y-6.15
X5.8093Y-5.45
X5.8093Y-6.15
X5.9093Y-5.45
X5.9093Y-6.15
X6.0093Y-5.45
X6.0093Y-6.15
X6.1093Y-5.45
X6.1093Y-6.15
X6.2093Y-5.45
X6.2093Y-6.15
X6.3093Y-5.45
X6.3093Y-6.15
X6.4093Y-5.45
X6.4093Y-6.15
X6.5093Y-5.45
X6.5093Y-6.15
X6.6093Y-5.45
X6.6093Y-6.15
X6.7093Y-5.45
X6.7093Y-6.15
X6.8093Y-5.45
X6.8093Y-6.15
X6.9093Y-5.45
X6.9093Y-6.15
X7.0093Y-5.45
X7.0093Y-6.15
X7.1093Y-5.45
X7.1093Y-6.15
T4
X5.5441Y-3.2114
X5.5441Y-3.3886
X5.8Y-3.2114
X5.8Y-3.3886
X6.0441Y-3.2114
X6.0441Y-3.3886
X6.3Y-3.2114
X6.3Y-3.3886
X6.5441Y-3.2114
X6.5441Y-3.3886
X6.8Y-3.2114
X6.8Y-3.3886
X7.0441Y-3.2114
X7.0441Y-3.3886
X7.3Y-3.2114
X7.3Y-3.3886
X7.5441Y-3.2114
X7.5441Y-3.3886
X7.8Y-3.2114
X7.8Y-3.3886
X8.0441Y-3.2114
X8.0441Y-3.3886
X8.3Y-3.2114
X8.3Y-3.3886
X11.9441Y-3.1728
X11.9441Y-3.35
X12.2Y-3.1728
X12.2Y-3.35
T5
G00X7.0203Y-5.8
M15
G01X6.9809Y-5.8
M16
G05
G00X7.1494Y-5.8394
M15
G01X7.11Y-5.8394
M16
G05
G00X7.1502Y-5.7606
M15
G01X7.1108Y-5.7606
M16
G05
T0
M30
